<svg width="20" height="20" viewBox="0 0 20 20" fill="none" xmlns="http://www.w3.org/2000/svg">
<path fill-rule="evenodd" clip-rule="evenodd" d="M-0.00012207 10C-0.00012207 4.48 4.46988 0 9.99988 0C15.5199 0 19.9999 4.48 19.9999 10C19.9999 15.53 15.5199 20 9.99988 20C4.46988 20 -0.00012207 15.53 -0.00012207 10ZM12.2299 11.83L13.8499 6.71C13.9599 6.36 13.6399 6.03 13.2899 6.14L8.16988 7.74C7.95988 7.81 7.78988 7.97 7.72988 8.18L6.12988 13.31C6.01988 13.65 6.34988 13.98 6.68988 13.87L11.7899 12.27C11.9999 12.21 12.1699 12.04 12.2299 11.83Z" fill="white"/>
</svg>
