<svg width="95" height="156" viewBox="0 0 95 156" fill="none" xmlns="http://www.w3.org/2000/svg">
<path d="M21.5088 90.4505C20.6501 90.4666 19.8216 90.7696 19.1552 91.3113C18.4887 91.8529 18.0228 92.6021 17.8315 93.4393C16.6268 98.5779 16.481 103.908 17.403 109.105C17.4196 109.204 17.4362 109.304 17.4528 109.395C18.0064 112.8 19.0816 116.1 20.6406 119.177C20.6904 119.285 20.7401 119.393 20.7982 119.492C22.7956 123.574 25.4956 127.273 28.7747 130.419C29.4881 131.154 30.2429 131.893 31.0281 132.631C37.8876 139.026 46.7655 141.907 55.7456 141.666C64.7175 141.907 73.5954 139.026 80.4549 132.631C81.2401 131.893 81.9949 131.154 82.7083 130.419C85.9874 127.273 88.6874 123.574 90.6848 119.492C90.7429 119.384 90.7926 119.285 90.8424 119.177C92.4014 116.1 93.4766 112.8 94.0303 109.395C94.0469 109.304 94.0634 109.204 94.08 109.105C95.1825 102.89 94.7564 96.5 92.8386 90.4864C90.0461 81.6887 84.6547 74.796 76.8275 69.4212C77.6293 67.9973 78.3177 66.8361 78.9398 65.6444C86.1118 52.0332 81.6798 35.2313 68.7099 26.7792C55.8535 18.4184 38.4682 21.2883 29.0402 33.3484C26.4799 36.6275 26.2753 38.8394 28.3794 40.4789C30.3922 42.0521 32.4962 41.2918 35.0786 38.0597C38.1403 34.1745 42.4162 31.4277 47.2227 30.2584C52.0292 29.0891 57.0889 29.5648 61.5933 31.6094C70.8886 35.7981 76.0644 45.6243 74.2921 55.7463C73.2305 61.7764 70.0841 66.4628 65.1875 70.0847C63.042 71.6745 62.6467 73.9776 63.971 75.7665C65.2539 77.489 67.4243 77.8954 69.5007 76.2807C71.2978 74.8983 72.4342 75.7278 73.8083 76.6927C87.2703 86.1457 91.0387 104.822 82.3074 118.856C79.8 122.882 76.4202 126.293 72.4176 128.837C72.0692 129.05 71.7209 129.266 71.3559 129.473C66.8705 132.082 61.8082 133.539 56.6221 133.712C56.0415 133.728 55.4526 133.728 54.872 133.712C49.68 133.54 44.6118 132.083 40.1216 129.471C39.7649 129.263 39.4083 129.048 39.0599 128.835C35.0573 126.29 31.6775 122.879 29.1701 118.854C26.9883 115.342 25.5231 111.432 24.8588 107.352C24.1944 103.271 24.3442 99.0988 25.2993 95.0761C25.4232 94.5139 25.4179 93.931 25.284 93.3711C25.15 92.8113 24.8909 92.2891 24.526 91.8438C24.1612 91.3986 23.7001 91.0419 23.1775 90.8005C22.6548 90.5592 22.0843 90.4395 21.5088 90.4505Z" fill="#D17842"/>
<path d="M55.6216 109.694C50.0919 109.694 44.5623 109.713 39.0326 109.694C35.9415 109.677 34.1223 108.173 34.1831 105.784C34.2412 103.498 35.9968 102.052 38.9386 102.043C50.0956 102.016 61.2526 102.016 72.4096 102.043C75.5588 102.043 77.2509 103.489 77.1984 105.967C77.1486 108.358 75.5395 109.677 72.4981 109.696C66.8689 109.716 61.2453 109.694 55.6216 109.694Z" fill="#2D221D"/>
<path d="M55.5524 155.51C50.0227 155.51 44.4931 155.526 38.9634 155.51C35.8585 155.51 34.0448 154.006 34.1194 151.639C34.1885 149.344 35.9248 147.882 38.8805 147.873C50.0375 147.835 61.1889 147.835 72.3349 147.873C75.473 147.873 77.1734 149.372 77.1236 151.835C77.0738 154.227 75.4923 155.51 72.4234 155.526C66.7997 155.529 61.176 155.51 55.5524 155.51Z" fill="#2D221D"/>
<path d="M55.7291 116.647C58.8036 116.647 61.8809 116.606 64.9526 116.647C67.4935 116.692 69.1441 118.115 69.2685 120.217C69.3985 122.406 67.7202 124.204 65.0909 124.245C58.7612 124.345 52.4307 124.345 46.0992 124.245C43.5832 124.201 42.046 122.512 42.0847 120.374C42.1234 118.237 43.6772 116.736 46.2319 116.681C49.3949 116.598 52.5634 116.65 55.7291 116.647Z" fill="#2D221D"/>
<path d="M28.3738 30.5837C28.8411 24.0338 29.1507 17.5586 28.6696 11.0695C27.1462 17.3955 26.3969 23.8348 25.8025 30.3791C25.526 30.0861 25.2965 29.8593 25.0919 29.6105C24.1674 28.4993 23.3612 27.2947 22.6865 26.0162C20.4008 21.6396 19.8122 16.573 21.0339 11.789C22.2555 7.00494 25.2013 2.84078 29.3055 0.095943C29.3413 0.0621818 29.3837 0.0362891 29.43 0.019954C29.4764 0.00361896 29.5257 -0.00279634 29.5747 0.00111289C29.6236 0.00502212 29.6713 0.0191721 29.7145 0.0426512C29.7576 0.0661303 29.7954 0.0984155 29.8253 0.137414C33.439 3.57963 35.5762 7.77388 36.0656 12.7395C36.6185 18.2692 35.073 23.2044 31.5699 27.5231C30.6963 28.5834 29.7109 29.5465 28.6309 30.3957L28.3738 30.5837Z" fill="#2D221D"/>
<path d="M25.1832 33.2934C24.8624 33.5699 24.5583 33.8657 24.2155 34.1228C23.0935 34.9238 21.8225 35.492 20.4774 35.7939C19.1323 36.0959 17.7404 36.1255 16.3837 35.8809C15.027 35.6364 13.733 35.1227 12.578 34.3701C11.423 33.6175 10.4304 32.6413 9.65865 31.499C9.63565 31.4749 9.61805 31.4461 9.60701 31.4147C9.59597 31.3832 9.59175 31.3498 9.59463 31.3166C9.5975 31.2834 9.6074 31.2511 9.62369 31.2221C9.63997 31.193 9.66225 31.1677 9.68906 31.1479C10.6263 30.1374 11.7601 29.3292 13.021 28.7729C14.282 28.2167 15.6433 27.924 17.0214 27.913C19.5044 27.8358 21.9264 28.6898 23.8118 30.3074C24.3122 30.7691 24.7884 31.2563 25.2385 31.7672C25.273 31.8157 25.3027 31.8676 25.3269 31.922C22.0257 31.6953 18.7632 31.5294 15.4924 31.7782C18.672 32.5552 21.9151 32.9201 25.1693 33.2298L25.1832 33.2934Z" fill="#2D221D"/>
<path d="M25.8138 83.9451C29.7606 84.7623 33.7998 85.0413 37.8215 84.7745C41.4683 84.5478 45.1096 84.393 48.7619 84.7745C51.0678 85.0178 53.3875 85.2252 55.5247 86.3007C57.5541 87.3154 57.8748 88.825 56.379 90.5558C54.8832 92.2865 52.9783 93.3925 50.9627 94.2634C48.7011 95.2394 46.3676 96.0412 43.8212 97.0282C44.9271 97.1057 45.8339 97.2301 46.7408 97.2273C51.3546 97.2066 55.9517 96.6697 60.4461 95.6265C63.4874 94.927 66.3434 93.6911 68.8069 91.6313C71.721 89.1761 71.8648 86.2841 69.1332 83.6409C66.5702 81.1526 63.363 80.0632 60.0617 79.2365C54.427 77.8265 48.6762 77.4422 42.9032 77.2459C38.756 77.1076 34.6087 76.8616 30.4615 76.5823C29.4634 76.516 28.4819 76.1399 27.4921 75.8994L27.4257 75.4515C27.9538 75.1446 28.4459 74.716 29.0127 74.5557C31.5868 73.8285 34.1636 73.1014 36.7708 72.5152C40.9568 71.5724 45.198 70.8563 49.3563 69.8057C51.0429 69.3716 52.6548 68.4012 54.1423 67.4197C55.2482 66.6814 55.356 65.3958 54.615 64.2207C54.1868 63.4757 53.595 62.8375 52.8843 62.3545C51.6259 61.5688 50.277 60.9384 48.867 60.4772C44.211 59.0699 39.5135 57.8146 34.8437 56.4599C33.4779 56.0645 32.1508 55.5281 30.8071 55.0581L30.7795 54.6351C36.1902 51.9394 42.2563 51.0408 47.6587 48.2898C44.1585 48.7349 40.6886 49.2575 37.2381 49.91C34.0585 50.5127 30.879 51.2095 27.9759 52.7661C27.1243 53.2223 26.317 53.7752 26.2921 54.9503C26.2672 56.1253 27.0248 56.7972 27.9096 57.1621C29.6888 57.9222 31.5145 58.5687 33.3756 59.0975C37.1137 60.1095 40.907 60.9113 44.6368 61.9481C45.8191 62.3131 46.9181 62.9068 47.8716 63.6954C48.9388 64.5415 48.7204 65.4069 47.4348 65.7829C45.8478 66.2446 44.2276 66.6123 42.6157 66.9607C36.8095 68.2685 30.9896 69.4795 25.2138 70.8951C22.573 71.4922 20.1101 72.7038 18.0253 74.4313C16.1922 75.9989 15.8687 77.9592 17.0465 80.0853C17.0493 80.0743 18.4511 82.3857 25.8138 83.9451Z" fill="#4C4C4C"/>
<path d="M30.7241 94.6034C32.3139 94.2302 33.9037 93.8348 35.499 93.4975C38.4905 92.8367 41.4904 92.2229 44.4764 91.5372C45.2321 91.3626 45.9598 91.0834 46.6385 90.7078C47.4265 90.2654 47.443 89.7207 46.7021 89.2092C45.9611 88.6978 45.2257 88.3798 44.4902 87.9568C47.067 87.9015 49.6604 87.99 52.1405 88.8941C53.4206 89.3613 53.6003 90.2156 52.417 90.8681C52.4142 90.8571 50.3738 93.1215 30.7241 94.6034Z" fill="#4C4C4C"/>
<path d="M16.0318 122.948C15.7837 122.948 15.5366 122.917 15.2964 122.854C7.10972 120.767 3.23896 115.436 1.66024 112.445C0.462257 110.229 0.0518664 107.672 0.496242 105.193C1.80677 98.3635 8.79074 96.5691 12.3546 96.5691H12.4127C13.1863 96.5947 13.9196 96.9207 14.4571 97.4778C14.9945 98.0349 15.2939 98.7794 15.2917 99.5535C15.2896 100.328 14.9861 101.07 14.4455 101.625C13.905 102.179 13.1699 102.5 12.3961 102.522C12.1555 102.522 7.05719 102.607 6.34387 106.315C6.15569 107.463 6.36025 108.641 6.92447 109.658C8.03041 111.778 10.7952 115.561 16.7645 117.079C17.4658 117.259 18.0772 117.689 18.4845 118.288C18.8917 118.886 19.0668 119.613 18.977 120.332C18.8872 121.05 18.5386 121.711 17.9965 122.192C17.4544 122.672 16.756 122.938 16.0318 122.94V122.948Z" fill="#D17842"/>
</svg>
