<svg width="26" height="24" viewBox="0 0 26 24" fill="none" xmlns="http://www.w3.org/2000/svg">
<path d="M7.61428 4.38315H6.00623V1.13513C6.00623 0.712508 6.34886 0.369873 6.77149 0.369873H6.84907C7.2717 0.369873 7.61433 0.712508 7.61433 1.13513V4.38315H7.61428Z" fill="#ACA6D6"/>
<path d="M6.84904 0.369873H6.77145C6.61947 0.369873 6.47823 0.414727 6.35913 0.491135C6.57118 0.627168 6.71207 0.86449 6.71207 1.13513V4.38315H7.61425V1.13513C7.6143 0.712508 7.27166 0.369873 6.84904 0.369873Z" fill="#978ECB"/>
<path d="M14.284 23.632H3.32556V5.37807C3.32556 4.86637 3.65235 4.4118 4.13734 4.24878L14.284 0.838135V23.632Z" fill="#C8EFFE"/>
<path d="M13.2263 1.19363V23.632H14.284V0.838135L13.2263 1.19363Z" fill="#99E6FC"/>
<path d="M21.9051 12.081V23.632H14.2839V11.2649H21.089C21.54 11.2649 21.9051 11.63 21.9051 12.081Z" fill="#F5FCFF"/>
<path d="M21.089 11.2646H20.0312C20.4821 11.2646 20.8476 11.6302 20.8476 12.081V23.632H21.9054V12.0811C21.9054 11.6302 21.5399 11.2646 21.089 11.2646Z" fill="#DDF4FE"/>
<path d="M14.2841 23.6318H24.2045C24.5101 23.6318 24.7579 23.384 24.7579 23.0784V21.342H14.2841V23.6318Z" fill="#B6C4CF"/>
<path d="M21.9051 18.5435V21.3422H19.5103V20.5879C19.5103 19.4563 20.4279 18.5391 21.5596 18.5391H21.7672C21.8133 18.5391 21.8594 18.5405 21.9051 18.5435Z" fill="#DDF4FE"/>
<path d="M23.7 21.3425V23.0789C23.7 23.3845 23.4522 23.6323 23.1466 23.6323H24.2043C24.51 23.6323 24.7578 23.3845 24.7578 23.0789V21.3425H23.7Z" fill="#9FACBA"/>
<path d="M22.5008 18.5388H22.7086C23.8403 18.5388 24.7578 19.4563 24.7578 20.5881V21.3422H20.4515V20.5881C20.4515 19.4563 21.369 18.5388 22.5008 18.5388Z" fill="#BBEC6C"/>
<path d="M22.7086 18.5388H22.5008C22.355 18.5388 22.213 18.5543 22.0758 18.5832C23.0036 18.7789 23.7001 19.6021 23.7001 20.5881V21.3422H24.7578V20.5881C24.7578 19.4563 23.8403 18.5388 22.7086 18.5388Z" fill="#A2E62E"/>
<path d="M0.92145 23.6322H3.32559V21.3425H0.368042V23.0789C0.368042 23.3844 0.615817 23.6322 0.92145 23.6322Z" fill="#B6C4CF"/>
<path d="M2.26782 21.3425H3.32556V23.6322H2.26782V21.3425Z" fill="#9FACBA"/>
<path d="M3.0362 18.5388H3.32559V21.3422H0.368042V21.207C0.368042 19.7334 1.5626 18.5388 3.0362 18.5388Z" fill="#BBEC6C"/>
<path d="M3.03612 18.5388C2.76897 18.5388 2.51118 18.5786 2.26782 18.6516V21.3422H3.32556V18.5388H3.03612Z" fill="#A2E62E"/>
<path d="M14.2841 0.838135L17.7314 4.17041C17.9636 4.39487 18.0948 4.70404 18.0948 5.02704V11.2647H14.2841V0.838135Z" fill="#60B7FF"/>
<path d="M17.7314 4.17041L14.2841 0.838135V1.86054L16.6737 4.17036C16.9059 4.39482 17.0371 4.70399 17.0371 5.02699V11.2646H18.0948V5.02704C18.0947 4.70404 17.9636 4.39492 17.7314 4.17041Z" fill="#26A6FE"/>
<path d="M10.3681 23.6318H6.0061V20.505C6.0061 20.2626 6.16756 20.0499 6.40105 19.9848L9.82676 19.0284C10.0987 18.9525 10.3681 19.1569 10.3681 19.4393V23.6318Z" fill="#60B7FF"/>
<path d="M9.8268 19.0284L9.23267 19.1943C9.2811 19.263 9.31045 19.3468 9.31045 19.4393V23.6319H10.3682V19.4393C10.3681 19.157 10.0988 18.9525 9.8268 19.0284Z" fill="#26A6FE"/>
<path d="M19.8734 14.3007H16.2639C16.1243 14.3007 16.0112 14.1876 16.0112 14.048V13.1621C16.0112 13.0225 16.1243 12.9094 16.2639 12.9094H19.8734C20.0129 12.9094 20.126 13.0225 20.126 13.1621V14.048C20.126 14.1876 20.0129 14.3007 19.8734 14.3007Z" fill="#C8EFFE"/>
<path d="M19.8734 12.9094H18.8157C18.9552 12.9094 19.0684 13.0225 19.0684 13.1621V14.048C19.0684 14.1876 18.9552 14.3007 18.8157 14.3007H19.8734C20.013 14.3007 20.1261 14.1876 20.1261 14.048V13.1621C20.1261 13.0225 20.013 12.9094 19.8734 12.9094Z" fill="#99E6FC"/>
<path d="M19.8734 17.0993H16.2639C16.1243 17.0993 16.0112 16.9862 16.0112 16.8466V15.9607C16.0112 15.8211 16.1243 15.708 16.2639 15.708H19.8734C20.0129 15.708 20.126 15.8211 20.126 15.9607V16.8466C20.126 16.9862 20.0129 17.0993 19.8734 17.0993Z" fill="#C8EFFE"/>
<path d="M19.8734 15.708H18.8157C18.9552 15.708 19.0684 15.8211 19.0684 15.9607V16.8466C19.0684 16.9861 18.9552 17.0993 18.8157 17.0993H19.8734C20.013 17.0993 20.1261 16.9861 20.1261 16.8466V15.9607C20.1261 15.8211 20.013 15.708 19.8734 15.708Z" fill="#99E6FC"/>
<path d="M17.4578 19.9265H16.2639C16.1243 19.9265 16.0112 19.8133 16.0112 19.6738V18.7878C16.0112 18.6483 16.1243 18.5352 16.2639 18.5352H17.4578C17.5974 18.5352 17.7105 18.6483 17.7105 18.7878V19.6738C17.7105 19.8133 17.5974 19.9265 17.4578 19.9265Z" fill="#C8EFFE"/>
<path d="M17.4578 18.5354H16.4C16.5396 18.5354 16.6527 18.6485 16.6527 18.7881V19.674C16.6527 19.8136 16.5396 19.9267 16.4 19.9267H17.4578C17.5973 19.9267 17.7104 19.8136 17.7104 19.674V18.7881C17.7104 18.6485 17.5973 18.5354 17.4578 18.5354Z" fill="#99E6FC"/>
<path d="M22.7086 18.1708C22.5125 18.1731 22.534 18.1636 22.2732 18.1819V12.081C22.2732 11.428 21.742 10.8968 21.0891 10.8968H18.0995C18.0979 10.8968 18.0963 10.8966 18.0947 10.8966H14.6521V1.70572L17.4755 4.43498C17.6351 4.58926 17.7267 4.80499 17.7267 5.02695V9.52969C17.7267 9.73296 17.8915 9.89775 18.0947 9.89775C18.298 9.89775 18.4628 9.73296 18.4628 9.52969V5.02695C18.4628 4.60659 18.2894 4.1979 17.9871 3.90571L14.5398 0.573439C14.4623 0.500711 14.3138 0.435443 14.1667 0.489179L7.98238 2.56795V1.13499C7.98704 0.508857 7.42524 -0.0361094 6.77172 0.00187388C6.14667 0.00187388 5.63811 0.510182 5.63811 1.13499V3.35594L4.02009 3.89982C3.38454 4.11349 2.95749 4.70748 2.95749 5.37803V18.1729C1.31965 18.2148 0 19.5592 0 21.207V23.0786C0 23.5867 0.41335 24 0.921414 24H24.2044C24.7125 24 25.1258 23.5867 25.1258 23.0786V20.5881C25.1259 19.2552 24.0415 18.1708 22.7086 18.1708ZM22.7086 18.907C23.6356 18.907 24.3898 19.6611 24.3898 20.5881V20.9742H20.8197V20.5881C20.8205 19.5821 21.7045 18.8198 22.7086 18.907ZM21.5371 12.081V18.3718C20.6825 18.7449 20.0835 19.5976 20.0835 20.5881V20.9742H14.6521V11.6329H21.0891C21.3361 11.6329 21.5371 11.8339 21.5371 12.081ZM6.37422 1.13499C6.37422 0.916074 6.55256 0.737984 6.77172 0.737984C6.96856 0.70908 7.23361 0.863417 7.24627 1.13499V2.81539L6.37422 3.1085V1.13499ZM2.95754 18.9083V20.9742H0.74779C0.862279 19.8405 1.80347 18.9472 2.95754 18.9083ZM0.73611 23.0786V21.7104H2.95754V23.2639H0.921463C0.819242 23.2639 0.73611 23.1808 0.73611 23.0786ZM3.69365 5.37803C3.69365 5.02401 3.9191 4.71043 4.25467 4.59761L13.916 1.35008V3.35549L5.88888 6.05373C5.69622 6.11846 5.59252 6.32717 5.6573 6.51988C5.70898 6.67368 5.85237 6.77075 6.00612 6.77075C6.04499 6.77075 6.08454 6.76457 6.12346 6.75147L13.916 4.13214V6.00456L5.88888 8.70275C5.69622 8.76752 5.59252 8.97624 5.6573 9.1689C5.70898 9.3227 5.85237 9.41977 6.00612 9.41977C6.04499 9.41977 6.08454 9.41358 6.12346 9.40048L13.916 6.78111V8.65353L5.88888 11.3518C5.69622 11.4165 5.59252 11.6252 5.6573 11.8179C5.70898 11.9717 5.85237 12.0688 6.00612 12.0688C6.04499 12.0688 6.08454 12.0626 6.12346 12.0495L13.916 9.43017V11.2635C13.916 11.264 13.916 11.2644 13.916 11.2649V11.3026L5.88888 14.0008C5.69622 14.0656 5.59252 14.2743 5.6573 14.4669C5.70898 14.6207 5.85237 14.7178 6.00612 14.7178C6.04499 14.7178 6.08454 14.7116 6.12346 14.6985L13.9159 12.0791V13.9516L8.90365 15.6364C8.71098 15.7011 8.60729 15.9099 8.67207 16.1026C8.72374 16.2564 8.86714 16.3534 9.02088 16.3534C9.05975 16.3534 9.0993 16.3472 9.13822 16.3341L13.9159 14.7282V23.2639H10.7363V19.4394C10.7363 19.1887 10.6218 18.958 10.4221 18.8064C10.2224 18.6549 9.96939 18.6066 9.72794 18.674L6.30223 19.6304C5.91126 19.7395 5.63821 20.0993 5.63821 20.5052V23.2639H3.69365V5.37803ZM6.37432 20.5052C6.37432 20.4283 6.42609 20.3601 6.50015 20.3394L7.81916 19.9712V23.2639H6.37427V20.5052H6.37432ZM8.55527 23.2639V19.7656L9.92586 19.383C9.94436 19.3778 9.96163 19.3811 9.97699 19.3928C9.99235 19.4045 10.0002 19.4202 10.0002 19.4395V23.2639H8.55527ZM14.6521 23.2639V21.7104H20.0835V23.2639H14.6521ZM24.3898 23.0786C24.3898 23.1809 24.3067 23.2639 24.2045 23.2639H20.8197V21.7104H24.3898V23.0786Z" fill="black"/>
<path d="M6.00617 17.3671C6.04503 17.3671 6.08459 17.3609 6.1235 17.3478L7.49002 16.8885C7.68268 16.8237 7.78638 16.615 7.7216 16.4223C7.65682 16.2296 7.44811 16.1258 7.25544 16.1907L5.88893 16.65C5.69626 16.7148 5.59257 16.9235 5.65735 17.1162C5.70902 17.27 5.85242 17.3671 6.00617 17.3671Z" fill="black"/>
<path d="M16.2639 14.6686H19.8733C20.2156 14.6686 20.4941 14.3902 20.4941 14.0479V13.162C20.4941 12.8197 20.2156 12.5413 19.8733 12.5413H16.2639C15.9216 12.5413 15.6432 12.8197 15.6432 13.162V14.0479C15.6432 14.3902 15.9216 14.6686 16.2639 14.6686ZM16.3793 13.2774H19.7579V13.9325H16.3793V13.2774Z" fill="black"/>
<path d="M16.2639 17.4672H19.8733C20.2156 17.4672 20.4941 17.1888 20.4941 16.8465V15.9605C20.4941 15.6182 20.2156 15.3398 19.8733 15.3398H16.2639C15.9216 15.3398 15.6432 15.6183 15.6432 15.9605V16.8465C15.6432 17.1888 15.9216 17.4672 16.2639 17.4672ZM16.3793 16.076H19.7579V16.7311H16.3793V16.076Z" fill="black"/>
<path d="M16.2639 20.2948H17.4577C17.8 20.2948 18.0785 20.0164 18.0785 19.6742V18.7882C18.0785 18.4459 17.8 18.1675 17.4577 18.1675H16.2639C15.9216 18.1675 15.6432 18.4459 15.6432 18.7882V19.6742C15.6432 20.0164 15.9216 20.2948 16.2639 20.2948ZM16.3793 18.9036H17.3424V19.5587H16.3793V18.9036Z" fill="black"/>
</svg>
