<svg width="24" height="25" viewBox="0 0 24 25" fill="none" xmlns="http://www.w3.org/2000/svg">
<path d="M14.4183 5.75636C13.9423 5.66842 13.5051 5.97221 13.4145 6.43689C13.3238 6.90157 13.6286 7.35526 14.0917 7.4462C15.4859 7.71801 16.5625 8.79727 16.8354 10.1963V10.1973C16.9131 10.6 17.2676 10.8928 17.6759 10.8928C17.7307 10.8928 17.7855 10.8878 17.8412 10.8778C18.3043 10.7849 18.6091 10.3322 18.5185 9.86654C18.1111 7.77697 16.5027 6.16308 14.4183 5.75636Z" fill="white"/>
<path d="M14.3561 2.27429C14.133 2.24231 13.9089 2.30826 13.7307 2.45017C13.5474 2.59407 13.4329 2.80192 13.408 3.03476C13.3552 3.50544 13.6948 3.93115 14.1649 3.98411C17.4065 4.34586 19.9262 6.87113 20.2907 10.1229C20.3395 10.5586 20.705 10.8874 21.1412 10.8874C21.174 10.8874 21.2059 10.8854 21.2388 10.8814C21.4668 10.8564 21.67 10.7435 21.8134 10.5636C21.9558 10.3837 22.0206 10.1599 21.9947 9.93103C21.5405 5.87382 18.4005 2.72498 14.3561 2.27429Z" fill="white"/>
<path fill-rule="evenodd" clip-rule="evenodd" d="M11.0317 13.2387C15.0208 17.2267 15.9258 12.6131 18.4656 15.1512C20.9143 17.5991 22.3216 18.0896 19.2192 21.1911C18.8306 21.5034 16.3616 25.2606 7.6846 16.586C-0.993478 7.91036 2.76158 5.4388 3.07397 5.05031C6.18387 1.9402 6.66586 3.35574 9.11449 5.80369C11.6544 8.34285 7.04266 9.25077 11.0317 13.2387Z" fill="white"/>
</svg>
