<svg width="22" height="15" viewBox="0 0 22 15" fill="none" xmlns="http://www.w3.org/2000/svg">
<path d="M19.7871 0.0266113H1.9533C0.874818 0.0266113 0 0.901253 0 1.97991V13.02C0 14.0984 0.874642 14.9733 1.9533 14.9733H19.7871C20.8656 14.9733 21.7404 14.0986 21.7404 13.02V1.97991C21.7404 0.901429 20.8658 0.0266113 19.7871 0.0266113ZM6.79399 5.97122C6.79399 6.81629 6.11031 7.49981 5.26541 7.49981H4.24641C3.40133 7.49981 2.71782 6.81612 2.71782 5.97122V4.95222C2.71782 4.10714 3.40151 3.42363 4.24641 3.42363H5.26541C6.11048 3.42363 6.79399 4.10732 6.79399 4.95222V5.97122ZM15.5285 9.4404C15.3799 9.4404 15.2314 9.39365 15.1081 9.29603C14.8151 9.06246 14.7642 8.63795 14.9935 8.3406C15.1846 8.09861 15.2865 7.8099 15.2865 7.49984C15.2865 7.18996 15.1846 6.90125 14.9935 6.65908C14.7599 6.36604 14.811 5.93724 15.1081 5.70366C15.4012 5.47009 15.83 5.52113 16.0636 5.81829C16.4415 6.29387 16.6454 6.89264 16.6454 7.49969C16.6454 8.10691 16.4372 8.70568 16.0636 9.18108C15.9276 9.35089 15.7281 9.44009 15.5285 9.44009L15.5285 9.4404ZM17.7197 10.9009C17.5837 11.0496 17.4012 11.1259 17.2144 11.1259C17.053 11.1259 16.8916 11.0664 16.7602 10.9518C16.4799 10.7012 16.4587 10.2724 16.7091 9.99224C17.3248 9.30441 17.6646 8.42119 17.6646 7.49982C17.6646 6.57845 17.3248 5.69092 16.7091 5.00741C16.4585 4.72709 16.4799 4.29829 16.7602 4.04785C17.0405 3.79726 17.4693 3.81858 17.7197 4.09889C18.5605 5.03298 19.0234 6.24328 19.0234 7.50001C19.0234 8.75686 18.5605 9.96699 17.7197 10.9011L17.7197 10.9009Z" fill="white"/>
</svg>
