<svg width="231" height="96" viewBox="0 0 231 96" fill="none" xmlns="http://www.w3.org/2000/svg">
<path d="M76.755 53.5954V27.8817H52.0661C51.1472 27.8648 50.2546 28.1877 49.561 28.7879C48.8674 29.3881 48.4222 30.223 48.3113 31.1311C48.2614 31.631 48.3173 32.1358 48.4753 32.6129C48.6334 33.09 48.8902 33.5289 49.229 33.9012C49.5679 34.2736 49.9814 34.5711 50.4429 34.7747C50.9043 34.9783 51.4035 35.0834 51.9083 35.0832H64.0201C64.5985 35.07 65.1635 35.2575 65.6182 35.6135C66.0729 35.9695 66.389 36.4719 66.5123 37.0345C66.5837 37.3867 66.5756 37.7504 66.4884 38.0991C66.4012 38.4478 66.2371 38.7729 66.0081 39.0507C65.7791 39.3285 65.4908 39.5521 65.1642 39.7054C64.8376 39.8586 64.4809 39.9376 64.1198 39.9366H58.3048C57.3868 39.9234 56.4963 40.2475 55.8035 40.8471C55.1107 41.4466 54.6644 42.2793 54.5499 43.1859C54.5001 43.6869 54.5562 44.1928 54.7147 44.6709C54.8732 45.149 55.1305 45.5888 55.4702 45.9619C55.8098 46.335 56.2242 46.6332 56.6867 46.8372C57.1491 47.0412 57.6494 47.1465 58.1553 47.1463H64.4105C64.9364 47.1331 65.4488 47.3128 65.8502 47.6513C66.2515 47.9898 66.5138 48.4634 66.587 48.9818C66.6173 49.2679 66.5868 49.5571 66.4975 49.8307C66.4081 50.1043 66.2619 50.3561 66.0684 50.5697C65.8749 50.7834 65.6384 50.9541 65.3742 51.0709C65.1101 51.1876 64.8242 51.2477 64.5352 51.2473H58.3048C57.3868 51.234 56.4963 51.5582 55.8035 52.1578C55.1107 52.7573 54.6644 53.59 54.5499 54.4966C54.5 54.9972 54.5561 55.5027 54.7147 55.9804C54.8732 56.4581 55.1307 56.8974 55.4705 57.2698C55.8103 57.6423 56.2248 57.9397 56.6872 58.1427C57.1497 58.3458 57.6498 58.4501 58.1553 58.4487H68.6638C69.2983 58.4487 69.9069 58.6996 70.3555 59.1462C70.8042 59.5927 71.0563 60.1984 71.0563 60.8299C71.0563 61.4615 70.8042 62.0672 70.3555 62.5137C69.9069 62.9603 69.2983 63.2112 68.6638 63.2112H46.7578C45.8407 63.1959 44.9501 63.5182 44.2572 64.1164C43.5642 64.7146 43.1175 65.5464 43.003 66.4522C42.9532 66.9526 43.0091 67.4577 43.1671 67.9353C43.3251 68.4128 43.5817 68.8522 43.9204 69.2252C44.2592 69.5981 44.6726 69.8965 45.134 70.101C45.5955 70.3055 46.0949 70.4116 46.6 70.4126H84.8877C85.4493 70.4102 85.9953 70.5968 86.4371 70.9419C86.8789 71.2871 87.1906 71.7707 87.3217 72.3143C87.3918 72.6598 87.3839 73.0164 87.2987 73.3585C87.2135 73.7006 87.053 74.0197 86.8289 74.2926C86.6048 74.5655 86.3226 74.7854 86.0027 74.9366C85.6828 75.0878 85.3332 75.1664 84.9791 75.1668H70.3252C69.4081 75.1515 68.5175 75.4739 67.8245 76.072C67.1316 76.6702 66.6849 77.502 66.5704 78.4078C66.5205 78.9088 66.5766 79.4147 66.7351 79.8928C66.8936 80.371 67.151 80.8107 67.4906 81.1838C67.8303 81.5569 68.2447 81.8551 68.7071 82.0591C69.1696 82.2631 69.6699 82.3684 70.1757 82.3683H99.0431V53.5954H76.755Z" fill="#1E1E1E"/>
<path d="M114.126 58.8373H99.126V95.2663H114.126V58.8373Z" fill="url(#paint0_linear_40_9365)"/>
<path d="M129.397 56.9853V19.7791H86.8563C82.1811 19.7791 77.6974 21.6275 74.3916 24.9178C71.0857 28.2081 69.2285 32.6707 69.2285 37.3239V54.9018C69.2315 55.6592 69.4536 56.3997 69.8682 57.0349L129.397 56.9853Z" fill="#DFDEE0"/>
<path d="M69.6688 33.4462C69.382 34.7136 69.2344 36.0082 69.2285 37.3074V54.8852C69.2285 55.9334 69.6469 56.9387 70.3915 57.6798C71.1362 58.421 72.1462 58.8374 73.1993 58.8374H129.397V33.4462H69.6688Z" fill="#F1F1F1"/>
<path d="M129.397 56.9026V49.0066H69.2285V54.8852C69.232 55.597 69.4301 56.2944 69.8017 56.9026H129.397Z" fill="#919499"/>
<path d="M128.118 19.7625H130.61C134.955 19.7625 139.122 21.4803 142.194 24.538C145.266 27.5957 146.992 31.7428 146.992 36.0671V56.9026H111.736V36.0671C111.736 31.7428 113.462 27.5957 116.534 24.538C119.607 21.4803 123.773 19.7625 128.118 19.7625Z" fill="#50555C"/>
<path d="M150.996 55.6707H69.3115C69.492 56.5644 69.978 57.3682 70.6868 57.9456C71.3955 58.5229 72.2834 58.838 73.1993 58.8373H150.996C151.398 58.8084 151.774 58.629 152.049 58.3353C152.323 58.0415 152.476 57.6552 152.476 57.254C152.476 56.8528 152.323 56.4665 152.049 56.1727C151.774 55.879 151.398 55.6996 150.996 55.6707Z" fill="black"/>
<path d="M145.522 20.1428C146.705 20.1428 147.665 19.1877 147.665 18.0096C147.665 16.8315 146.705 15.8765 145.522 15.8765C144.338 15.8765 143.378 16.8315 143.378 18.0096C143.378 19.1877 144.338 20.1428 145.522 20.1428Z" stroke="#919499" stroke-width="1.2389" stroke-linecap="round" stroke-linejoin="round"/>
<path d="M47.2811 56.8861C47.2811 57.3096 47.1549 57.7236 46.9185 58.0758C46.6821 58.4279 46.3461 58.7024 45.9529 58.8645C45.5598 59.0266 45.1272 59.069 44.7098 58.9863C44.2925 58.9037 43.9091 58.6998 43.6082 58.4003C43.3073 58.1008 43.1024 57.7192 43.0194 57.3038C42.9364 56.8884 42.979 56.4579 43.1418 56.0666C43.3047 55.6753 43.5804 55.3408 43.9343 55.1055C44.2881 54.8702 44.704 54.7446 45.1296 54.7446C45.4124 54.7436 45.6927 54.7982 45.9543 54.9054C46.2158 55.0127 46.4534 55.1703 46.6534 55.3694C46.8534 55.5685 47.0119 55.805 47.1196 56.0653C47.2273 56.3256 47.2822 56.6045 47.2811 56.8861Z" stroke="#EFE7FA" stroke-width="1.2389" stroke-linecap="round" stroke-linejoin="round"/>
<path d="M74.6865 9.57629V14.6115" stroke="#50555C" stroke-width="1.2389" stroke-linecap="round" stroke-linejoin="round"/>
<path d="M77.2202 12.0979H72.1528" stroke="#50555C" stroke-width="1.2389" stroke-linecap="round" stroke-linejoin="round"/>
<path d="M129.364 66.0553V71.0988" stroke="black" stroke-width="1.2389" stroke-linecap="round" stroke-linejoin="round"/>
<path d="M131.897 68.577H126.83" stroke="black" stroke-width="1.2389" stroke-linecap="round" stroke-linejoin="round"/>
<path d="M83.1935 25.484H107.824C108.057 25.484 108.287 25.5296 108.501 25.6181C108.716 25.7066 108.911 25.8363 109.075 25.9998C109.24 26.1634 109.37 26.3575 109.459 26.5712C109.548 26.7848 109.594 27.0138 109.594 27.2451V27.5097C109.598 27.7437 109.556 27.9763 109.469 28.1938C109.382 28.4113 109.252 28.6093 109.087 28.7764C108.922 28.9435 108.726 29.0761 108.509 29.1667C108.292 29.2573 108.059 29.3039 107.824 29.3039H83.1935C82.7271 29.3017 82.2804 29.1163 81.9506 28.7881C81.6208 28.4598 81.4345 28.0152 81.4323 27.551V27.2864C81.4257 27.0521 81.4663 26.8188 81.5518 26.6004C81.6373 26.382 81.766 26.1829 81.9302 26.0148C82.0944 25.8468 82.2908 25.7132 82.5078 25.622C82.7248 25.5308 82.9579 25.4839 83.1935 25.484Z" fill="#FBF9FF"/>
<path d="M100.406 38.0597C99.5919 38.0581 98.796 38.2967 98.1187 38.7454C97.4414 39.1941 96.9131 39.8328 96.6006 40.5805C96.288 41.3282 96.2054 42.1513 96.3632 42.9458C96.5209 43.7402 96.9119 44.4702 97.4866 45.0434C98.0614 45.6166 98.794 46.0073 99.5919 46.1658C100.39 46.3244 101.217 46.2439 101.969 45.9343C102.721 45.6248 103.363 45.1002 103.816 44.427C104.268 43.7538 104.509 42.9622 104.509 42.1524C104.509 41.0684 104.077 40.0286 103.308 39.2614C102.538 38.4941 101.495 38.0619 100.406 38.0597Z" fill="black"/>
<path d="M100.405 42.1524C100.287 42.1545 100.17 42.1336 100.06 42.0908C99.9507 42.0479 99.8506 41.9839 99.7657 41.9026C99.6809 41.8212 99.613 41.7239 99.5659 41.6164C99.5188 41.5089 99.4934 41.3932 99.4912 41.2759V6.69067C99.4902 6.57271 99.5125 6.4557 99.5571 6.3464C99.6017 6.23711 99.6677 6.13768 99.7511 6.05389C99.8345 5.97009 99.9338 5.90358 100.043 5.85819C100.153 5.8128 100.27 5.78942 100.388 5.78943C100.507 5.78942 100.624 5.8128 100.734 5.85819C100.843 5.90358 100.942 5.97009 101.026 6.05389C101.109 6.13768 101.175 6.23711 101.22 6.3464C101.264 6.4557 101.287 6.57271 101.286 6.69067V41.2759C101.281 41.5071 101.187 41.7275 101.023 41.891C100.859 42.0544 100.637 42.1481 100.405 42.1524Z" fill="#263238"/>
<path d="M90.3124 8.12097H99.5168V14.6445H90.3124C90.1575 14.6445 90.0041 14.6141 89.861 14.5551C89.7179 14.4961 89.5879 14.4096 89.4783 14.3006C89.3688 14.1916 89.2819 14.0621 89.2226 13.9197C89.1633 13.7773 89.1328 13.6246 89.1328 13.4704V9.26196C89.1415 8.95635 89.2696 8.66615 89.4898 8.45307C89.7101 8.24 90.0052 8.12085 90.3124 8.12097Z" fill="#DFDEE0"/>
<path d="M33.7739 51.7516V51.6772C33.7739 51.4198 33.723 51.165 33.624 50.9273C33.5251 50.6896 33.3801 50.4735 33.1972 50.2916C33.0144 50.1096 32.7974 49.9653 32.5585 49.8668C32.3196 49.7683 32.0636 49.7177 31.8051 49.7177H7.87218C7.61363 49.7177 7.35762 49.7683 7.11875 49.8668C6.87989 49.9653 6.66285 50.1096 6.48003 50.2916C6.29721 50.4735 6.15219 50.6896 6.05325 50.9273C5.95431 51.165 5.90338 51.4198 5.90338 51.6772V51.7516C5.91209 52.2656 6.12336 52.7555 6.49165 53.1159C6.85993 53.4762 7.35573 53.6781 7.87218 53.6781H11.3113C11.8335 53.6781 12.3343 53.8845 12.7035 54.252C13.0727 54.6195 13.2801 55.1179 13.2801 55.6376C13.2801 56.1573 13.0727 56.6557 12.7035 57.0232C12.3343 57.3907 11.8335 57.5971 11.3113 57.5971H2.06548C1.54332 57.5971 1.04255 57.8036 0.673329 58.171C0.304109 58.5385 0.0966797 59.0369 0.0966797 59.5566V59.6311C0.0966797 60.1508 0.304109 60.6492 0.673329 61.0167C1.04255 61.3841 1.54332 61.5906 2.06548 61.5906H24.6111C25.1332 61.5906 25.634 61.3841 26.0032 61.0167C26.3725 60.6492 26.5799 60.1508 26.5799 59.6311V59.5566C26.5799 59.0369 26.3725 58.5385 26.0032 58.171C25.634 57.8036 25.1332 57.5971 24.6111 57.5971H23.3484C22.8262 57.5971 22.3255 57.3907 21.9563 57.0232C21.587 56.6557 21.3796 56.1573 21.3796 55.6376C21.3796 55.1179 21.587 54.6195 21.9563 54.252C22.3255 53.8845 22.8262 53.6781 23.3484 53.6781H31.8051C32.3215 53.6781 32.8173 53.4762 33.1856 53.1159C33.5539 52.7555 33.7652 52.2656 33.7739 51.7516Z" fill="#1E1E1E"/>
<path d="M16.9351 2.30859V2.2259C16.9351 1.96787 16.9863 1.71239 17.0857 1.47411C17.1852 1.23583 17.3309 1.01945 17.5146 0.837377C17.6983 0.65531 17.9164 0.511138 18.1562 0.41315C18.396 0.315162 18.6529 0.265286 18.9122 0.266375H42.8368C43.3589 0.266375 43.8597 0.472821 44.2289 0.840304C44.5981 1.20779 44.8056 1.7062 44.8056 2.2259V2.30859C44.8034 2.82685 44.595 3.32314 44.226 3.68883C43.857 4.05453 43.3575 4.25987 42.8368 4.25986H39.3976C38.8761 4.26204 38.3766 4.46917 38.0079 4.83619C37.6391 5.2032 37.431 5.70036 37.4288 6.21939C37.4288 6.47672 37.4797 6.73152 37.5787 6.96926C37.6776 7.207 37.8226 7.42302 38.0054 7.60498C38.1883 7.78694 38.4053 7.93126 38.6442 8.02974C38.883 8.12821 39.1391 8.17891 39.3976 8.17891H48.6435C48.902 8.17891 49.158 8.22958 49.3969 8.32806C49.6358 8.42653 49.8528 8.57088 50.0356 8.75284C50.2184 8.9348 50.3635 9.15082 50.4624 9.38856C50.5613 9.6263 50.6123 9.88111 50.6123 10.1384V10.2211C50.6101 10.7402 50.4019 11.2373 50.0332 11.6043C49.6644 11.9713 49.1649 12.1785 48.6435 12.1806H26.0978C25.5764 12.1785 25.0769 11.9713 24.7081 11.6043C24.3394 11.2373 24.1312 10.7402 24.1291 10.2211V10.1384C24.1312 9.61941 24.3394 9.12225 24.7081 8.75524C25.0769 8.38823 25.5764 8.18109 26.0978 8.17891H27.3605C27.8827 8.17891 28.3835 7.97247 28.7527 7.60498C29.1219 7.2375 29.3293 6.73909 29.3293 6.21939C29.3271 5.70036 29.119 5.2032 28.7503 4.83619C28.3815 4.46917 27.882 4.26204 27.3605 4.25986H18.9122C18.6536 4.26095 18.3974 4.21134 18.1581 4.11387C17.9188 4.0164 17.7012 3.87295 17.5176 3.69176C17.334 3.51057 17.188 3.29518 17.0881 3.05785C16.9882 2.82053 16.9361 2.56592 16.9351 2.30859Z" fill="#1E1E1E"/>
<path d="M215.509 54.5048C215.509 54.0663 215.684 53.6457 215.996 53.3355C216.307 53.0254 216.73 52.8512 217.171 52.8512H218.658C219.259 52.8512 219.836 52.6134 220.261 52.1901C220.687 51.7668 220.926 51.1927 220.926 50.594C220.926 50.2976 220.867 50.0041 220.753 49.7303C220.639 49.4564 220.472 49.2076 220.261 48.998C220.051 48.7884 219.801 48.6221 219.526 48.5087C219.25 48.3952 218.956 48.3369 218.658 48.3369H207.659C207.236 48.3369 206.83 48.1696 206.531 47.8719C206.232 47.5742 206.064 47.1704 206.064 46.7494C206.063 46.5402 206.103 46.3329 206.183 46.1394C206.263 45.9458 206.38 45.7698 206.528 45.6215C206.676 45.4733 206.853 45.3556 207.047 45.2753C207.241 45.195 207.449 45.1537 207.659 45.1537H212.643C212.941 45.1537 213.236 45.0953 213.511 44.9818C213.786 44.8684 214.036 44.7022 214.247 44.4926C214.458 44.283 214.625 44.0341 214.739 43.7603C214.852 43.4864 214.911 43.1929 214.911 42.8965C214.911 42.6001 214.852 42.3066 214.739 42.0327C214.625 41.7588 214.458 41.51 214.247 41.3004C214.036 41.0908 213.786 40.9245 213.511 40.8111C213.236 40.6977 212.941 40.6393 212.643 40.6393H211.871C211.282 40.6371 210.718 40.4027 210.302 39.9874C209.886 39.5721 209.653 39.0097 209.653 38.4234C209.653 37.838 209.886 37.2765 210.302 36.8625C210.718 36.4485 211.282 36.2159 211.871 36.2159H221.391C221.992 36.2137 222.567 35.9752 222.992 35.5524C223.417 35.1295 223.656 34.5567 223.659 33.9587C223.659 33.3601 223.42 32.7859 222.994 32.3626C222.569 31.9393 221.992 31.7015 221.391 31.7015H197.915C197.313 31.7015 196.736 31.9393 196.311 32.3626C195.886 32.7859 195.647 33.3601 195.647 33.9587C195.647 34.5573 195.886 35.1315 196.311 35.5548C196.736 35.9781 197.313 36.2159 197.915 36.2159H198.28C198.572 36.2148 198.861 36.2711 199.13 36.3817C199.4 36.4922 199.645 36.6548 199.851 36.86C200.057 37.0653 200.221 37.309 200.332 37.5774C200.443 37.8457 200.499 38.1332 200.498 38.4234C200.499 38.714 200.443 39.002 200.332 39.2708C200.221 39.5396 200.058 39.7839 199.852 39.9898C199.645 40.1957 199.401 40.359 199.131 40.4705C198.861 40.5819 198.572 40.6393 198.28 40.6393H187.871C187.27 40.6393 186.693 40.8771 186.268 41.3004C185.842 41.7237 185.604 42.2978 185.604 42.8965C185.604 43.4951 185.842 44.0692 186.268 44.4926C186.693 44.9159 187.27 45.1537 187.871 45.1537H195.663C196.089 45.1537 196.496 45.3218 196.797 45.621C197.098 45.9203 197.267 46.3262 197.267 46.7494C197.265 47.1712 197.095 47.5749 196.794 47.8724C196.494 48.1699 196.087 48.3369 195.663 48.3369H192.532C192.234 48.3369 191.939 48.3952 191.664 48.5087C191.389 48.6221 191.139 48.7884 190.928 48.998C190.717 49.2076 190.55 49.4564 190.436 49.7303C190.322 50.0041 190.264 50.2976 190.264 50.594C190.264 50.8904 190.322 51.184 190.436 51.4578C190.55 51.7317 190.717 51.9805 190.928 52.1901C191.139 52.3997 191.389 52.566 191.664 52.6794C191.939 52.7928 192.234 52.8512 192.532 52.8512H201.528C201.969 52.8512 202.392 53.0254 202.703 53.3355C203.015 53.6457 203.19 54.0663 203.19 54.5048C203.19 54.9434 203.015 55.364 202.703 55.6741C202.392 55.9842 201.969 56.1584 201.528 56.1584H195.124C194.522 56.1584 193.945 56.3962 193.52 56.8195C193.095 57.2429 192.856 57.817 192.856 58.4156C192.856 58.712 192.914 59.0055 193.028 59.2794C193.142 59.5533 193.309 59.8021 193.52 60.0117C193.73 60.2213 193.981 60.3876 194.256 60.501C194.531 60.6144 194.826 60.6728 195.124 60.6728H227.829C228.127 60.6728 228.421 60.6144 228.697 60.501C228.972 60.3876 229.222 60.2213 229.432 60.0117C229.643 59.8021 229.81 59.5533 229.924 59.2794C230.038 59.0055 230.097 58.712 230.097 58.4156C230.097 57.817 229.858 57.2429 229.432 56.8195C229.007 56.3962 228.43 56.1584 227.829 56.1584H217.113C216.682 56.1434 216.274 55.9626 215.975 55.6541C215.676 55.3456 215.509 54.9335 215.509 54.5048Z" fill="#1E1E1E"/>
<path d="M161.422 40.846C161.423 40.7567 161.406 40.668 161.372 40.5852C161.338 40.5025 161.288 40.4273 161.225 40.3641C161.161 40.3009 161.086 40.2511 161.003 40.2174C160.919 40.1837 160.83 40.1669 160.741 40.168H153.979V46.3112H157.642C157.823 46.3112 157.996 46.2398 158.124 46.1126C158.251 45.9855 158.323 45.813 158.323 45.6332C158.323 45.4534 158.251 45.281 158.124 45.1538C157.996 45.0267 157.823 44.9552 157.642 44.9552H156.662C156.523 44.9552 156.39 44.9003 156.292 44.8027C156.194 44.705 156.138 44.5725 156.138 44.4343C156.141 44.2969 156.196 44.1656 156.294 44.0684C156.392 43.9711 156.524 43.9156 156.662 43.9134H159.254C159.433 43.9135 159.605 43.8432 159.732 43.7178C159.86 43.5924 159.933 43.4221 159.935 43.2437C159.935 43.0639 159.863 42.8915 159.735 42.7643C159.607 42.6372 159.434 42.5658 159.254 42.5658H158.473C158.334 42.5658 158.201 42.5109 158.103 42.4132C158.004 42.3155 157.949 42.183 157.949 42.0449C157.949 41.9067 158.004 41.7742 158.103 41.6765C158.201 41.5789 158.334 41.524 158.473 41.524H160.757C160.935 41.5197 161.104 41.4463 161.228 41.3196C161.352 41.193 161.422 41.023 161.422 40.846Z" fill="#FDFFFF"/>
<path d="M125.643 40.846C125.643 40.6661 125.714 40.4937 125.842 40.3665C125.97 40.2394 126.143 40.168 126.324 40.168H133.086V46.3111H129.397C129.217 46.3111 129.043 46.2397 128.916 46.1126C128.788 45.9854 128.716 45.813 128.716 45.6331C128.716 45.4533 128.788 45.2809 128.916 45.1538C129.043 45.0266 129.217 44.9552 129.397 44.9552H130.378C130.516 44.9552 130.65 44.9003 130.748 44.8026C130.846 44.7049 130.901 44.5724 130.901 44.4343C130.901 44.2961 130.846 44.1636 130.748 44.066C130.65 43.9683 130.516 43.9134 130.378 43.9134H127.819C127.64 43.9134 127.468 43.8431 127.34 43.7177C127.213 43.5924 127.14 43.4221 127.138 43.2437C127.138 43.0639 127.21 42.8914 127.337 42.7643C127.465 42.6371 127.638 42.5657 127.819 42.5657H128.65C128.789 42.5657 128.922 42.5108 129.02 42.4131C129.118 42.3155 129.173 42.183 129.173 42.0448C129.173 41.9067 129.118 41.7742 129.02 41.6765C128.922 41.5788 128.789 41.5239 128.65 41.5239H126.324C126.143 41.5239 125.97 41.4525 125.842 41.3253C125.714 41.1982 125.643 41.0258 125.643 40.846Z" fill="#FDFFFF"/>
<path d="M154.643 38.5475H132.421V51.5945H154.643V38.5475Z" fill="#894D25"/>
<path d="M154.643 51.5944L143.536 43.1279L132.421 51.5944H154.643Z" fill="#A9612F"/>
<path d="M132.421 38.5392L142.465 46.2367C142.771 46.4694 143.147 46.5954 143.532 46.5954C143.918 46.5954 144.293 46.4694 144.6 46.2367L154.643 38.5805L132.421 38.5392Z" fill="#9B6842"/>
<path d="M187.871 22.1106C187.871 21.9308 187.8 21.7583 187.672 21.6312C187.544 21.504 187.371 21.4326 187.19 21.4326H180.428V27.5841H184.083C184.264 27.5841 184.437 27.5126 184.565 27.3855C184.693 27.2583 184.765 27.0859 184.765 26.9061C184.765 26.7263 184.693 26.5538 184.565 26.4267C184.437 26.2995 184.264 26.2281 184.083 26.2281H183.103C182.964 26.2281 182.831 26.1732 182.733 26.0755C182.635 25.9778 182.58 25.8454 182.58 25.7072C182.58 25.5691 182.635 25.4366 182.733 25.3389C182.831 25.2412 182.964 25.1863 183.103 25.1863H185.695C185.876 25.1863 186.049 25.1149 186.177 24.9877C186.304 24.8606 186.376 24.6881 186.376 24.5083C186.376 24.3285 186.304 24.1561 186.177 24.0289C186.049 23.9018 185.876 23.8303 185.695 23.8303H184.906C184.767 23.8303 184.634 23.7755 184.536 23.6778C184.438 23.5801 184.382 23.4476 184.382 23.3095C184.382 23.1713 184.438 23.0388 184.536 22.9411C184.634 22.8435 184.767 22.7886 184.906 22.7886H187.19C187.28 22.7897 187.369 22.7729 187.452 22.7392C187.535 22.7056 187.611 22.6557 187.674 22.5925C187.738 22.5293 187.788 22.4541 187.822 22.3714C187.856 22.2886 187.873 22.1999 187.871 22.1106Z" fill="#FDFFFF"/>
<path d="M152.093 22.1106C152.093 21.9308 152.165 21.7583 152.292 21.6312C152.42 21.504 152.593 21.4326 152.774 21.4326H159.536V27.5841H155.881C155.7 27.5841 155.527 27.5126 155.399 27.3855C155.271 27.2583 155.2 27.0859 155.2 26.9061C155.2 26.7263 155.271 26.5538 155.399 26.4267C155.527 26.2995 155.7 26.2281 155.881 26.2281H156.861C157 26.2281 157.133 26.1732 157.231 26.0755C157.329 25.9778 157.384 25.8454 157.384 25.7072C157.384 25.5691 157.329 25.4366 157.231 25.3389C157.133 25.2412 157 25.1863 156.861 25.1863H154.269C154.089 25.1863 153.915 25.1149 153.788 24.9877C153.66 24.8606 153.588 24.6881 153.588 24.5083C153.588 24.3285 153.66 24.1561 153.788 24.0289C153.915 23.9018 154.089 23.8303 154.269 23.8303H155.058C155.197 23.8303 155.33 23.7755 155.428 23.6778C155.527 23.5801 155.582 23.4476 155.582 23.3095C155.582 23.1713 155.527 23.0388 155.428 22.9411C155.33 22.8435 155.197 22.7886 155.058 22.7886H152.774C152.685 22.7886 152.596 22.771 152.513 22.737C152.431 22.7029 152.356 22.653 152.292 22.59C152.229 22.5271 152.179 22.4523 152.145 22.37C152.11 22.2878 152.093 22.1996 152.093 22.1106Z" fill="#FDFFFF"/>
<path d="M181.093 19.812H158.871V32.859H181.093V19.812Z" fill="#894D25"/>
<path d="M181.093 32.8591L169.986 24.4009L158.871 32.8591H181.093Z" fill="#A9612F"/>
<path d="M158.871 19.7791L168.914 27.427C169.221 27.6597 169.596 27.7857 169.982 27.7857C170.368 27.7857 170.743 27.6597 171.049 27.427L181.093 19.7791H158.871Z" fill="#9B6842"/>
<path d="M211.165 3.82994C211.165 3.65013 211.093 3.47768 210.965 3.35053C210.838 3.22338 210.664 3.15198 210.484 3.15198H203.722V9.29514H207.377C207.557 9.29514 207.731 9.22371 207.858 9.09656C207.986 8.96942 208.058 8.79696 208.058 8.61715C208.058 8.43734 207.986 8.26489 207.858 8.13774C207.731 8.0106 207.557 7.93916 207.377 7.93916H206.397C206.258 7.93916 206.125 7.8843 206.027 7.78661C205.928 7.68893 205.873 7.55642 205.873 7.41827C205.873 7.28013 205.928 7.14765 206.027 7.04996C206.125 6.95227 206.258 6.89741 206.397 6.89741H208.988C209.169 6.89741 209.342 6.82598 209.47 6.69883C209.598 6.57168 209.67 6.39923 209.67 6.21942C209.67 6.03961 209.598 5.86716 209.47 5.74001C209.342 5.61286 209.169 5.54143 208.988 5.54143H208.199C208.06 5.54143 207.927 5.48657 207.829 5.38888C207.731 5.29119 207.676 5.15869 207.676 5.02054C207.678 4.88383 207.734 4.75346 207.832 4.65755C207.93 4.56165 208.062 4.50791 208.199 4.50793H210.484C210.664 4.50793 210.838 4.4365 210.965 4.30935C211.093 4.1822 211.165 4.00975 211.165 3.82994Z" fill="#FDFFFF"/>
<path d="M175.386 3.82994C175.386 3.65013 175.458 3.47768 175.585 3.35053C175.713 3.22338 175.886 3.15198 176.067 3.15198H182.829V9.29514H179.174C178.993 9.29514 178.82 9.22371 178.692 9.09656C178.564 8.96942 178.493 8.79696 178.493 8.61715C178.493 8.43734 178.564 8.26489 178.692 8.13774C178.82 8.0106 178.993 7.93916 179.174 7.93916H180.154C180.293 7.93916 180.426 7.8843 180.524 7.78661C180.622 7.68893 180.677 7.55642 180.677 7.41827C180.677 7.28013 180.622 7.14765 180.524 7.04996C180.426 6.95227 180.293 6.89741 180.154 6.89741H177.579C177.398 6.89741 177.225 6.82598 177.097 6.69883C176.969 6.57168 176.898 6.39923 176.898 6.21942C176.898 6.03961 176.969 5.86716 177.097 5.74001C177.225 5.61286 177.398 5.54143 177.579 5.54143H178.368C178.507 5.54143 178.64 5.48657 178.738 5.38888C178.836 5.29119 178.891 5.15869 178.891 5.02054C178.889 4.88383 178.833 4.75346 178.735 4.65755C178.637 4.56165 178.505 4.50791 178.368 4.50793H176.084C175.993 4.51013 175.902 4.49423 175.818 4.46115C175.733 4.42806 175.656 4.37848 175.591 4.3153C175.526 4.25213 175.474 4.17664 175.439 4.09329C175.404 4.00993 175.386 3.92038 175.386 3.82994Z" fill="#FDFFFF"/>
<path d="M204.386 1.52307H182.165V14.5701H204.386V1.52307Z" fill="#894D25"/>
<path d="M204.386 14.5784L193.28 6.11194L182.165 14.5784H204.386Z" fill="#A9612F"/>
<path d="M182.165 1.52319L192.208 9.1794C192.515 9.41207 192.89 9.5381 193.275 9.5381C193.661 9.5381 194.036 9.41207 194.343 9.1794L204.386 1.52319H182.165Z" fill="#9B6842"/>
<defs>
<linearGradient id="paint0_linear_40_9365" x1="106.626" y1="58.8373" x2="106.626" y2="95.2663" gradientUnits="userSpaceOnUse">
<stop stop-color="#263238"/>
<stop offset="1" stop-color="#263238" stop-opacity="0"/>
</linearGradient>
</defs>
</svg>
