<svg width="25" height="25" viewBox="0 0 25 25" fill="none" xmlns="http://www.w3.org/2000/svg">
<path d="M12.5 25C19.4036 25 25 19.4036 25 12.5C25 5.59644 19.4036 0 12.5 0C5.59644 0 0 5.59644 0 12.5C0 19.4036 5.59644 25 12.5 25Z" fill="#F7D291"/>
<path d="M12.5 23.3872C18.5128 23.3872 23.3872 18.5128 23.3872 12.5C23.3872 6.48716 18.5128 1.61279 12.5 1.61279C6.48716 1.61279 1.61279 6.48716 1.61279 12.5C1.61279 18.5128 6.48716 23.3872 12.5 23.3872Z" fill="#F5B97D"/>
<path d="M16.1291 21.3705C9.22549 21.3705 3.62905 15.7741 3.62905 8.87051C3.62905 6.34717 4.37925 4.00024 5.66514 2.03564C2.25474 4.26782 0 8.11934 0 12.4996C0 19.4031 5.59644 24.9996 12.5 24.9996C16.8802 24.9996 20.7317 22.7448 22.9639 19.3344C20.9993 20.6204 18.6524 21.3705 16.1291 21.3705Z" fill="#F5B97D"/>
<path d="M1.61279 12.5C1.61279 18.5128 6.48711 23.3872 12.4999 23.3872C15.1117 23.3872 17.508 22.4666 19.3839 20.9334C18.3454 21.2137 17.2562 21.371 16.1289 21.371C9.22534 21.371 3.62891 15.7746 3.62891 8.871C3.62891 7.74365 3.78618 6.65454 4.0665 5.61597C2.53335 7.49199 1.61279 9.88828 1.61279 12.5Z" fill="#E3AA75"/>
<path d="M12.5 22.5806C18.0673 22.5806 22.5806 18.0673 22.5806 12.5C22.5806 6.93266 18.0673 2.41943 12.5 2.41943C6.93266 2.41943 2.41943 6.93266 2.41943 12.5C2.41943 18.0673 6.93266 22.5806 12.5 22.5806Z" fill="#FFEDC6"/>
<path d="M12.5001 20.5642C16.954 20.5642 20.5646 16.9536 20.5646 12.4998C20.5646 8.04588 16.954 4.4353 12.5001 4.4353C8.04625 4.4353 4.43567 8.04588 4.43567 12.4998C4.43567 16.9536 8.04625 20.5642 12.5001 20.5642Z" fill="white"/>
<path d="M12.5001 14.5159C13.6136 14.5159 14.5162 13.6132 14.5162 12.4998C14.5162 11.3863 13.6136 10.4836 12.5001 10.4836C11.3867 10.4836 10.484 11.3863 10.484 12.4998C10.484 13.6132 11.3867 14.5159 12.5001 14.5159Z" fill="#FFEDC6"/>
<path d="M12.5 6.048C12.2771 6.048 12.0968 5.86743 12.0968 5.64478V4.03188C12.0968 3.80923 12.2772 3.62866 12.5 3.62866C12.7229 3.62866 12.9032 3.80923 12.9032 4.03188V5.64478C12.9032 5.86743 12.7229 6.048 12.5 6.048Z" fill="#867E88"/>
<path d="M12.5 21.371C12.2771 21.371 12.0968 21.1904 12.0968 20.9678V19.3549C12.0968 19.1322 12.2772 18.9517 12.5 18.9517C12.7229 18.9517 12.9032 19.1322 12.9032 19.3549V20.9678C12.9032 21.1905 12.7229 21.371 12.5 21.371Z" fill="#867E88"/>
<path d="M20.9679 12.9034H19.355C19.1321 12.9034 18.9518 12.7228 18.9518 12.5001C18.9518 12.2775 19.1322 12.0969 19.355 12.0969H20.9679C21.1908 12.0969 21.3711 12.2775 21.3711 12.5001C21.3711 12.7228 21.1908 12.9034 20.9679 12.9034Z" fill="#867E88"/>
<path d="M5.64526 12.9034H4.03237C3.80947 12.9034 3.62915 12.7228 3.62915 12.5001C3.62915 12.2775 3.80952 12.0969 4.03237 12.0969H5.64526C5.86816 12.0969 6.04849 12.2775 6.04849 12.5001C6.04849 12.7228 5.86812 12.9034 5.64526 12.9034Z" fill="#867E88"/>
<path d="M5.86485 9.07252C5.79634 9.07252 5.72701 9.05519 5.66363 9.01857L4.96509 8.61534C4.77212 8.50392 4.70601 8.25739 4.81744 8.06447C4.92886 7.8713 5.1754 7.80519 5.36832 7.91681L6.06685 8.32003C6.25982 8.43146 6.32593 8.67799 6.21451 8.87091C6.1397 9.00031 6.00425 9.07252 5.86485 9.07252Z" fill="#E3AA75"/>
<path d="M19.8327 17.1372C19.7642 17.1372 19.6949 17.1198 19.6315 17.0832L18.933 16.68C18.74 16.5686 18.6739 16.322 18.7853 16.1291C18.8968 15.9362 19.1433 15.8698 19.3362 15.9815L20.0347 16.3847C20.2277 16.4961 20.2938 16.7426 20.1824 16.9356C20.1076 17.0649 19.9721 17.1372 19.8327 17.1372Z" fill="#E3AA75"/>
<path d="M16.3303 6.26855C16.2617 6.26855 16.1924 6.25121 16.129 6.21459C15.9361 6.10317 15.87 5.85644 15.9814 5.66371L16.3846 4.96537C16.496 4.7724 16.7429 4.70649 16.9355 4.81772C17.1284 4.92914 17.1946 5.17587 17.0831 5.3686L16.6799 6.06693C16.6051 6.19628 16.4696 6.26855 16.3303 6.26855Z" fill="#E3AA75"/>
<path d="M8.2658 20.2365C8.1973 20.2365 8.12796 20.2192 8.06458 20.1826C7.87161 20.0712 7.8055 19.8244 7.91692 19.6317L8.32015 18.9334C8.43118 18.7402 8.6785 18.6741 8.87103 18.7857C9.06399 18.8971 9.13011 19.1439 9.01868 19.3366L8.61546 20.0349C8.54065 20.1643 8.40521 20.2365 8.2658 20.2365Z" fill="#E3AA75"/>
<path d="M19.1351 9.07251C18.9957 9.07251 18.8602 9.00025 18.7854 8.8709C18.674 8.67793 18.7402 8.43145 18.9331 8.32002L19.6316 7.9168C19.8238 7.80518 20.0711 7.87134 20.1825 8.06446C20.2939 8.25742 20.2278 8.50391 20.0349 8.61533L19.3363 9.01856C19.2729 9.05523 19.2036 9.07251 19.1351 9.07251Z" fill="#E3AA75"/>
<path d="M5.16708 17.1372C5.02768 17.1372 4.89223 17.0649 4.81743 16.9356C4.706 16.7426 4.77216 16.4961 4.96508 16.3847L5.66362 15.9815C5.8562 15.8698 6.10268 15.9362 6.2145 16.1291C6.32592 16.3221 6.25976 16.5686 6.06684 16.68L5.36831 17.0832C5.30488 17.1198 5.23559 17.1372 5.16708 17.1372Z" fill="#E3AA75"/>
<path d="M8.66979 6.26854C8.53039 6.26854 8.39494 6.19627 8.32014 6.06692L7.91691 5.36858C7.80549 5.17581 7.87165 4.92913 8.06457 4.81771C8.25671 4.70648 8.50363 4.77244 8.61545 4.96536L9.01867 5.6637C9.1301 5.85647 9.06394 6.10315 8.87102 6.21458C8.80764 6.2512 8.73835 6.26854 8.66979 6.26854Z" fill="#E3AA75"/>
<path d="M16.7342 20.2365C16.5948 20.2365 16.4594 20.1643 16.3846 20.0349L15.9814 19.3366C15.8699 19.1438 15.9361 18.8971 16.129 18.7857C16.3212 18.6741 16.5681 18.7402 16.6799 18.9334L17.0831 19.6317C17.1946 19.8245 17.1284 20.0711 16.9355 20.1826C16.872 20.2192 16.8028 20.2365 16.7342 20.2365Z" fill="#E3AA75"/>
<path d="M12.5001 12.9032C12.3938 12.9032 12.2911 12.8613 12.215 12.7851L7.37632 7.94636C7.2188 7.78884 7.2188 7.53367 7.37632 7.3762C7.53384 7.21868 7.78901 7.21868 7.94648 7.3762L12.6407 12.0704L17.6806 11.295C17.9051 11.2604 18.1067 11.4124 18.1405 11.6323C18.1744 11.8524 18.0236 12.0582 17.8035 12.092L12.5615 12.8985C12.5411 12.9016 12.5206 12.9032 12.5001 12.9032Z" fill="#5D5360"/>
<path d="M12.5 13.3062C12.9454 13.3062 13.3065 12.9452 13.3065 12.4998C13.3065 12.0544 12.9454 11.6934 12.5 11.6934C12.0547 11.6934 11.6936 12.0544 11.6936 12.4998C11.6936 12.9452 12.0547 13.3062 12.5 13.3062Z" fill="#F5B97D"/>
</svg>
