<svg width="18" height="15" viewBox="0 0 18 15" fill="none" xmlns="http://www.w3.org/2000/svg">
<path d="M5.65165 13.4037C8.21637 13.4037 10.2955 10.4582 10.2955 6.82487C10.2955 3.19151 8.21637 0.246094 5.65165 0.246094C3.08693 0.246094 1.00781 3.19151 1.00781 6.82487C1.00781 10.4582 3.08693 13.4037 5.65165 13.4037Z" fill="#966A54"/>
<path d="M2.42969 11.5623C3.26475 12.7024 4.40027 13.4037 5.65156 13.4037C8.21627 13.4037 10.2954 10.4583 10.2954 6.82494C10.2954 4.24383 9.24595 2.01026 7.71875 0.932861C8.17338 1.55354 8.53874 2.30442 8.78529 3.14299C8.85614 3.38399 8.77357 3.64366 8.57619 3.79901C8.26424 4.04454 7.96437 4.30989 7.68114 4.59312C6.30416 5.97009 5.38572 7.65705 5.09501 9.34321C4.9626 10.1112 4.96506 10.8416 5.09599 11.512C5.16973 11.8895 4.88948 12.2481 4.50478 12.249C4.50216 12.249 4.49953 12.249 4.49691 12.249C3.75413 12.249 3.0523 12.0016 2.42969 11.5623Z" fill="#82563F"/>
<path d="M6.03753 11.4046C5.88107 10.6695 5.74554 9.90393 5.54513 9.18648C5.35529 8.48809 5.12283 7.82148 4.84104 7.16713C4.16464 5.60317 4.04674 3.7297 4.83018 2.18805C4.88071 2.09351 5.0002 2.05685 5.0971 2.10614C5.30046 2.26323 5.31844 2.97215 5.41804 3.25023C5.66205 4.36589 5.99559 5.45616 6.46184 6.48372C6.81506 7.27293 7.02459 8.13172 7.04678 8.99099C7.0661 9.8443 6.92309 10.7059 6.53856 11.4716C6.47221 11.6001 6.31161 11.6519 6.17985 11.5871C6.1029 11.5493 6.0542 11.4815 6.03753 11.4046Z" fill="#664545"/>
<path d="M6.18031 11.5871C6.31207 11.6518 6.47267 11.6001 6.53902 11.4716C6.92352 10.7059 7.06656 9.84427 7.04723 8.99096C7.02505 8.13169 6.81552 7.2729 6.4623 6.48368C6.42433 6.39997 6.38754 6.31573 6.35131 6.2312C5.89675 6.93155 5.54674 7.67096 5.31641 8.42165C5.39887 8.67288 5.4752 8.92743 5.54559 9.18645C5.74596 9.90393 5.88149 10.6695 6.03799 11.4045C6.05463 11.4814 6.10333 11.5493 6.18031 11.5871Z" fill="#372222"/>
<path d="M14.9027 11.8167C17.4715 9.24796 18.0839 5.69562 16.2707 3.88236C14.4574 2.0691 10.9051 2.68157 8.3363 5.25036C5.76751 7.81915 5.15504 11.3715 6.9683 13.1848C8.78155 14.998 12.3339 14.3855 14.9027 11.8167Z" fill="#966A54"/>
<path d="M17.2496 5.82886C17.0233 7.29483 16.221 8.86847 14.9053 10.1842C12.3361 12.7534 8.7832 13.3659 6.96968 11.5524C6.44446 11.0272 6.12316 10.3559 5.99351 9.60515C5.77784 11.0018 6.08487 12.3006 6.96968 13.1854C8.7832 14.9989 12.3361 14.3864 14.9053 11.8172C16.7304 9.99205 17.5677 7.67064 17.2496 5.82886Z" fill="#82563F"/>
<path d="M8.65618 12.0446C9.06529 11.4142 9.5108 10.7771 9.87643 10.128C10.236 9.49997 10.543 8.86423 10.8064 8.20228C11.434 6.6181 12.6754 5.20998 14.3195 4.67387C14.4221 4.64276 14.5325 4.70134 14.5661 4.80471C14.5989 5.05959 14.1103 5.57358 13.9841 5.84063C13.3678 6.80206 12.8327 7.80888 12.4358 8.86515C12.1275 9.67297 11.6684 10.4284 11.0765 11.0517C10.4868 11.6688 9.77634 12.1769 8.96307 12.4464C8.82525 12.4904 8.67511 12.4134 8.62773 12.2744C8.60003 12.1932 8.61359 12.1108 8.65618 12.0446Z" fill="#372222"/>
<path d="M16.4474 3.70748C15.5633 2.82346 14.2604 2.44565 12.7786 2.64396C12.6438 2.66197 12.5493 2.78578 12.5673 2.92049C12.5853 3.0552 12.7091 3.14997 12.8438 3.13179C14.1702 2.95442 15.3263 3.28245 16.0994 4.05549C17.8139 5.77007 17.2003 9.17384 14.7314 11.6431C12.2622 14.1119 8.85842 14.7257 7.14374 13.0114C6.32476 12.1925 6.00835 10.9606 6.25283 9.54272C6.50272 8.09348 7.30506 6.6307 8.51208 5.42383C9.47348 4.46243 10.5995 3.75516 11.7684 3.3784C11.8978 3.33673 11.9689 3.19805 11.9271 3.06869C11.8855 2.93936 11.7469 2.86822 11.6174 2.90996C11.0591 3.08989 10.5107 3.34037 9.98373 3.65356C9.59884 2.62768 9.03379 1.75462 8.33744 1.11622C7.54094 0.385977 6.61219 0 5.65161 0C4.32894 0 3.0914 0.72132 2.16688 2.03103C1.26075 3.31471 0.761719 5.01718 0.761719 6.82487C0.761719 8.40176 1.15436 9.93884 1.86731 11.1529C1.91315 11.231 1.99536 11.2744 2.07976 11.2744C2.12209 11.2744 2.16498 11.2635 2.20413 11.2405C2.32135 11.1717 2.36056 11.0209 2.29172 10.9037C1.62247 9.76403 1.25392 8.31545 1.25392 6.82487C1.25392 3.33302 3.2267 0.492169 5.65161 0.492169C7.28754 0.492169 8.80605 1.83229 9.5589 3.92278C9.06808 4.25379 8.5997 4.64013 8.16404 5.07576C7.64802 5.59172 7.20172 6.15313 6.83524 6.74105C6.78877 6.62016 6.73915 6.50022 6.68619 6.38189C6.2565 5.43516 5.9204 4.39355 5.6587 3.19756C5.65643 3.18719 5.65348 3.17701 5.6499 3.167C5.62201 3.0893 5.59746 2.93923 5.57374 2.79412C5.51296 2.42261 5.45557 2.07168 5.24762 1.91135C5.23567 1.90216 5.22294 1.89405 5.20952 1.88719C4.99421 1.7769 4.72664 1.85979 4.61322 2.07195C4.61244 2.07346 4.61162 2.07497 4.61086 2.07651C4.22433 2.83731 4.03275 3.6912 4.04145 4.61457C4.04273 4.74967 4.15262 4.85836 4.2875 4.85836H4.28986C4.42575 4.85708 4.53489 4.74586 4.53361 4.60994C4.5261 3.81226 4.68099 3.07371 4.99415 2.41261C5.03415 2.54443 5.06736 2.74755 5.088 2.8736C5.11527 3.04047 5.14113 3.19851 5.181 3.317C5.44976 4.54129 5.79554 5.61049 6.23747 6.58416C6.34287 6.81961 6.43417 7.06252 6.51122 7.30732C6.18447 7.93308 5.9478 8.58099 5.81195 9.22996C5.80227 9.19396 5.79278 9.15773 5.78281 9.12199C5.58943 8.40999 5.35532 7.73872 5.06697 7.06937C4.87713 6.63089 4.7354 6.17272 4.64568 5.70762C4.61992 5.57413 4.49069 5.48671 4.35743 5.51257C4.22397 5.5383 4.13664 5.66736 4.16237 5.80082C4.25885 6.30106 4.41121 6.79366 4.61506 7.26456C4.89396 7.91192 5.12055 8.5617 5.30826 9.25283C5.4537 9.77289 5.56659 10.3296 5.67573 10.8679C5.69023 10.9396 5.70474 11.011 5.71931 11.0823C5.81418 11.8266 6.08087 12.4904 6.50944 13.0361C6.22835 13.1167 5.94108 13.1576 5.65161 13.1576C4.65621 13.1576 3.71614 12.6871 2.93303 11.797C2.84328 11.695 2.68777 11.6851 2.58571 11.7748C2.48365 11.8646 2.47371 12.0201 2.56349 12.1221C3.43022 13.1073 4.52695 13.6498 5.65161 13.6498C6.0666 13.6498 6.47709 13.5777 6.87422 13.4354C7.60017 14.1189 8.57919 14.4752 9.70139 14.4751C10.0221 14.4751 10.3546 14.446 10.696 14.3872C12.2444 14.1202 13.8011 13.2692 15.0794 11.9911C16.3575 10.7129 17.2084 9.15612 17.4754 7.60772C17.7478 6.02787 17.3827 4.64272 16.4474 3.70748Z" fill="white"/>
<path d="M9.66225 10.0074C9.39844 10.4757 9.08607 10.9472 8.784 11.4031C8.67371 11.5696 8.55967 11.7418 8.44997 11.9108C8.44977 11.9111 8.30899 12.084 8.39504 12.354C8.46359 12.569 8.66987 12.7043 8.88547 12.7043C8.93695 12.7043 8.98926 12.6965 9.04075 12.6801C9.83728 12.4161 10.5822 11.9255 11.2552 11.2212C11.8514 10.5933 12.3393 9.80902 12.6664 8.95178C13.0324 7.97758 13.5313 7.00342 14.1916 5.97353C14.1972 5.96464 14.2024 5.95542 14.2069 5.94587C14.2422 5.87118 14.3308 5.74786 14.4166 5.62857C14.6364 5.32276 14.844 5.03395 14.8106 4.77349C14.8086 4.75827 14.8052 4.74324 14.8005 4.7286C14.7257 4.49893 14.4779 4.36878 14.2483 4.43848C14.2467 4.43897 14.2451 4.43946 14.2435 4.43999C12.6537 4.95841 11.2834 6.33102 10.578 8.11137C10.3177 8.76565 10.0184 9.38534 9.66225 10.0074ZM14.2766 4.94889C14.2115 5.07051 14.0914 5.23761 14.0168 5.34134C13.9183 5.47847 13.8249 5.60832 13.7693 5.72016C13.0941 6.77502 12.5825 7.77563 12.206 8.77753C11.9023 9.57337 11.4501 10.3012 10.8988 10.8818C10.2825 11.5267 9.60521 11.9745 8.88845 12.212C8.8793 12.215 8.86532 12.2082 8.86086 12.1951C8.85961 12.1915 8.85793 12.1865 8.86322 12.1781C8.97154 12.0112 9.08479 11.8403 9.19429 11.675C9.50119 11.2118 9.81855 10.7327 10.0902 10.2505C10.4572 9.60957 10.7663 8.96943 11.0354 8.29307C11.6696 6.69229 12.8752 5.45147 14.2766 4.94889Z" fill="white"/>
</svg>
