<svg width="11" height="9" viewBox="0 0 11 9" fill="none" xmlns="http://www.w3.org/2000/svg">
<path d="M3.42647 7.84775C4.92811 7.84775 6.14542 6.12321 6.14542 3.9959C6.14542 1.86858 4.92811 0.144043 3.42647 0.144043C1.92484 0.144043 0.70752 1.86858 0.70752 3.9959C0.70752 6.12321 1.92484 7.84775 3.42647 7.84775Z" fill="#2F211A"/>
<path d="M1.54004 6.76966C2.02896 7.43714 2.69381 7.84779 3.42643 7.84779C4.92806 7.84779 6.14538 6.12327 6.14538 3.99593C6.14538 2.4847 5.53094 1.17696 4.63676 0.546143C4.90295 0.909546 5.11687 1.34919 5.26122 1.84017C5.3027 1.98127 5.25436 2.13331 5.13879 2.22426C4.95615 2.36802 4.78058 2.52338 4.61475 2.68921C3.80853 3.49542 3.27079 4.48313 3.10057 5.47037C3.02305 5.92004 3.02449 6.3477 3.10115 6.74017C3.14432 6.96122 2.98024 7.17117 2.755 7.1717C2.75346 7.1717 2.75193 7.1717 2.75039 7.1717C2.31549 7.1717 1.90458 7.02683 1.54004 6.76966Z" fill="#4F382D"/>
<path d="M3.65231 6.67723C3.5607 6.24687 3.48135 5.79862 3.36401 5.37856C3.25286 4.96966 3.11675 4.57935 2.95177 4.19624C2.55574 3.28054 2.4867 2.18363 2.94541 1.281C2.97499 1.22565 3.04495 1.20419 3.10169 1.23305C3.22075 1.32502 3.23128 1.74009 3.2896 1.9029C3.43247 2.55612 3.62775 3.19447 3.90074 3.7961C4.10755 4.25818 4.23023 4.761 4.24322 5.2641C4.25453 5.76371 4.1708 6.2682 3.94566 6.71648C3.90681 6.79174 3.81278 6.82204 3.73564 6.78413C3.69058 6.762 3.66207 6.72227 3.65231 6.67723Z" fill="#4F382D"/>
<path d="M3.73579 6.7843C3.81294 6.82219 3.90697 6.79191 3.94582 6.71665C4.17094 6.26836 4.25469 5.76388 4.24337 5.26427C4.23039 4.76116 4.10771 4.25835 3.90089 3.79627C3.87866 3.74725 3.85713 3.69793 3.83591 3.64844C3.56977 4.05849 3.36484 4.49141 3.22998 4.93093C3.27826 5.07803 3.32295 5.22707 3.36417 5.37872C3.48148 5.79881 3.56084 6.24704 3.65247 6.6774C3.66221 6.72243 3.69072 6.76217 3.73579 6.7843Z" fill="#372222"/>
<path d="M8.84286 6.91854C10.3469 5.41453 10.7055 3.33464 9.64382 2.27299C8.58216 1.21133 6.50228 1.56993 4.99826 3.07395C3.49425 4.57796 3.13565 6.65785 4.1973 7.7195C5.25896 8.78116 7.33885 8.42256 8.84286 6.91854Z" fill="#2F211A"/>
<path d="M10.2171 3.4126C10.0846 4.27092 9.61482 5.19228 8.84448 5.96262C7.34024 7.46686 5.26004 7.82552 4.19823 6.76371C3.89072 6.4562 3.7026 6.06319 3.62669 5.6236C3.50042 6.44131 3.68018 7.20178 4.19823 7.71983C5.26004 8.78164 7.34024 8.42298 8.84448 6.91874C9.91311 5.85013 10.4033 4.49095 10.2171 3.4126Z" fill="#4F382D"/>
<path d="M5.18576 7.05212C5.4253 6.68303 5.68614 6.30997 5.90021 5.92996C6.11075 5.56224 6.2905 5.19002 6.44472 4.80244C6.81218 3.87491 7.539 3.05046 8.5016 2.73657C8.56166 2.71836 8.62631 2.75266 8.64603 2.81318C8.66518 2.96241 8.37913 3.26335 8.30524 3.41971C7.94437 3.98262 7.63107 4.57211 7.39869 5.19055C7.2182 5.66353 6.94938 6.10582 6.60283 6.47076C6.25756 6.83205 5.84161 7.12955 5.36545 7.28735C5.28475 7.3131 5.19685 7.26803 5.1691 7.18668C5.15289 7.13914 5.16082 7.09088 5.18576 7.05212Z" fill="#372222"/>
<path d="M9.74738 2.17072C9.22977 1.65312 8.46692 1.43192 7.5993 1.54803C7.52041 1.55857 7.46504 1.63107 7.47559 1.70994C7.48614 1.78881 7.55861 1.8443 7.6375 1.83365C8.41407 1.72981 9.09098 1.92186 9.54361 2.37447C10.5475 3.37836 10.1882 5.37125 8.74266 6.81699C7.29694 8.26249 5.30407 8.62186 4.30013 7.61815C3.82062 7.13864 3.63536 6.41737 3.7785 5.58723C3.92481 4.73871 4.39458 3.88225 5.10129 3.17564C5.66418 2.61274 6.32345 2.19863 7.00786 1.97804C7.0836 1.95364 7.12521 1.87245 7.10079 1.79671C7.07639 1.72099 6.99527 1.67933 6.91945 1.70377C6.59256 1.80912 6.27146 1.95577 5.96293 2.13915C5.73758 1.5385 5.40674 1.02732 4.99903 0.653545C4.53268 0.225988 3.98891 0 3.42649 0C2.65207 0 1.9275 0.42233 1.3862 1.18916C0.855655 1.94075 0.563477 2.93754 0.563477 3.99593C0.563477 4.9192 0.793365 5.81915 1.2108 6.52999C1.23764 6.5757 1.28577 6.60114 1.33518 6.60114C1.35997 6.60114 1.38508 6.59474 1.408 6.58127C1.47663 6.54098 1.49959 6.45268 1.45928 6.38407C1.06745 5.7168 0.851659 4.86867 0.851659 3.99593C0.851659 1.95147 2.00671 0.288163 3.42649 0.288163C4.38432 0.288163 5.2734 1.0728 5.7142 2.29677C5.42682 2.49058 5.15259 2.71678 4.89751 2.97184C4.59538 3.27393 4.33408 3.60263 4.1195 3.94686C4.09229 3.87608 4.06324 3.80586 4.03223 3.73657C3.78065 3.18226 3.58387 2.57241 3.43064 1.87216C3.42931 1.86609 3.42759 1.86013 3.42549 1.85427C3.40916 1.80877 3.39479 1.72091 3.3809 1.63595C3.34531 1.41843 3.31171 1.21296 3.18995 1.11909C3.18296 1.11371 3.17551 1.10896 3.16765 1.10495C3.04159 1.04037 2.88492 1.0889 2.81852 1.21312C2.81806 1.214 2.81758 1.21488 2.81714 1.21579C2.59082 1.66123 2.47865 2.16119 2.48374 2.70181C2.48449 2.78091 2.54884 2.84455 2.62781 2.84455H2.62919C2.70875 2.8438 2.77266 2.77869 2.77191 2.6991C2.76751 2.23206 2.8582 1.79965 3.04155 1.41257C3.06497 1.48975 3.08441 1.60868 3.0965 1.68248C3.11247 1.78018 3.12761 1.87271 3.15095 1.94209C3.30831 2.65891 3.51076 3.28492 3.76951 3.855C3.83122 3.99286 3.88467 4.13508 3.92979 4.27841C3.73848 4.64479 3.59991 5.02414 3.52037 5.40411C3.5147 5.38303 3.50915 5.36182 3.50331 5.34089C3.39008 4.92402 3.25301 4.53099 3.08418 4.13909C2.97303 3.88236 2.89005 3.61411 2.83752 3.34179C2.82244 3.26363 2.74678 3.21245 2.66875 3.22759C2.59061 3.24265 2.53948 3.31822 2.55455 3.39636C2.61103 3.68925 2.70024 3.97766 2.8196 4.25338C2.98289 4.6324 3.11556 5.01284 3.22546 5.4175C3.31061 5.72199 3.37671 6.04793 3.44061 6.36314C3.4491 6.40507 3.4576 6.4469 3.46613 6.48867C3.52167 6.92445 3.67782 7.3131 3.92875 7.63258C3.76417 7.67978 3.59597 7.70374 3.42649 7.70374C2.84369 7.70374 2.29328 7.42828 1.83477 6.90712C1.78222 6.84738 1.69117 6.84156 1.63142 6.89411C1.57166 6.94668 1.56584 7.03773 1.61841 7.09746C2.12587 7.67425 2.76801 7.99191 3.42649 7.99191C3.66946 7.99191 3.9098 7.94968 4.14233 7.8664C4.56737 8.26654 5.14058 8.47516 5.79762 8.47514C5.98537 8.47514 6.18006 8.4581 6.37996 8.42363C7.28657 8.26731 8.19801 7.76909 8.94643 7.02076C9.69476 6.27234 10.193 5.36088 10.3493 4.45429C10.5087 3.5293 10.295 2.7183 9.74738 2.17072Z" fill="white"/>
<path d="M5.77485 5.85923C5.6204 6.13341 5.4375 6.40947 5.26064 6.67644C5.19607 6.77391 5.1293 6.8747 5.06507 6.97367C5.06496 6.97384 4.98253 7.0751 5.03291 7.23315C5.07304 7.35905 5.19382 7.43827 5.32005 7.43827C5.3502 7.43827 5.38082 7.4337 5.41097 7.42407C5.87734 7.26954 6.31346 6.98226 6.70751 6.56992C7.0566 6.20231 7.34225 5.74309 7.53377 5.24118C7.74809 4.67079 8.04019 4.10042 8.42675 3.49742C8.43007 3.49221 8.43309 3.48682 8.43572 3.48122C8.4564 3.43749 8.50829 3.36529 8.5585 3.29545C8.68719 3.1164 8.80873 2.9473 8.78917 2.79481C8.78802 2.78589 8.78604 2.77709 8.78326 2.76852C8.73947 2.63405 8.59443 2.55785 8.45997 2.59866C8.45903 2.59894 8.45809 2.59923 8.45715 2.59954C7.52633 2.90307 6.72402 3.70673 6.31104 4.74912C6.1586 5.1322 5.98338 5.49502 5.77485 5.85923ZM8.47651 2.8975C8.43841 2.96871 8.36811 3.06654 8.32446 3.12727C8.26674 3.20757 8.2121 3.28359 8.17953 3.34907C7.78419 3.96669 7.48468 4.55255 7.26424 5.13915C7.08642 5.60512 6.82164 6.03125 6.49884 6.37118C6.13799 6.74876 5.74146 7.01098 5.3218 7.15005C5.31644 7.1518 5.30826 7.14778 5.30564 7.14012C5.30491 7.138 5.30393 7.1351 5.30703 7.1302C5.37045 7.03248 5.43675 6.93242 5.50087 6.8356C5.68055 6.56439 5.86637 6.28391 6.02544 6.00157C6.24028 5.62631 6.42129 5.25151 6.57886 4.8555C6.95018 3.91825 7.65602 3.19175 8.47651 2.8975Z" fill="white"/>
</svg>
