<svg width="22" height="22" viewBox="0 0 22 22" fill="none" xmlns="http://www.w3.org/2000/svg">
<path d="M21.2855 2.58138C21.2126 2.76107 21.0802 2.90876 20.9117 2.99859C20.4746 3.24516 19.9993 3.41258 19.5065 3.49348C13.8073 4.73646 7.85787 4.46024 2.15579 3.22877C1.81856 3.15684 1.44479 3.05614 1.26775 2.75402C1.18708 2.58409 1.16157 2.39222 1.19493 2.20639C1.2283 2.02057 1.31879 1.85053 1.45322 1.72108C1.72904 1.47079 2.05967 1.29217 2.41715 1.2003C5.3258 0.253676 8.44242 0.351504 11.4916 0.455086C13.8411 0.492379 16.1866 0.664319 18.5173 0.970111C19.2896 1.04603 20.0409 1.27056 20.7318 1.63189C21.0747 1.83042 21.4091 2.20158 21.2855 2.58138Z" fill="#F7A543"/>
<path d="M1.12178 7.15049C0.658077 6.57503 0.632782 5.54785 0.540042 4.81414C0.505372 4.67773 0.49796 4.53555 0.518241 4.39613C0.538523 4.25671 0.586077 4.1229 0.65807 4.00275C0.877273 3.73804 1.36346 3.93082 1.69788 4.00275C5.26414 4.74221 6.16906 4.98965 9.31939 5.10762C12.4697 5.22559 17.25 5.07598 20.2795 4.16101C20.5186 4.05336 20.7886 4.04205 21.0355 4.12935C21.3559 4.29911 21.4008 4.74222 21.4037 5.11338C21.4037 5.89312 21.384 6.74767 20.8781 7.32888C20.4285 7.84679 19.7147 8.00503 19.0486 8.12013C15.2613 8.75609 11.419 8.98176 7.58545 8.79341C5.93862 8.72435 4.27492 8.58625 2.70116 8.0856C2.09896 7.93297 1.55135 7.60874 1.12178 7.15049Z" fill="#F7A543"/>
<path d="M20.8751 9.50684C21.0297 9.21911 20.7964 8.8537 20.4957 8.75011C20.1867 8.6793 19.8645 8.69823 19.5655 8.80478C13.6243 10.2803 7.40961 10.1404 1.53747 8.39909C1.40538 8.35881 1.1328 8.84506 1.32109 9.04647C1.52264 9.23734 1.76379 9.37899 2.02645 9.4608C3.74055 10.065 5.52061 10.4515 7.32668 10.6117C11.8541 10.9685 15.9093 10.9311 20.3215 9.83485C20.4306 9.82139 20.536 9.78537 20.6311 9.72899C20.7263 9.67261 20.8093 9.59703 20.8751 9.50684Z" fill="#A87D65"/>
<path d="M2.14737 16.8525C2.30443 17.5399 2.59707 18.1871 3.00732 18.7544C3.64245 19.5284 4.62886 19.8823 5.57312 20.193C7.78763 20.9066 10.5277 21.5051 12.849 21.3842C15.1703 21.2634 17.3763 20.2333 18.7056 18.2797C19.4391 17.2064 20.2457 13.5091 20.4227 12.8877C20.5407 12.4762 20.6447 11.9871 20.3862 11.6504C20.1276 11.3138 19.7061 11.3052 19.3183 11.3052C16.4574 11.3052 10.2691 13.0689 2.34408 10.7297C2.01808 10.6347 1.66681 10.442 1.37454 10.6088C1.02606 10.8131 1.02606 11.3195 1.09351 11.7281C1.31836 13.461 1.67065 15.174 2.14737 16.8525Z" fill="#A87D65"/>
<path d="M13.0289 11.2619C12.1156 11.2619 11.2051 11.236 10.3114 11.2044L9.91232 11.1785C9.6313 11.1583 9.28 11.1325 9.18445 11.1296C6.6857 11.0701 4.20812 10.6448 1.82711 9.86645C0.930623 9.57872 0.464113 9.17302 0.402286 8.64073C0.34046 8.10843 0.658015 7.81495 1.0093 7.56463C1.03162 7.5531 1.05727 7.5502 1.08151 7.55644C1.10576 7.56268 1.12699 7.57766 1.14133 7.59863C1.15566 7.6196 1.16214 7.64515 1.15958 7.67062C1.15701 7.69608 1.14557 7.71974 1.12735 7.73727C0.784491 7.98184 0.565278 8.22641 0.607432 8.61771C0.658017 9.05506 1.07675 9.40033 1.88892 9.66504C4.25352 10.4382 6.71409 10.8607 9.19569 10.9195C9.29124 10.9195 9.64252 10.9454 9.93198 10.9656L10.3254 10.9943C13.5854 11.1094 17.0364 11.1382 20.2317 10.1743C21.0495 9.92975 21.4907 9.59887 21.575 9.14138C21.6593 8.68389 21.294 8.21777 20.9455 7.93867C20.9357 7.92926 20.9279 7.91789 20.9226 7.90527C20.9173 7.89265 20.9145 7.87906 20.9145 7.86531C20.9145 7.85156 20.9173 7.83796 20.9226 7.82534C20.9279 7.81272 20.9357 7.80136 20.9455 7.79194C20.9623 7.77481 20.9845 7.76428 21.0081 7.76217C21.0318 7.76007 21.0554 7.76653 21.0748 7.78043C21.6228 8.23216 21.8645 8.71842 21.7774 9.18742C21.6762 9.71971 21.19 10.111 20.2879 10.3844C17.9385 11.0835 15.4542 11.2619 13.0289 11.2619Z" fill="#FFFEFD"/>
<path d="M10.5783 21.9597C8.73797 21.9606 6.90948 21.6584 5.16285 21.0649C4.18266 20.7788 3.28676 20.249 2.55489 19.5227C1.14975 18.0121 0.587696 13.8285 0.278564 10.816C0.202686 10.0392 0.115566 9.15872 0.382543 8.35309C0.385161 8.33791 0.390965 8.32349 0.399559 8.31083C0.408152 8.29817 0.419335 8.28758 0.43232 8.27978C0.445306 8.27197 0.459789 8.26715 0.474773 8.26565C0.489757 8.26414 0.504875 8.26598 0.519096 8.27105C0.533316 8.27611 0.546304 8.28427 0.55714 8.29497C0.567976 8.30568 0.576403 8.31866 0.581857 8.33303C0.587311 8.3474 0.589652 8.36281 0.588718 8.3782C0.587785 8.39358 0.583603 8.40858 0.576454 8.42215C0.323528 9.18462 0.410642 10.0392 0.48371 10.793C0.657948 12.5194 1.18067 17.7445 2.70385 19.3788C3.41503 20.0789 4.28371 20.5888 5.23311 20.8635C7.02107 21.4651 8.89303 21.7634 10.775 21.7468H11.2022C12.5539 21.7468 14.0912 21.7209 15.3727 21.39C16.7827 21.0685 18.0396 20.2547 18.9277 19.0882C19.8551 17.7761 21.1506 12.2489 21.5722 9.1616C21.577 9.13411 21.5919 9.10955 21.6138 9.09297C21.6358 9.07638 21.6631 9.06902 21.6902 9.0724C21.7035 9.07417 21.7164 9.07864 21.728 9.08555C21.7397 9.09246 21.7498 9.10168 21.7579 9.11266C21.7661 9.12365 21.7719 9.13618 21.7753 9.14952C21.7786 9.16287 21.7793 9.17675 21.7773 9.19037C21.3586 12.2633 20.0743 17.8222 19.0935 19.2119C18.1766 20.4196 16.8764 21.2613 15.4176 21.5914C14.1108 21.9281 12.5624 21.9424 11.2022 21.954H10.5839L10.5783 21.9597Z" fill="#FFFEFD"/>
<path d="M20.6308 7.99633C20.7282 8.02549 20.8224 8.06503 20.9118 8.1143C21.1718 8.2462 21.3864 8.45593 21.5273 8.71564C21.6372 8.91801 21.6683 9.15542 21.6144 9.38029C21.5432 9.63023 21.3892 9.84695 21.1788 9.99315C20.7154 10.3026 20.1999 10.5212 19.6584 10.6377C18.4978 10.8362 17.1292 11.0462 15.6706 11.2131C14.9371 11.2994 14.1784 11.3742 13.4055 11.4347C12.6327 11.4951 11.843 11.521 11.0561 11.5325C10.2692 11.544 9.47955 11.5325 8.70391 11.4922C7.92827 11.4519 7.16669 11.3829 6.43321 11.2793C6.06506 11.2361 5.70534 11.1815 5.35686 11.1182C5.00838 11.0549 4.66271 10.9916 4.3311 10.9139C3.99948 10.8362 3.67912 10.77 3.37279 10.6837C3.06647 10.5974 2.76296 10.5254 2.48194 10.4305C1.95805 10.2657 1.47101 9.99685 1.04868 9.63925C0.872642 9.48673 0.726708 9.30117 0.61871 9.09257C0.531527 8.9064 0.507766 8.6957 0.551249 8.4941C0.611663 8.22124 0.743846 7.97049 0.933461 7.76902C0.997304 7.6972 1.06584 7.62991 1.13861 7.56762C1.14019 7.56578 1.14214 7.5643 1.14432 7.5633C1.1465 7.56229 1.14886 7.56177 1.15125 7.56177C1.15364 7.56177 1.15602 7.56229 1.1582 7.5633C1.16038 7.5643 1.16233 7.56578 1.16391 7.56762C1.16391 7.56762 1.16391 7.58776 1.16391 7.59351C1.09461 7.65783 1.02981 7.72705 0.969997 7.80067C0.794917 7.99877 0.677165 8.24286 0.629945 8.5056C0.542826 8.85375 0.764833 9.24218 1.13298 9.53854C1.55311 9.86452 2.02997 10.1057 2.53813 10.2492C2.81916 10.3355 3.11706 10.396 3.42619 10.465C3.73532 10.5341 4.05569 10.6003 4.3873 10.6578C4.71892 10.7153 5.05615 10.7758 5.40463 10.8218C5.75311 10.8678 6.11001 10.9225 6.47535 10.957C7.20322 11.0405 7.95637 11.0865 8.72358 11.1124C9.49079 11.1383 10.2693 11.1469 11.0505 11.1354C13.9185 11.0349 16.7784 10.7659 19.6163 10.3298C19.8941 10.3259 20.1708 10.2941 20.4425 10.2348C20.6821 10.1766 20.8987 10.0451 21.0636 9.85792C21.1822 9.72218 21.2625 9.55586 21.2957 9.37689C21.3288 9.19791 21.3137 9.01306 21.2519 8.84224C21.1445 8.61547 21 8.40916 20.8247 8.23226L20.628 8.02222C20.6261 8.02035 20.6246 8.01811 20.6236 8.01563C20.6226 8.01316 20.6221 8.01052 20.6221 8.00784C20.6221 8.00516 20.6226 8.0025 20.6236 8.00003C20.6246 7.99756 20.6261 7.99532 20.628 7.99345C20.629 7.99433 20.6299 7.99529 20.6308 7.99633Z" fill="#FFFEFD"/>
<path d="M0.506164 8.6438C0.506164 8.6438 0.506164 8.79917 0.489303 9.0869C0.481911 9.50594 0.501632 9.92502 0.548325 10.3414C0.674788 11.4175 0.882745 12.9539 1.22841 14.7724C1.40886 15.7515 1.66734 16.7138 2.00124 17.6497C2.18306 18.1512 2.42672 18.6269 2.7263 19.0653C3.05424 19.5052 3.48669 19.8519 3.98249 20.0723C5.04655 20.5375 6.15382 20.8912 7.2874 21.1283C8.45737 21.3892 9.64319 21.5689 10.8368 21.6663C12.0271 21.7745 13.2253 21.7542 14.4115 21.6059C15.5576 21.4807 16.6663 21.1154 17.6686 20.5327C18.5939 19.9722 19.3197 19.1232 19.7398 18.11C20.1087 17.1903 20.4011 16.2403 20.6138 15.2702C21.0269 13.4661 21.2742 11.9354 21.4372 10.8651C21.6002 9.79471 21.6705 9.17897 21.6705 9.17897C21.6705 9.17897 21.6143 9.79758 21.4878 10.8737C21.3613 11.9498 21.1702 13.4891 20.774 15.3076C20.5753 16.2899 20.2932 17.2527 19.9309 18.1848C19.5086 19.2515 18.7564 20.147 17.7895 20.7341C16.7606 21.3394 15.6215 21.7222 14.4424 21.8591C13.2382 22.016 12.0211 22.042 10.8115 21.9368C9.6039 21.8376 8.40467 21.651 7.22277 21.3786C6.071 21.1314 4.94673 20.7651 3.86728 20.2852C3.33845 20.0448 2.87809 19.6705 2.52958 19.1976C2.21679 18.7404 1.96801 18.2407 1.79047 17.713C1.47121 16.7612 1.22778 15.7845 1.0626 14.7925C0.739412 12.9597 0.612949 11.4146 0.500538 10.3356C0.461785 9.91679 0.45146 9.4957 0.469628 9.07539C0.494921 8.78479 0.506164 8.6438 0.506164 8.6438Z" fill="#FFFEFD"/>
<path d="M0.705797 7.44095C0.693504 7.44111 0.681413 7.43767 0.67096 7.43104C0.660507 7.42442 0.652119 7.41488 0.646774 7.40354C-0.0136444 6.13754 -0.114813 3.46168 0.10439 2.10361C0.107165 2.08576 0.11667 2.06973 0.130857 2.05897C0.145043 2.04821 0.162786 2.04358 0.180273 2.04607C0.197709 2.04891 0.21335 2.05863 0.223858 2.07315C0.234367 2.08768 0.238892 2.10584 0.236465 2.12375C0.0256935 3.43291 0.126865 6.1174 0.764802 7.34024C0.77278 7.35631 0.774307 7.37493 0.769056 7.39214C0.763805 7.40934 0.7522 7.42376 0.736706 7.43232C0.727272 7.43781 0.716645 7.44077 0.705797 7.44095Z" fill="#FFFEFD"/>
<path d="M21.9178 2.60145C21.8786 2.77399 21.7785 2.92562 21.6368 3.02729C21.2394 3.31563 20.795 3.52902 20.3244 3.65742C19.1244 4.04297 17.3483 4.33933 15.2068 4.53786C14.1333 4.63281 12.9586 4.70186 11.7361 4.71049C10.5137 4.71912 9.20686 4.65583 7.85792 4.59253C6.47361 4.53482 5.09351 4.39841 3.72399 4.18395C3.0131 4.07473 2.31265 3.90339 1.63032 3.6718C1.27726 3.55004 0.942451 3.37864 0.635478 3.16253C0.470338 3.04627 0.331395 2.89519 0.227982 2.71942C0.169735 2.62073 0.127945 2.51279 0.104328 2.40004C0.101292 2.35214 0.101292 2.30408 0.104328 2.25618C0.104328 2.19288 0.123999 2.12958 0.13805 2.06916C0.297914 1.69034 0.586459 1.38368 0.950229 1.20598C1.27201 1.0211 1.61332 0.874372 1.96755 0.768634C2.65394 0.554427 3.35593 0.396631 4.06683 0.296757C5.44154 0.114435 6.82585 0.0183466 8.21202 0.00902995C9.55815 -0.0139882 10.8593 0.00903101 12.0902 0.0550673C13.3211 0.101104 14.4846 0.178791 15.5581 0.236337C17.7024 0.388832 19.4925 0.71109 20.642 1.23763C21.1015 1.40731 21.5048 1.70655 21.8054 2.10081C21.8564 2.17207 21.8926 2.25321 21.912 2.33929C21.9313 2.42536 21.9333 2.51456 21.9178 2.60145ZM21.9178 2.60145C21.9308 2.5143 21.926 2.42533 21.9038 2.34016C21.8815 2.25498 21.8423 2.17545 21.7885 2.10656C21.4877 1.71128 21.0832 1.41188 20.6223 1.24338C19.4701 0.731227 17.6827 0.406096 15.5413 0.299637C14.4677 0.262233 13.293 0.198931 12.0734 0.190299C10.8537 0.181668 9.54411 0.17304 8.20641 0.221954C6.83446 0.271861 5.46592 0.393823 4.10618 0.587364C3.41097 0.690169 2.72494 0.849891 2.05467 1.06499C1.72287 1.16716 1.40331 1.3071 1.10198 1.48219C0.809952 1.62348 0.57322 1.86179 0.430315 2.15835C0.427869 2.18702 0.421236 2.21514 0.410641 2.24179C0.405321 2.28478 0.405321 2.32829 0.410641 2.37128C0.430735 2.43522 0.457107 2.49691 0.489337 2.55542C0.571725 2.69521 0.681827 2.81578 0.812528 2.90932C1.09362 3.11009 1.40114 3.26897 1.72587 3.38119C2.38998 3.61418 3.07264 3.78747 3.76613 3.89911C5.1488 4.13504 6.53147 4.26452 7.86917 4.36522C9.20687 4.46593 10.5052 4.53786 11.7333 4.56087C12.9614 4.58389 14.1277 4.53498 15.1984 4.46017C16.9274 4.36742 18.6424 4.09166 20.3159 3.63727C20.7865 3.51186 21.2317 3.30245 21.6312 3.01866C21.7729 2.91973 21.8748 2.77148 21.9178 2.60145Z" fill="#FFFEFD"/>
<path d="M0.2618 2.39429C0.19994 3.19484 0.19994 3.99914 0.2618 4.79969C0.311867 5.59607 0.459148 6.38288 0.700205 7.14178C0.953682 7.49801 1.30927 7.76452 1.71753 7.90426C2.12914 8.07659 2.5494 8.22642 2.97654 8.35311C3.8313 8.6053 4.70575 8.78147 5.59012 8.87966C7.36301 9.08157 9.14588 9.17764 10.9297 9.16739C12.7217 9.18268 14.5132 9.10393 16.2973 8.93145C17.1854 8.83938 18.0734 8.72141 18.9446 8.54301C19.3804 8.45626 19.8095 8.338 20.2289 8.18912C20.6425 8.06955 21.0159 7.83559 21.3081 7.51296C21.4399 7.13325 21.5341 6.74092 21.5891 6.3419C21.6538 5.93909 21.7043 5.53339 21.7493 5.12481C21.8336 4.31055 21.8982 3.4934 21.9067 2.67338C21.9292 3.4934 21.9067 4.31342 21.842 5.13345C21.8139 5.5449 21.7802 5.95347 21.7296 6.36205C21.6883 6.77827 21.6016 7.18844 21.4711 7.58489C21.165 7.95117 20.7634 8.22063 20.3132 8.36174C19.8881 8.5235 19.4524 8.65426 19.0093 8.75306C18.1286 8.95219 17.2371 9.09727 16.3395 9.18753C14.5494 9.37062 12.7512 9.45897 10.9521 9.45223C9.15242 9.44796 7.3545 9.33556 5.56763 9.1156C4.668 9.01306 3.78037 8.82031 2.91753 8.54014C2.48574 8.40197 2.06168 8.23964 1.64727 8.05388C1.20385 7.89135 0.822122 7.58917 0.556877 7.1907C0.327418 6.41284 0.203542 5.60635 0.18873 4.79393C0.15036 3.99334 0.174797 3.19088 0.2618 2.39429Z" fill="#FFFEFD"/>
<path d="M12.8884 4.73638C11.3372 4.73638 9.79711 4.64718 8.19524 4.54935C5.90766 4.40836 3.31658 4.26162 1.10207 3.11072C0.787313 2.94959 0.41917 2.71653 0.351723 2.3281C0.333206 2.17513 0.354371 2.01988 0.413078 1.87794C0.471785 1.73601 0.565965 1.61241 0.686148 1.51958C0.917986 1.34213 1.18006 1.21042 1.45898 1.13116C4.31424 0.164397 7.28471 0.0349121 9.81116 0.0349121C10.7638 0.0349121 11.7165 0.0579341 12.7704 0.0838296C15.4655 0.14713 18.2505 0.21618 20.8303 1.19445C21.1515 1.29432 21.4477 1.46412 21.6987 1.69222C21.8265 1.81265 21.919 1.96722 21.9657 2.13853C22.0123 2.30984 22.0114 2.49108 21.9629 2.66186C21.8785 2.8243 21.7627 2.9675 21.6226 3.08274C21.4825 3.19798 21.321 3.28288 21.1479 3.33227C18.894 4.29328 16.2692 4.73638 12.8884 4.73638ZM9.79711 0.178776C7.2819 0.178776 4.32547 0.308253 1.48707 1.26638C1.22503 1.34115 0.97842 1.46399 0.759219 1.62892C0.660104 1.70853 0.58233 1.81258 0.533181 1.93134C0.484032 2.0501 0.465114 2.17968 0.478189 2.30796C0.537206 2.63597 0.874436 2.84888 1.15828 2.99275C3.34749 4.112 5.93577 4.27313 8.20087 4.41412C9.78587 4.51195 11.3371 4.59827 12.8856 4.59827C16.258 4.59827 18.8547 4.15804 21.0945 3.21142C21.25 3.16781 21.3954 3.09294 21.5223 2.99117C21.6492 2.88941 21.755 2.76279 21.8336 2.6187C21.8739 2.47294 21.8734 2.31852 21.8322 2.17302C21.791 2.02753 21.7106 1.89682 21.6003 1.79581C21.3629 1.58161 21.0829 1.42258 20.7797 1.32968C18.2224 0.357166 15.4402 0.29099 12.7648 0.224813C11.7137 0.198918 10.7638 0.178776 9.81116 0.178776H9.79711Z" fill="#FFFEFD"/>
<path d="M10.2579 9.30543C9.60963 9.30543 8.96046 9.29776 8.31034 9.28242C5.78108 9.22487 2.91739 9.02634 0.666345 7.42945C0.651787 7.41849 0.641904 7.40221 0.638763 7.38399C0.635623 7.36578 0.639468 7.34702 0.649484 7.33163C0.660098 7.31738 0.675712 7.30791 0.693017 7.30522C0.710323 7.30254 0.727968 7.30685 0.742228 7.31724C2.96236 8.89399 5.81481 9.08676 8.31316 9.1443C10.9717 9.2076 13.6527 9.14431 16.3169 8.95153C18.0283 8.82781 19.8185 8.62352 21.218 7.6136C21.2251 7.60822 21.2332 7.60439 21.2418 7.60234C21.2504 7.60029 21.2593 7.60006 21.268 7.60168C21.2767 7.6033 21.285 7.60672 21.2923 7.61174C21.2997 7.61676 21.306 7.62327 21.3108 7.63086C21.3206 7.64581 21.3244 7.66411 21.3212 7.68185C21.3181 7.6996 21.3083 7.71537 21.2939 7.72581C19.8663 8.75587 18.0564 8.96304 16.3253 9.08676C14.33 9.21912 12.2841 9.30543 10.2579 9.30543Z" fill="#FFFEFD"/>
</svg>
