<svg width="33" height="43" viewBox="0 0 33 43" fill="none" xmlns="http://www.w3.org/2000/svg">
<path d="M28.9313 32.431L30.8451 15.594H2.15454L4.06838 32.431H28.9313Z" fill="#50555C"/>
<path d="M27.86 15.594L25.946 32.431H28.9315L30.8453 15.594H27.86Z" fill="#313131"/>
<path d="M29.3868 15.5939L30.1815 8.60156H2.8186L3.61341 15.5939H29.3868Z" fill="#5C5B5B"/>
<path d="M5.5271 32.4309L6.65664 42.3682H26.343L27.4726 32.4309H5.5271Z" fill="#5C5B5B"/>
<path d="M27.1962 8.60156L26.4014 15.5939H29.3868L30.1815 8.60156H27.1962Z" fill="#6B6B6B"/>
<path d="M24.4873 32.4309L23.3577 42.3682H26.343L27.4726 32.4309H24.4873Z" fill="#6B6B6B"/>
<path d="M31.8778 4.57373H1.12183V8.60213H31.8778V4.57373Z" fill="#494949"/>
<path d="M30.1815 4.5734H2.8186L5.12158 0.631836H27.8785L30.1815 4.5734Z" fill="#303030"/>
<path d="M31.8775 4.57373H28.1458V8.60213H31.8775V4.57373Z" fill="#303030"/>
<path d="M27.8782 0.631836H24.1465L26.4495 4.5734H30.1812L27.8782 0.631836Z" fill="#232323"/>
<path d="M16.4994 28.1374C18.4756 28.1374 20.0777 26.1553 20.0777 23.7103C20.0777 21.2653 18.4756 19.2832 16.4994 19.2832C14.5232 19.2832 12.9211 21.2653 12.9211 23.7103C12.9211 26.1553 14.5232 28.1374 16.4994 28.1374Z" fill="#313131"/>
<path d="M16.4997 19.2832C16.1085 19.2832 15.7324 19.362 15.3801 19.5054C16.8077 20.087 17.8386 21.7492 17.8386 23.7101C17.8386 25.6712 16.8077 27.3333 15.3801 27.9149C15.7324 28.0584 16.1085 28.1372 16.4997 28.1372C18.4758 28.1372 20.0776 26.1551 20.0776 23.7101C20.0776 21.2652 18.4758 19.2832 16.4997 19.2832Z" fill="#4A4A4B"/>
<path d="M31.8781 3.94156H30.5356L28.4132 0.309315C28.3013 0.117494 28.0981 0 27.8784 0H5.12149C4.902 0 4.69871 0.117494 4.58669 0.309315L2.46452 3.94148H1.12194C0.778437 3.94148 0.5 4.22434 0.5 4.57329V8.6017C0.5 8.95065 0.778437 9.23351 1.12194 9.23351H2.26429L2.91541 14.962H2.15475C1.97734 14.962 1.80844 15.0389 1.69047 15.1735C1.57249 15.308 1.51661 15.4873 1.53686 15.6663L3.4507 32.5033C3.48691 32.8221 3.7527 33.0627 4.06859 33.0627H4.97293L6.03898 42.4406C6.07519 42.7594 6.34098 43 6.65686 43H10.4294C10.7729 43 11.0513 42.7171 11.0513 42.3682C11.0513 42.0192 10.7729 41.7364 10.4294 41.7364H7.21118L6.22524 33.0627H26.775L25.7891 41.7364H12.9171C12.5736 41.7364 12.2951 42.0192 12.2951 42.3682C12.2951 42.7171 12.5736 43 12.9171 43H26.3432C26.6591 43 26.9249 42.7595 26.961 42.4406L28.027 33.0627H28.9313C29.2473 33.0627 29.513 32.8222 29.5491 32.5033L31.463 15.6663C31.4834 15.4873 31.4275 15.308 31.3095 15.1735C31.1914 15.0389 31.0224 14.962 30.8451 14.962H30.0844L30.7356 9.23351H31.8781C32.2216 9.23351 32.5 8.95065 32.5 8.6017V4.57338C32.5001 4.22442 32.2216 3.94156 31.8781 3.94156ZM28.8324 14.9621H25.2514C24.9078 14.9621 24.6294 15.245 24.6294 15.5939C24.6294 15.9429 24.9078 16.2257 25.2514 16.2257H30.1473L28.377 31.7991H4.62282L2.85258 16.2258H22.7636C23.1072 16.2258 23.3856 15.943 23.3856 15.594C23.3856 15.245 23.1072 14.9622 22.7636 14.9622H4.16755L3.51643 9.23368H29.4835L28.8324 14.9621ZM31.2561 7.96988H1.74387V5.20519H6.67034C7.01384 5.20519 7.29228 4.92233 7.29228 4.57338C7.29228 4.22442 7.01384 3.94156 6.67034 3.94156H3.91085L5.47549 1.26372H27.5243L29.0889 3.94156H9.15817C8.81467 3.94156 8.53623 4.22442 8.53623 4.57338C8.53623 4.92233 8.81467 5.20519 9.15817 5.20519H31.256V7.96988H31.2561Z" fill="black"/>
<path d="M17.0728 18.6999C17.046 18.6937 17.019 18.6901 16.9918 18.6875C16.8303 18.6646 16.6663 18.6516 16.4998 18.6516C14.184 18.6516 12.2998 20.921 12.2998 23.7105C12.2998 26.4993 14.183 28.7683 16.4982 28.7694C16.4986 28.7694 16.4989 28.7695 16.4993 28.7695C16.4997 28.7695 16.5 28.7694 16.5003 28.7694C18.816 28.7691 20.6999 26.4999 20.6999 23.7105C20.6999 21.1553 19.1185 19.0377 17.0728 18.6999ZM13.5438 23.7105C13.5438 21.9438 14.489 20.4552 15.7643 20.0343C15.2544 21.1894 15.0483 22.8296 16.2364 24.3978C17.1039 25.5429 16.5053 26.9054 16.1761 27.4825C14.6979 27.2746 13.5438 25.6626 13.5438 23.7105ZM17.6651 27.1979C17.6922 27.1203 17.7185 27.0411 17.7427 26.9589C18.1098 25.7131 17.9296 24.5611 17.2221 23.6272C16.0778 22.1168 16.7944 20.6328 17.1919 20.0215C18.489 20.4226 19.4559 21.924 19.4559 23.7106C19.4559 25.2721 18.7172 26.616 17.6651 27.1979Z" fill="black"/>
</svg>
