<svg width="15" height="16" viewBox="0 0 15 16" fill="none" xmlns="http://www.w3.org/2000/svg">
<path d="M14.7631 9.18926C14.5265 8.89839 14.1527 8.74804 13.7755 8.79192C13.5752 8.8135 13.3736 8.82429 13.172 8.82405C11.7168 8.82405 10.3214 8.25814 9.29242 7.25079C8.26344 6.24343 7.68537 4.87735 7.68537 3.45276C7.6839 2.85616 7.788 2.26365 7.99252 1.70184C8.11646 1.35463 8.05008 0.969504 7.81714 0.681296C7.58274 0.386354 7.20872 0.231691 6.82955 0.272936C5.00034 0.47292 3.30512 1.30907 2.05273 2.62937C0.80008 3.94966 0.0736488 5.66633 0.00530094 7.46691C-0.0630343 9.26773 0.531184 11.0323 1.67995 12.4402C2.82894 13.848 4.45587 14.805 6.26471 15.1374C8.07386 15.4697 9.94445 15.1549 11.5365 14.2506C13.1284 13.3464 14.3357 11.9124 14.9387 10.21C15.0624 9.86274 14.9963 9.47786 14.7631 9.18941L14.7631 9.18926Z" fill="#0C0F14"/>
</svg>
