<svg width="20" height="21" viewBox="0 0 20 21" fill="none" xmlns="http://www.w3.org/2000/svg">
<path fill-rule="evenodd" clip-rule="evenodd" d="M7.81366 17.4236L15.1357 7.95484C15.5336 7.44423 15.6751 6.85389 15.5424 6.2528C15.4275 5.70636 15.0914 5.18679 14.5874 4.79263L13.3582 3.8162C12.2882 2.96518 10.9618 3.05476 10.2013 4.03119L9.37887 5.0981C9.27276 5.23158 9.29929 5.42865 9.43193 5.53615C9.43193 5.53615 11.51 7.20236 11.5542 7.23819C11.6957 7.37256 11.8018 7.55173 11.8284 7.76672C11.8726 8.18775 11.5808 8.58191 11.1475 8.63566C10.9441 8.66253 10.7495 8.59982 10.608 8.48337L8.42383 6.7455C8.31771 6.66577 8.15854 6.68279 8.07011 6.79029L2.87928 13.5089C2.54325 13.9299 2.42829 14.4763 2.54325 15.0049L3.20647 17.8804C3.24184 18.0327 3.37449 18.1402 3.53366 18.1402L6.45185 18.1044C6.98242 18.0954 7.47763 17.8535 7.81366 17.4236ZM11.8997 16.528H16.6581C17.1224 16.528 17.5 16.9105 17.5 17.3808C17.5 17.852 17.1224 18.2336 16.6581 18.2336H11.8997C11.4355 18.2336 11.0579 17.852 11.0579 17.3808C11.0579 16.9105 11.4355 16.528 11.8997 16.528Z" fill="#0C0F14"/>
</svg>
