<svg width="24" height="20" viewBox="0 0 24 20" fill="none" xmlns="http://www.w3.org/2000/svg">
<path d="M14.2732 6.459C13.1727 6.459 12.069 6.42615 11.2279 6.3966L10.8027 6.36704C10.4901 6.34405 10.0805 6.31449 9.97419 6.3112C7.19423 6.24336 4.43783 5.75785 1.78886 4.86943C0.791488 4.54101 0.272479 4.07464 0.203695 3.47034C0.106771 2.57703 1.05099 2.00886 1.62003 1.74941C4.98108 0.215672 8.86426 0.176263 12.291 0.140137H13.4384C16.5431 0.140137 20.0917 0.304346 22.89 2.2519C23.3621 2.58032 24.1406 3.25687 23.978 4.09435C23.8655 4.70193 23.3246 5.14859 22.321 5.45731C20.0792 6.13058 17.5967 6.459 14.2732 6.459ZM13.4384 0.376602H12.291C8.88928 0.409444 5.0311 0.452135 1.7107 1.96288C1.29799 2.15337 0.347517 2.67228 0.431934 3.43422C0.488213 3.93671 0.954069 4.32753 1.85764 4.63296C4.48841 5.51525 7.22585 5.99745 9.9867 6.06488C10.0961 6.06488 10.4995 6.09444 10.8246 6.11743L11.2436 6.14699C12.0815 6.17655 13.182 6.21268 14.2795 6.21268C17.5655 6.21268 20.0292 5.90396 22.2647 5.22741C23.1745 4.94497 23.6654 4.57056 23.7592 4.04837C23.8874 3.34883 23.1933 2.73467 22.7681 2.45223C20.0323 0.527669 16.5243 0.370027 13.4509 0.370027L13.4384 0.376602Z" fill="white"/>
<path d="M11.4593 19.9705C9.41454 19.9668 7.38358 19.6186 5.44379 18.9393C4.35375 18.6116 3.35728 18.007 2.54235 17.1789C1.01033 15.4941 0.431916 9.55295 0.0879944 6.01254V5.94357C0.000450733 5.06011 -0.0964724 4.05514 0.200551 3.13555C0.212047 3.10779 0.232998 3.08553 0.2593 3.07314C0.285602 3.06075 0.31536 3.05912 0.342745 3.06857C0.370131 3.07802 0.39317 3.09787 0.407351 3.12424C0.421532 3.1506 0.425833 3.18156 0.419411 3.21108C0.134894 4.08469 0.231817 5.06011 0.316234 5.92057V5.98626C0.657029 9.50696 1.23232 15.3989 2.70805 17.0246C3.50012 17.8225 4.46626 18.4043 5.52196 18.7192C7.51033 19.4094 9.59352 19.7501 11.6875 19.7275H12.1628C13.6698 19.7275 15.3769 19.7012 16.8026 19.3235C18.372 18.9584 19.7709 18.0291 20.7577 16.6961C21.7801 15.2117 23.2902 7.67108 23.7717 4.06171C23.7732 4.04583 23.7778 4.03044 23.7851 4.01647C23.7925 4.00249 23.8024 3.99022 23.8144 3.9804C23.8264 3.97058 23.8401 3.96342 23.8548 3.95933C23.8695 3.95524 23.8848 3.95431 23.8999 3.95661C23.9301 3.96147 23.9573 3.97871 23.9754 4.00456C23.9936 4.03041 24.0013 4.06276 23.9968 4.09454C23.5309 7.59225 22.0333 15.2609 20.9453 16.8374C19.9276 18.2203 18.4824 19.1867 16.8589 19.5699C15.405 19.9541 13.6854 19.9705 12.169 19.9837H11.4593V19.9705Z" fill="white"/>
<path d="M0.372513 3.60179C0.359998 3.39978 0.392098 3.19747 0.466308 3.01064C0.699959 2.49454 1.08743 2.07254 1.56999 1.80861C2.30538 1.39538 3.09274 1.09352 3.90865 0.912007C4.84662 0.691963 5.91903 0.50805 7.09149 0.340554C8.35419 0.157994 9.62549 0.0483544 10.8996 0.0121305C12.3245 -0.0313788 13.7503 0.0421976 15.1643 0.232178C16.6741 0.431367 18.1633 0.775462 19.6134 1.26014C20.3603 1.50715 21.0914 1.80443 21.8019 2.15017C22.1656 2.31521 22.5186 2.505 22.8587 2.71833C23.2233 2.93549 23.5149 3.26591 23.6935 3.6642C23.7698 3.8816 23.7853 4.11738 23.7382 4.34373C23.6911 4.57009 23.5834 4.77759 23.4278 4.94177C23.1321 5.25779 22.7569 5.4788 22.346 5.57891C21.555 5.77268 20.7827 5.86792 20.0261 6.00585C18.4909 6.2456 16.9777 6.43937 15.5019 6.57731C14.0262 6.71525 12.5974 6.77437 11.2404 6.7678C9.9637 6.76611 8.6881 6.68826 7.41978 6.53462C6.34958 6.39418 5.28717 6.19466 4.23694 5.93689C3.42209 5.76347 2.62523 5.50718 1.85763 5.17166C1.35722 4.95432 0.918082 4.6061 0.581992 4.16012C0.495874 4.03948 0.433196 3.90221 0.397526 3.75615C0.383359 3.70593 0.374961 3.65411 0.372513 3.60179ZM0.413157 3.60179C0.418374 3.65075 0.427793 3.69912 0.441297 3.7463C0.478102 3.88489 0.540809 4.0144 0.625763 4.12727C0.955713 4.56248 1.38626 4.90167 1.87639 5.11254C2.64433 5.42543 3.44359 5.64579 4.25883 5.76939C5.19679 5.95331 6.2692 6.09782 7.43853 6.19635C8.60787 6.29487 9.88038 6.33756 11.2248 6.34413C12.5692 6.3507 13.9855 6.26531 15.4519 6.14707C16.9183 6.02884 18.4284 5.85478 19.9573 5.64459C20.717 5.53292 21.5206 5.4541 22.2553 5.29646C22.6166 5.22345 22.9499 5.04208 23.2152 4.77427C23.3442 4.65031 23.4362 4.48969 23.48 4.31189C23.5239 4.13409 23.5177 3.94675 23.4621 3.77258C23.3089 3.41519 23.056 3.11512 22.7368 2.91211C22.4082 2.69444 22.0679 2.49705 21.7175 2.32095C21.0175 1.96991 20.297 1.66605 19.5602 1.41122C18.12 0.92979 16.6329 0.620218 15.1267 0.488348C13.7207 0.367955 12.3088 0.341621 10.8996 0.40952C9.55521 0.47192 8.28583 0.573736 7.1165 0.701821C5.94717 0.829906 4.89352 0.921862 3.95555 1.09921C3.1416 1.22845 2.35227 1.49227 1.61688 1.88086C1.14085 2.1275 0.756031 2.53289 0.522586 3.03363C0.470552 3.16677 0.437879 3.30737 0.425664 3.45072C0.416284 3.55253 0.413157 3.60179 0.413157 3.60179Z" fill="white"/>
<path d="M0.331998 3.44751C0.331998 3.44751 0.331996 3.63472 0.313237 3.98613C0.305685 4.49101 0.331803 4.99583 0.391401 5.49688C0.550855 6.79086 0.763462 8.64646 1.098 10.8567C1.27117 12.0437 1.50918 13.2192 1.81086 14.3774C2.15478 15.5696 2.58312 16.9588 3.76809 17.5927C4.35558 17.9246 4.97499 18.1899 5.61588 18.3842C6.2662 18.6141 6.92904 18.7914 7.61063 18.9557C8.98306 19.2793 10.3759 19.4989 11.7783 19.6125C13.1772 19.7449 14.5858 19.7107 15.9773 19.5107C17.3168 19.3329 18.6 18.8365 19.7292 18.0591C20.2519 17.6701 20.7077 17.1903 21.0767 16.6403C21.4254 16.1073 21.6943 15.5214 21.874 14.9029C22.2305 13.7614 22.5187 12.5976 22.7369 11.4183C23.159 9.22776 23.431 7.38202 23.6061 6.08804C23.7812 4.79405 23.8687 4.05509 23.8687 4.05509L23.6624 6.09789C23.5123 7.39187 23.3153 9.25075 22.9151 11.4578C22.7143 12.6542 22.4439 13.8365 22.1054 14.9982C21.9258 15.6425 21.6549 16.2548 21.3018 16.8143C20.918 17.384 20.4443 17.8805 19.9011 18.2824C18.7364 19.0938 17.4101 19.614 16.0242 19.803C14.6117 20.0138 13.181 20.0557 11.7596 19.9278C10.341 19.8187 8.93215 19.5981 7.54497 19.2677C6.85986 19.1056 6.18354 18.905 5.51896 18.6666C4.86761 18.4624 4.23877 18.1861 3.64302 17.8423C3.03704 17.495 2.54706 16.9609 2.2392 16.3119C1.96025 15.711 1.74126 15.0815 1.58575 14.4333C1.29956 13.2608 1.07721 12.0722 0.91979 10.8732C0.607134 8.65302 0.478944 6.79086 0.344502 5.4903C0.296036 4.98733 0.281409 4.48141 0.30073 3.97628C0.322616 3.63472 0.331998 3.44751 0.331998 3.44751Z" fill="white"/>
<path d="M22.1801 2.80051C22.5772 3.05668 23.0055 3.45736 22.9055 3.93686C22.8054 4.41636 22.3365 4.57729 21.9206 4.70537C15.555 6.63978 8.11062 6.33107 1.81686 4.15362C1.40103 4.0124 0.919538 3.76937 0.878893 3.31943C0.835121 2.80709 1.39165 2.48851 1.86376 2.33416C5.09349 1.21752 8.53583 0.836547 11.9407 0.836547C16.0771 0.82341 20.7607 1.88421 22.1801 2.80051Z" fill="#A87D65"/>
<path d="M7.74192 18.6107C10.0025 19.1044 12.3165 19.2735 14.6203 19.1132C15.8241 19.0278 17.3655 18.6863 18.3879 18.013C19.1963 17.4327 19.8731 16.6724 20.3701 15.7863C21.8771 13.3133 22.3805 10.5315 22.3523 7.5757C22.3683 7.43994 22.3556 7.30213 22.3151 7.17213C22.2746 7.04212 22.2072 6.92312 22.1178 6.82361C21.9234 6.70481 21.6938 6.66618 21.4738 6.71523C18.3034 7.02395 15.1331 7.41149 11.9471 7.47389C8.76117 7.53629 5.54395 7.26371 2.5018 6.27844C2.13912 6.16349 1.72329 6.04197 1.40438 6.25873C1.28663 6.35084 1.19264 6.47238 1.13095 6.61232C1.06925 6.75226 1.0418 6.90617 1.05108 7.06007C1.05108 7.36879 1.67639 10.8599 1.87962 12.3148C2.08285 13.7698 2.46429 15.2707 3.38662 16.3643C4.46841 17.6813 6.14425 18.256 7.74192 18.6107Z" fill="#A87D65"/>
</svg>
