<svg width="20" height="21" viewBox="0 0 20 21" fill="none" xmlns="http://www.w3.org/2000/svg">
<path fill-rule="evenodd" clip-rule="evenodd" d="M13.2082 2.35023C13.734 2.35023 14.259 2.4244 14.7582 2.5919C17.834 3.5919 18.9424 6.9669 18.0165 9.9169C17.4915 11.4244 16.6332 12.8002 15.509 13.9244C13.8999 15.4827 12.134 16.8661 10.2332 18.0577L10.0249 18.1836L9.80818 18.0494C7.90068 16.8661 6.12485 15.4827 4.50068 13.9161C3.38402 12.7919 2.52485 11.4244 1.99152 9.9169C1.04985 6.9669 2.15818 3.5919 5.26735 2.5744C5.50902 2.49106 5.75818 2.43273 6.00818 2.40023H6.10818C6.34235 2.36606 6.57485 2.35023 6.80818 2.35023H6.89985C7.42485 2.36606 7.93318 2.45773 8.42568 2.62523H8.47485C8.50818 2.64106 8.53318 2.65856 8.54985 2.6744C8.73402 2.73356 8.90818 2.80023 9.07485 2.8919L9.39152 3.03356C9.46804 3.07437 9.55392 3.13673 9.62815 3.19062C9.67518 3.22477 9.71753 3.25551 9.74985 3.27523C9.76345 3.28326 9.77728 3.29132 9.79121 3.29946C9.86266 3.34117 9.93709 3.38462 9.99985 3.43273C10.9257 2.72523 12.0499 2.3419 13.2082 2.35023ZM15.4249 8.35023C15.7665 8.34106 16.0582 8.0669 16.0832 7.71606V7.6169C16.1082 6.4494 15.4007 5.3919 14.3249 4.98356C13.9832 4.86606 13.6082 5.05023 13.4832 5.40023C13.3665 5.75023 13.5499 6.13356 13.8999 6.25773C14.434 6.45773 14.7915 6.98356 14.7915 7.56606V7.5919C14.7757 7.78273 14.8332 7.9669 14.9499 8.10856C15.0665 8.25023 15.2415 8.33273 15.4249 8.35023Z" fill="#0C0F14"/>
</svg>
