<svg width="19" height="19" viewBox="0 0 19 19" fill="none" xmlns="http://www.w3.org/2000/svg">
<path d="M14.6816 9.49987C14.6816 12.3616 12.3616 14.6816 9.49987 14.6816C6.63816 14.6816 4.31812 12.3616 4.31812 9.49987C4.31812 6.63816 6.63816 4.31812 9.49987 4.31812C12.3616 4.31812 14.6816 6.63816 14.6816 9.49987Z" fill="white"/>
<path d="M9.49986 2.59087C9.72887 2.59087 9.94864 2.49987 10.1106 2.33795C10.2725 2.17602 10.3635 1.95625 10.3635 1.72724V0.863614C10.3635 0.554983 10.1989 0.269883 9.93167 0.115664C9.66448 -0.0385547 9.33522 -0.0385547 9.06804 0.115664C8.80086 0.269883 8.63623 0.554993 8.63623 0.863614V1.72724C8.63623 1.95625 8.72722 2.17602 8.88915 2.33795C9.05108 2.49987 9.27084 2.59087 9.49986 2.59087Z" fill="white"/>
<path d="M9.49986 16.4089C9.27084 16.4089 9.05108 16.4999 8.88915 16.6619C8.72722 16.8238 8.63623 17.0435 8.63623 17.2726V18.1362C8.63623 18.4448 8.80086 18.7299 9.06804 18.8841C9.33523 19.0384 9.66449 19.0384 9.93167 18.8841C10.1989 18.7299 10.3635 18.4448 10.3635 18.1362V17.2726C10.3635 17.0435 10.2725 16.8238 10.1106 16.6619C9.94864 16.4999 9.72887 16.4089 9.49986 16.4089Z" fill="white"/>
<path d="M3.3938 4.6118C3.55572 4.77276 3.77452 4.86298 4.00278 4.86298C4.23083 4.86298 4.44982 4.77276 4.61156 4.6118C4.77252 4.45006 4.86274 4.23107 4.86274 4.00301C4.86274 3.77477 4.77252 3.55597 4.61156 3.39403L4.00702 2.78081V2.781C3.78803 2.56182 3.46861 2.47623 3.1694 2.55642C2.87019 2.63661 2.63637 2.87045 2.55618 3.16965C2.47598 3.46884 2.56157 3.78825 2.78076 4.00726L3.3938 4.6118Z" fill="white"/>
<path d="M15.6059 14.3879C15.3835 14.1975 15.0798 14.1327 14.7991 14.2156C14.5185 14.2987 14.2989 14.5182 14.2158 14.7989C14.1329 15.0796 14.1977 15.3832 14.3882 15.6057L14.9927 16.2189V16.2187C15.1556 16.3804 15.3763 16.4705 15.6059 16.4693C15.8353 16.4705 16.0561 16.3804 16.2189 16.2187C16.3826 16.0566 16.4746 15.8359 16.4746 15.6057C16.4746 15.3753 16.3826 15.1546 16.2189 14.9925L15.6059 14.3879Z" fill="white"/>
<path d="M1.72724 8.63623H0.863614C0.554984 8.63623 0.269883 8.80086 0.115664 9.06804C-0.0385547 9.33523 -0.0385547 9.66449 0.115664 9.93167C0.269883 10.1989 0.554994 10.3635 0.863614 10.3635H1.72724C2.03587 10.3635 2.32097 10.1989 2.47519 9.93167C2.62941 9.66448 2.62941 9.33522 2.47519 9.06804C2.32097 8.80086 2.03586 8.63623 1.72724 8.63623Z" fill="white"/>
<path d="M18.1362 8.63623H17.2725C16.9639 8.63623 16.6788 8.80086 16.5246 9.06804C16.3704 9.33523 16.3704 9.66449 16.5246 9.93167C16.6788 10.1989 16.9639 10.3635 17.2725 10.3635H18.1362C18.4448 10.3635 18.7299 10.1989 18.8841 9.93167C19.0383 9.66448 19.0383 9.33522 18.8841 9.06804C18.7299 8.80086 18.4448 8.63623 18.1362 8.63623Z" fill="white"/>
<path d="M3.3938 14.3879L2.78057 14.9925H2.78076C2.6171 15.1546 2.52515 15.3753 2.52515 15.6057C2.52515 15.8358 2.6171 16.0566 2.78076 16.2187C2.94366 16.3804 3.16438 16.4705 3.39379 16.4693C3.62338 16.4705 3.84411 16.3804 4.00702 16.2187L4.61155 15.6055V15.6057C4.80202 15.3832 4.86679 15.0796 4.78389 14.7989C4.70081 14.5182 4.48124 14.2986 4.20058 14.2156C3.9199 14.1327 3.61627 14.1975 3.3938 14.3879L3.3938 14.3879Z" fill="white"/>
<path d="M14.9926 4.87089C15.2233 4.86993 15.4442 4.77662 15.6058 4.6118L16.219 4.00726H16.2188C16.438 3.78827 16.5236 3.46886 16.4434 3.16965C16.3632 2.87044 16.1294 2.63662 15.8302 2.55642C15.531 2.47623 15.2116 2.56182 14.9926 2.781L14.388 3.39423V3.39404C14.2271 3.55596 14.1368 3.77476 14.1368 4.00301C14.1368 4.23107 14.2271 4.45006 14.388 4.6118C14.5474 4.7745 14.7647 4.86761 14.9926 4.87089L14.9926 4.87089Z" fill="white"/>
</svg>
