<svg width="15" height="15" viewBox="0 0 15 15" fill="none" xmlns="http://www.w3.org/2000/svg">
<path fill-rule="evenodd" clip-rule="evenodd" d="M2.1875 6.4486C2.1875 3.57368 4.58993 1.25 7.4959 1.25C10.4101 1.25 12.8125 3.57368 12.8125 6.4486C12.8125 7.89731 12.2856 9.24227 11.4184 10.3822C10.4618 11.6397 9.2826 12.7353 7.95534 13.5953C7.65157 13.794 7.37742 13.809 7.04403 13.5953C5.70921 12.7353 4.53005 11.6397 3.58156 10.3822C2.71374 9.24227 2.1875 7.89731 2.1875 6.4486ZM5.74639 6.61047C5.74639 7.57357 6.53229 8.33104 7.4959 8.33104C8.46015 8.33104 9.25361 7.57357 9.25361 6.61047C9.25361 5.65487 8.46015 4.86052 7.4959 4.86052C6.53229 4.86052 5.74639 5.65487 5.74639 6.61047Z" fill="#130F26"/>
</svg>
