<svg width="22" height="21" viewBox="0 0 22 21" fill="none" xmlns="http://www.w3.org/2000/svg">
<path fill-rule="evenodd" clip-rule="evenodd" d="M8.39535 9.49636C7.95785 9.49636 7.61192 9.83636 7.61192 10.2664C7.61192 10.6864 7.95785 11.0364 8.39535 11.0364H14.5V15.8164C14.5 18.2664 12.4753 20.2664 9.97238 20.2664H5.01744C2.52471 20.2664 0.5 18.2764 0.5 15.8264V4.71636C0.5 2.25636 2.53488 0.266357 5.02762 0.266357H9.99273C12.4753 0.266357 14.5 2.25636 14.5 4.70636V9.49636H8.39535ZM18.1302 6.80656L21.0502 9.71656C21.2002 9.86656 21.2802 10.0566 21.2802 10.2666C21.2802 10.4666 21.2002 10.6666 21.0502 10.8066L18.1302 13.7166C17.9802 13.8666 17.7802 13.9466 17.5902 13.9466C17.3902 13.9466 17.1902 13.8666 17.0402 13.7166C16.7402 13.4166 16.7402 12.9266 17.0402 12.6266L18.6402 11.0366H14.5002V9.49656H18.6402L17.0402 7.90656C16.7402 7.60656 16.7402 7.11656 17.0402 6.81656C17.3402 6.50656 17.8302 6.50656 18.1302 6.80656Z" fill="#FF002E"/>
</svg>
