<svg width="276" height="266" viewBox="0 0 276 266" fill="none" xmlns="http://www.w3.org/2000/svg">
<ellipse cx="136.349" cy="144.91" rx="121.061" ry="120.861" fill="url(#paint0_linear_37_11694)"/>
<path d="M12.1717 212.279C18.3748 212.279 23.4035 206.016 23.4035 198.29C23.4035 190.564 18.3748 184.302 12.1717 184.302C5.96858 184.302 0.939941 190.564 0.939941 198.29C0.939941 206.016 5.96858 212.279 12.1717 212.279Z" fill="#DFDFDF"/>
<path d="M34.5678 229.065C40.7585 229.065 45.7771 222.802 45.7771 215.076C45.7771 207.351 40.7585 201.088 34.5678 201.088C28.377 201.088 23.3584 207.351 23.3584 215.076C23.3584 222.802 28.377 229.065 34.5678 229.065Z" fill="#DFDFDF"/>
<path d="M12.8942 211.579C12.5937 211.579 12.291 211.483 12.0346 211.285C11.4237 210.81 11.3137 209.931 11.7887 209.322C11.9533 209.106 15.8437 203.912 11.2037 199.279C5.4323 193.518 8.22203 187.688 10.5031 185.411C11.0496 184.865 11.9379 184.865 12.4844 185.411C13.0301 185.955 13.0315 186.838 12.4893 187.384C12.0213 187.861 8.0651 192.189 13.185 197.301C18.3097 202.418 15.96 208.525 14.0012 211.039C13.7251 211.393 13.3118 211.579 12.8942 211.579Z" fill="#BBBBBB"/>
<path d="M34.5678 228.366C34.2365 228.366 33.9044 228.25 33.6375 228.012C33.0588 227.499 33.0069 226.615 33.5212 226.037C33.7096 225.823 38.1625 220.643 33.5772 216.066C31.3732 213.865 30.2936 211.475 30.3678 208.959C30.4848 204.983 33.5086 202.255 33.6368 202.141C34.2148 201.629 35.101 201.68 35.6145 202.257C36.128 202.833 36.0769 203.715 35.5017 204.228C35.452 204.275 33.2374 206.319 33.1674 209.063C33.1239 210.769 33.9282 212.46 35.5578 214.088C40.7302 219.251 37.8564 225.378 35.6138 227.896C35.3385 228.207 34.9539 228.366 34.5678 228.366Z" fill="#BBBBBB"/>
<path d="M106.834 50.5688C113.387 46.8324 114.914 37.1871 110.245 29.0256C105.576 20.864 96.4791 17.2767 89.926 21.0132C83.3729 24.7496 81.8454 34.3948 86.5144 42.5564C91.1833 50.7179 100.281 54.3052 106.834 50.5688Z" fill="#DFDFDF"/>
<path d="M140.638 54.8118C147.178 51.0828 148.695 41.4436 144.026 33.2821C139.357 25.1205 130.27 21.5272 123.73 25.2562C117.19 28.9851 115.674 38.6243 120.342 46.7859C125.011 54.9474 134.098 58.5408 140.638 54.8118Z" fill="#DFDFDF"/>
<path d="M107.174 49.3948C106.856 49.5758 106.478 49.6561 106.088 49.6015C105.155 49.4678 104.508 48.6052 104.641 47.6755C104.685 47.3488 105.656 39.5185 97.9545 37.4189C88.3758 34.8091 87.7998 26.97 88.8333 23.1902C89.0804 22.2839 90.0189 21.7489 90.9263 21.9968C91.8317 22.2429 92.3666 23.1745 92.1239 24.0782C91.9178 24.864 90.354 31.8193 98.8522 34.1359C107.358 36.4548 108.567 44.3214 108.017 48.1576C107.939 48.6977 107.615 49.1433 107.174 49.3948Z" fill="#BBBBBB"/>
<path d="M140.216 54.0729C139.866 54.2725 139.445 54.3499 139.019 54.2602C138.098 54.0664 137.509 53.1637 137.703 52.2436C137.772 51.9033 139.346 43.7496 131.736 41.6755C128.077 40.6785 125.493 38.804 124.051 36.1015C121.771 31.8304 123.317 27.1267 123.383 26.929C123.684 26.04 124.651 25.5601 125.543 25.8604C126.433 26.1599 126.912 27.1225 126.615 28.0113C126.59 28.09 125.486 31.5837 127.071 34.5246C128.056 36.3536 129.927 37.6551 132.633 38.3929C141.218 40.7326 141.884 48.9363 141.037 52.9471C140.934 53.441 140.623 53.8404 140.216 54.0729Z" fill="#BBBBBB"/>
<path d="M223.579 225.992C226.723 224.199 227.456 219.571 225.216 215.655C222.975 211.738 218.61 210.017 215.466 211.81C212.321 213.603 211.588 218.231 213.829 222.147C216.069 226.064 220.434 227.785 223.579 225.992Z" fill="#DFDFDF"/>
<path d="M239.8 228.028C242.938 226.239 243.666 221.613 241.425 217.697C239.185 213.781 234.825 212.056 231.687 213.846C228.548 215.635 227.821 220.26 230.061 224.177C232.301 228.093 236.662 229.817 239.8 228.028Z" fill="#DFDFDF"/>
<path d="M223.742 225.429C223.59 225.516 223.408 225.554 223.221 225.528C222.774 225.464 222.463 225.05 222.527 224.604C222.548 224.447 223.014 220.69 219.318 219.682C214.722 218.43 214.445 214.668 214.941 212.854C215.06 212.42 215.51 212.163 215.946 212.282C216.38 212.4 216.637 212.847 216.52 213.281C216.422 213.658 215.671 216.995 219.749 218.107C223.831 219.219 224.41 222.994 224.147 224.835C224.109 225.094 223.954 225.308 223.742 225.429Z" fill="#BBBBBB"/>
<path d="M239.597 227.673C239.429 227.769 239.227 227.806 239.023 227.763C238.581 227.67 238.298 227.237 238.391 226.796C238.424 226.632 239.18 222.72 235.528 221.725C233.773 221.246 232.532 220.347 231.84 219.05C230.746 217 231.488 214.743 231.52 214.648C231.665 214.222 232.129 213.992 232.556 214.136C232.984 214.279 233.213 214.741 233.071 215.168C233.059 215.206 232.529 216.882 233.289 218.293C233.762 219.171 234.66 219.795 235.958 220.149C240.078 221.272 240.398 225.209 239.991 227.133C239.942 227.37 239.793 227.562 239.597 227.673Z" fill="#BBBBBB"/>
<path d="M231.601 76.2982C232.035 76.0008 232.425 75.7282 232.765 75.4862C232.453 75.6971 232.059 75.9731 231.601 76.2982Z" fill="#57AF12"/>
<path d="M232.312 86.6188C232.327 84.9662 231.932 80.3341 227.054 80.2613C226.695 80.2559 226.397 80.5384 226.392 80.8973C226.378 82.0803 226.6 84.6082 228.672 85.3891C230.352 86.0223 231.332 86.5592 231.838 86.8794C232.043 87.0099 232.31 86.862 232.312 86.6188Z" fill="#B2E26D"/>
<path d="M230.08 90.6685C230.09 89.5253 229.94 87.2154 228.726 85.4098C228.708 85.403 228.691 85.3961 228.672 85.3892C227.804 85.0617 227.261 84.427 226.924 83.7134C226.077 83.227 225.007 82.9192 223.654 82.899C223.215 82.8925 222.85 83.2377 222.845 83.6763C222.827 85.122 223.099 88.2114 225.631 89.1659C227.684 89.9398 228.881 90.5959 229.499 90.9872C229.751 91.1464 230.077 90.9659 230.08 90.6685Z" fill="#87D147"/>
<path d="M226.552 94.1563C226.561 93.0466 226.428 90.897 225.413 89.0755C224.402 88.6218 223.782 87.8094 223.406 86.9202C222.483 86.3408 221.294 85.9689 219.762 85.9461C219.297 85.9392 218.912 86.304 218.906 86.7676C218.888 88.2952 219.175 91.5598 221.851 92.5684C224.02 93.3862 225.285 94.0795 225.938 94.4929C226.204 94.6612 226.549 94.4704 226.552 94.1563Z" fill="#57AF12"/>
<path d="M224.995 79.8091C226.73 75.2568 222.564 73.1792 221.02 72.5821C220.793 72.4941 220.557 72.6873 220.602 72.9263C220.713 73.5139 220.851 74.6207 220.82 76.4133C220.781 78.6238 223.052 79.7645 224.158 80.1883C224.494 80.3171 224.867 80.1446 224.995 79.8091Z" fill="#B2E26D"/>
<path d="M221.283 81.9888C221.764 80.7262 221.873 79.6199 221.733 78.6547C221.194 78.078 220.804 77.34 220.82 76.4134C220.82 76.3938 220.82 76.3754 220.82 76.356C219.588 74.563 217.494 73.5698 216.426 73.1568C216.148 73.0494 215.86 73.2854 215.915 73.5776C216.051 74.2958 216.219 75.6485 216.181 77.8391C216.134 80.5406 218.909 81.9346 220.261 82.4525C220.671 82.6096 221.127 82.3989 221.283 81.9888Z" fill="#87D147"/>
<path d="M217.009 84.4739C217.554 83.044 217.648 81.8037 217.449 80.7335C216.761 80.0553 216.234 79.1803 216.185 78.075C214.865 76.46 212.913 75.5418 211.877 75.1409C211.583 75.0273 211.278 75.2767 211.337 75.5854C211.48 76.3443 211.658 77.7737 211.618 80.0885C211.568 82.9432 214.5 84.4163 215.929 84.9636C216.362 85.1299 216.844 84.9072 217.009 84.4739Z" fill="#57AF12"/>
<path d="M234.796 74.2689C234.831 74.0267 234.861 73.7581 234.873 73.4814C234.949 71.8083 233.508 70.4609 231.837 70.6082C231.655 70.6243 231.577 70.8473 231.711 70.9718C232.363 71.5812 233.66 73.0069 233.775 74.7702C234.15 74.6113 234.489 74.4426 234.796 74.2689Z" fill="#B2E26D"/>
<path d="M237.331 77.1382C237.663 75.6768 236.64 74.2384 235.145 74.1041C235.024 74.0932 234.904 74.0864 234.786 74.0822L233.69 74.8877C235.336 75.1315 236.513 76.5304 236.993 77.2062C237.087 77.3394 237.295 77.2974 237.331 77.1382Z" fill="#87D147"/>
<path d="M235.735 79.2689C236.243 77.6728 235.239 75.9749 233.587 75.6846C233.252 75.6256 232.921 75.5937 232.637 75.5767C232.328 75.7957 231.981 76.0372 231.601 76.2984C231.575 76.3164 231.551 76.334 231.525 76.3525C233.544 76.6216 234.85 78.4623 235.352 79.3128C235.445 79.47 235.68 79.4428 235.735 79.2689Z" fill="#B2E26D"/>
<path d="M233.483 82.3651C234.256 80.6371 233.345 78.6032 231.527 78.0681C230.718 77.8301 229.918 77.7399 229.639 77.714C229.31 77.954 228.969 78.2042 228.617 78.4626C231.173 78.7801 232.558 81.2722 233.048 82.3659C233.132 82.5542 233.399 82.5535 233.483 82.3651Z" fill="#87D147"/>
<path d="M231.604 74.6275C231.678 72.7363 230.039 71.2242 228.152 71.4029C227.946 71.4225 227.86 71.675 228.012 71.8148C228.883 72.6181 230.773 74.6867 230.317 77.1684C230.681 76.9248 231.027 76.6912 231.35 76.4703C231.422 76.1571 231.574 75.4169 231.604 74.6275Z" fill="#87D147"/>
<path d="M228.645 76.1585C228.734 73.8763 226.756 72.0515 224.479 72.2673C224.231 72.2909 224.127 72.5955 224.31 72.7644C225.37 73.7412 227.677 76.2686 227.078 79.294C227.5 79.0223 227.913 78.7547 228.312 78.4936C228.38 78.2169 228.604 77.2258 228.645 76.1585Z" fill="#B2E26D"/>
<path d="M218.008 86.8202C220.048 85.156 232.009 76.1468 237.398 72.3143C231.722 76.21 220.583 83.2794 213.986 86.6293C214.397 86.8664 214.767 87.189 215.062 87.5991C215.379 88.0399 215.576 88.5298 215.661 89.0307C216.318 88.3244 217.107 87.555 218.008 86.8202Z" fill="#57AF12"/>
<path d="M236.753 71.6886C236.496 71.3315 235.998 71.2497 235.64 71.5061C235.282 71.7625 235.201 72.2597 235.458 72.6168C235.715 72.9739 236.213 73.0558 236.57 72.7994C236.928 72.5431 237.009 72.0457 236.753 71.6886Z" fill="#B2E26D"/>
<path d="M236.693 73.7887C236.95 74.1459 237.448 74.2276 237.806 73.9713C238.163 73.7151 238.245 73.2178 237.988 72.8607C237.731 72.5036 237.233 72.4219 236.876 72.6781C236.518 72.9344 236.436 73.4316 236.693 73.7887Z" fill="#B2E26D"/>
<path d="M238.463 73.7937C238.72 74.1509 239.218 74.2326 239.576 73.9763C239.933 73.72 240.015 73.2227 239.758 72.8655C239.501 72.5083 239.003 72.4265 238.646 72.6828C238.288 72.9392 238.206 73.4365 238.463 73.7937Z" fill="#B2E26D"/>
<path d="M237.254 72.1128C237.511 72.47 238.009 72.5517 238.367 72.2954C238.724 72.0391 238.806 71.5418 238.549 71.1846C238.292 70.8274 237.794 70.7456 237.437 71.0019C237.079 71.2583 236.997 71.7556 237.254 72.1128Z" fill="#B2E26D"/>
<path d="M55.9349 171.551C55.1255 171.213 54.3891 170.913 53.7424 170.657C54.3203 170.902 55.0648 171.205 55.9349 171.551Z" fill="#57AF12"/>
<path d="M69.7793 161.225C67.4462 162.699 61.3006 167.439 65.6081 174.329C65.9255 174.837 66.5918 174.999 67.0996 174.681C68.7732 173.631 72.1205 171.035 71.3437 167.43C70.7139 164.507 70.5822 162.652 70.5745 161.654C70.5716 161.249 70.1227 161.009 69.7793 161.225Z" fill="#B2E26D"/>
<path d="M77.4822 160.688C75.8682 161.708 72.7618 164.006 71.3242 167.337C71.3311 167.368 71.337 167.399 71.3439 167.43C71.6693 168.942 71.269 170.275 70.5723 171.392C70.655 173.016 71.1901 174.792 72.3848 176.703C72.7729 177.324 73.5871 177.521 74.2075 177.132C76.2528 175.85 80.3435 172.676 79.3945 168.271C78.6248 164.699 78.4639 162.431 78.4544 161.212C78.4504 160.717 77.902 160.423 77.4822 160.688Z" fill="#87D147"/>
<path d="M85.5674 162.472C84.0008 163.461 81.104 165.591 79.4648 168.658C79.7416 170.482 79.1613 172.084 78.2539 173.415C78.2748 175.23 78.8276 177.229 80.1806 179.394C80.5907 180.05 81.4511 180.259 82.1068 179.848C84.2679 178.492 88.5907 175.139 87.5878 170.484C86.7746 166.709 86.6046 164.313 86.5943 163.025C86.5904 162.501 86.0109 162.191 85.5674 162.472Z" fill="#57AF12"/>
<path d="M66.8347 177.62C58.8762 179.308 59.7253 187.014 60.2827 189.714C60.3647 190.111 60.8494 190.267 61.1439 189.988C61.8683 189.301 63.2974 188.107 65.8421 186.531C68.98 184.586 68.5286 180.378 68.1235 178.447C68.0007 177.861 67.4213 177.495 66.8347 177.62Z" fill="#B2E26D"/>
<path d="M73.2496 180.842C71.0423 181.31 69.3909 182.158 68.1625 183.226C67.8408 184.503 67.1576 185.716 65.8421 186.531C65.8143 186.548 65.7885 186.565 65.761 186.582C64.3581 189.927 64.8571 193.755 65.2426 195.622C65.3429 196.108 65.9351 196.298 66.2953 195.957C67.1806 195.118 68.9273 193.659 72.037 191.732C75.8721 189.356 75.3202 184.214 74.825 181.854C74.6746 181.138 73.9665 180.69 73.2496 180.842Z" fill="#87D147"/>
<path d="M80.6022 184.576C78.1023 185.106 76.277 186.097 74.954 187.342C74.6241 188.918 73.8725 190.447 72.365 191.514C71.2914 194.821 71.7667 198.382 72.1407 200.194C72.2466 200.707 72.8725 200.909 73.253 200.548C74.1885 199.661 76.0342 198.12 79.3202 196.084C83.3727 193.573 82.7897 188.139 82.2665 185.645C82.1079 184.888 81.3597 184.415 80.6022 184.576Z" fill="#57AF12"/>
<path d="M50.1975 168.915C49.8259 169.085 49.4222 169.286 49.0224 169.519C46.6051 170.925 46.0169 174.16 47.7341 176.365C47.9213 176.605 48.3044 176.512 48.3587 176.213C48.6241 174.749 49.4533 171.646 51.8245 169.891C51.2622 169.509 50.7187 169.187 50.1975 168.915Z" fill="#B2E26D"/>
<path d="M51.9338 162.775C49.5821 163.631 48.4879 166.363 49.6508 168.576C49.7452 168.756 49.8441 168.93 49.9441 169.098L52.0664 169.904C50.9206 167.381 51.8203 164.469 52.3348 163.186C52.4363 162.933 52.1899 162.681 51.9338 162.775Z" fill="#87D147"/>
<path d="M56.3674 163.081C53.6676 163.814 52.1914 166.753 53.2773 169.326C53.498 169.849 53.7521 170.341 53.985 170.754C54.5719 170.988 55.2241 171.254 55.9348 171.551C55.9831 171.57 56.0302 171.589 56.0795 171.608C54.6322 168.541 56.0353 165.049 56.7753 163.578C56.912 163.305 56.6615 163.001 56.3674 163.081Z" fill="#B2E26D"/>
<path d="M62.7491 163.432C59.6246 163.913 57.5932 167.026 58.4858 170.054C58.8828 171.401 59.4791 172.601 59.6949 173.015C60.3293 173.258 60.9895 173.51 61.6701 173.769C59.8049 169.905 62.0511 165.714 63.1439 164.041C63.3322 163.753 63.0896 163.38 62.7491 163.432Z" fill="#87D147"/>
<path d="M53.5863 173.056C50.8651 174.663 50.2241 178.324 52.1811 180.802C52.3944 181.072 52.8268 180.965 52.8858 180.626C53.2254 178.68 54.4207 174.166 58.3165 172.56C57.6459 172.272 57.0056 171.999 56.4029 171.746C55.8984 171.929 54.7221 172.386 53.5863 173.056Z" fill="#87D147"/>
<path d="M58.4101 175.812C55.1263 177.752 54.3527 182.168 56.7143 185.16C56.9718 185.485 57.4932 185.355 57.5648 184.946C57.9779 182.581 59.4404 177.068 64.2283 175.171C63.4658 174.826 62.717 174.491 61.989 174.167C61.54 174.324 59.9458 174.905 58.4101 175.812Z" fill="#B2E26D"/>
<path d="M82.9931 181.058C78.8131 179.708 55.3532 171.117 45.102 167.042C55.7016 171.462 75.695 180.656 86.3612 186.858C86.3226 186.069 86.4409 185.259 86.7499 184.476C87.0821 183.634 87.5915 182.915 88.2178 182.343C86.6322 182.062 84.8388 181.654 82.9931 181.058Z" fill="#57AF12"/>
<path d="M44.8065 168.511C44.5374 169.193 44.873 169.963 45.5564 170.232C46.2398 170.501 47.0116 170.165 47.2806 169.483C47.5497 168.801 47.2142 168.031 46.5308 167.762C45.8474 167.493 45.0756 167.829 44.8065 168.511Z" fill="#B2E26D"/>
<path d="M47.8085 166.695C48.0775 166.013 47.7419 165.243 47.0588 164.974C46.3757 164.706 45.6039 165.041 45.3348 165.723C45.0658 166.405 45.4014 167.175 46.0845 167.444C46.7676 167.712 47.5394 167.377 47.8085 166.695Z" fill="#B2E26D"/>
<path d="M46.2158 164.215C46.4849 163.533 46.1492 162.762 45.466 162.493C44.7827 162.225 44.0107 162.56 43.7416 163.242C43.4725 163.924 43.8082 164.695 44.4915 164.963C45.1747 165.232 45.9467 164.897 46.2158 164.215Z" fill="#B2E26D"/>
<path d="M44.9492 167.425C45.2183 166.743 44.8826 165.973 44.1994 165.704C43.5161 165.435 42.7441 165.77 42.475 166.452C42.2059 167.135 42.5416 167.905 43.2249 168.174C43.9081 168.443 44.6801 168.107 44.9492 167.425Z" fill="#B2E26D"/>
<path d="M162.361 223.033L146.485 207.184C145.122 205.824 143.309 205.074 141.382 205.074C141.059 205.074 140.724 205.103 140.373 205.159L134.103 198.899C138.806 192.853 141.382 185.377 141.382 177.699C141.382 158.632 125.843 143.119 106.745 143.119C87.6474 143.119 72.1084 158.632 72.1084 177.699C72.1084 196.765 87.6474 212.279 106.745 212.279C114.436 212.279 121.925 209.707 127.981 205.011L134.26 211.28C133.947 213.506 134.683 215.778 136.28 217.373L152.156 233.222C153.518 234.583 155.331 235.332 157.257 235.332C159.184 235.332 160.997 234.583 162.361 233.222C165.173 230.413 165.173 225.842 162.361 223.033Z" fill="#3F342F"/>
<path d="M106.745 212.279C125.875 212.279 141.382 196.797 141.382 177.699C141.382 158.601 125.875 143.119 106.745 143.119C87.6159 143.119 72.1084 158.601 72.1084 177.699C72.1084 196.797 87.6159 212.279 106.745 212.279Z" fill="#D69553"/>
<path d="M106.745 206.515C122.687 206.515 135.61 193.614 135.61 177.699C135.61 161.784 122.687 148.882 106.745 148.882C90.8042 148.882 77.8813 161.784 77.8813 177.699C77.8813 193.614 90.8042 206.515 106.745 206.515Z" fill="#F0CEAB"/>
<path d="M162.361 223.033L146.485 207.184C145.122 205.824 143.309 205.074 141.382 205.074C139.456 205.074 137.643 205.824 136.279 207.184C133.466 209.993 133.466 214.562 136.279 217.372L152.154 233.221C153.518 234.583 155.331 235.332 157.257 235.332C159.184 235.332 160.997 234.583 162.361 233.222C165.173 230.413 165.173 225.843 162.361 223.033Z" fill="#F0CEAB"/>
<path d="M92.313 186.344C97.0954 186.344 100.972 182.473 100.972 177.699C100.972 172.924 97.0954 169.054 92.313 169.054C87.5307 169.054 83.6538 172.924 83.6538 177.699C83.6538 182.473 87.5307 186.344 92.313 186.344Z" fill="#735E50"/>
<path d="M88.4091 180.396C87.142 180.396 85.755 179.992 84.231 178.851C83.5931 178.374 83.4647 177.471 83.9424 176.834C84.4201 176.2 85.3235 176.069 85.9629 176.546C88.1363 178.173 89.5406 177.472 91.6679 176.409C93.9524 175.268 96.7941 173.849 100.395 176.546C101.033 177.023 101.161 177.926 100.684 178.563C100.206 179.199 99.3038 179.331 98.6631 178.851C96.491 177.226 95.0868 177.928 92.9581 178.988C91.6404 179.645 90.1366 180.396 88.4091 180.396Z" fill="#3F342F"/>
<path d="M121.177 186.344C125.96 186.344 129.837 182.473 129.837 177.699C129.837 172.924 125.96 169.054 121.177 169.054C116.395 169.054 112.518 172.924 112.518 177.699C112.518 182.473 116.395 186.344 121.177 186.344Z" fill="#735E50"/>
<path d="M117.273 180.396C116.006 180.396 114.619 179.992 113.095 178.851C112.457 178.374 112.329 177.471 112.807 176.834C113.284 176.2 114.188 176.069 114.827 176.546C117.001 178.173 118.405 177.472 120.532 176.409C122.817 175.268 125.658 173.849 129.259 176.546C129.897 177.023 130.026 177.926 129.548 178.563C129.07 179.199 128.167 179.331 127.527 178.851C125.357 177.226 123.951 177.928 121.822 178.988C120.505 179.645 119.001 180.396 117.273 180.396Z" fill="#3F342F"/>
<path d="M106.745 171.935C111.528 171.935 115.404 168.065 115.404 163.29C115.404 158.516 111.528 154.646 106.745 154.646C101.963 154.646 98.0859 158.516 98.0859 163.29C98.0859 168.065 101.963 171.935 106.745 171.935Z" fill="#735E50"/>
<path d="M106.744 171.935C106.444 171.935 106.139 171.842 105.879 171.647C105.241 171.17 105.113 170.267 105.591 169.63C107.22 167.462 106.517 166.058 105.454 163.935C104.311 161.654 102.89 158.815 105.591 155.222C106.068 154.586 106.972 154.457 107.611 154.934C108.249 155.411 108.377 156.314 107.9 156.951C106.27 159.119 106.973 160.523 108.037 162.646C109.18 164.927 110.6 167.766 107.9 171.359C107.617 171.737 107.183 171.935 106.744 171.935Z" fill="#3F342F"/>
<path d="M106.745 200.752C111.528 200.752 115.404 196.881 115.404 192.107C115.404 187.332 111.528 183.462 106.745 183.462C101.963 183.462 98.0859 187.332 98.0859 192.107C98.0859 196.881 101.963 200.752 106.745 200.752Z" fill="#735E50"/>
<path d="M106.744 200.752C106.444 200.752 106.139 200.658 105.879 200.464C105.241 199.987 105.113 199.083 105.591 198.447C107.22 196.278 106.517 194.875 105.454 192.751C104.311 190.47 102.89 187.632 105.591 184.038C106.068 183.404 106.972 183.273 107.611 183.75C108.249 184.227 108.377 185.13 107.9 185.767C106.27 187.936 106.973 189.339 108.037 191.463C109.18 193.744 110.6 196.582 107.9 200.176C107.617 200.553 107.183 200.752 106.744 200.752Z" fill="#3F342F"/>
<path d="M157.258 229.568C156.888 229.568 156.519 229.427 156.237 229.146L152.629 225.544C152.065 224.981 152.065 224.07 152.629 223.507C153.194 222.943 154.106 222.943 154.67 223.507L158.278 227.109C158.842 227.672 158.842 228.583 158.278 229.146C157.997 229.427 157.627 229.568 157.258 229.568Z" fill="#3F342F"/>
<path d="M253.856 98.5926C249.059 87.7732 236.339 82.8669 225.502 87.6559C224.653 88.0307 223.82 88.4676 223.008 88.9638L222.273 88.2724C221.84 87.8678 221.561 87.6049 221.467 87.5111C221.445 87.4901 221.422 87.475 221.401 87.4533C221.066 87.7243 220.706 87.9698 220.297 88.1509L180.988 105.522C180.576 105.704 180.154 105.804 179.729 105.869C179.73 105.899 179.726 105.926 179.728 105.956C179.736 106.091 179.741 106.475 179.75 107.069C180.104 129.042 182.076 144.68 185.45 152.289C186.577 154.831 187.988 157.23 189.663 159.452L185.772 161.172C184.937 161.541 183.96 161.164 183.591 160.331L172.883 136.18C170.301 130.356 163.45 127.713 157.615 130.291C155.115 131.396 153.981 134.327 155.087 136.824C156.194 139.32 159.13 140.453 161.631 139.348C162.465 138.979 163.443 139.356 163.812 140.189L175.858 167.358C178.44 173.183 185.291 175.825 191.126 173.247L200.579 169.069C205.589 171.931 211.279 173.578 217.089 173.841C217.852 173.876 218.625 173.731 219.325 173.422L244.868 162.134C245.568 161.824 246.195 161.351 246.679 160.767C255.559 150.07 257.588 135.557 251.973 122.892C251.676 122.221 251.322 121.517 250.906 120.758C255.944 114.521 257.119 105.952 253.856 98.5926ZM244.799 111.899C240.428 106.424 235.016 100.727 230.59 96.2993C236.168 94.468 242.359 97.1297 244.785 102.601C246.12 105.614 246.102 108.956 244.799 111.899Z" fill="#F0CEAB"/>
<path d="M216.281 79.0944L213.106 80.4975C207.293 75.3496 199.11 74.0466 191.942 77.2142C184.774 80.3817 180.239 87.3049 180.147 95.0624L176.972 96.4655C174.471 97.5705 173.337 100.501 174.444 102.998C175.551 105.495 178.487 106.627 180.987 105.522L220.297 88.1508C222.797 87.0458 223.932 84.1148 222.825 81.6183C221.718 79.1217 218.782 77.9894 216.281 79.0944Z" fill="#D69553"/>
<path d="M222.276 88.2762C221.841 87.8708 221.562 87.6079 221.465 87.5117C221.443 87.4907 221.42 87.4756 221.4 87.454C221.066 87.7243 220.706 87.9698 220.296 88.1509L180.987 105.522C180.576 105.704 180.154 105.804 179.729 105.869C179.73 105.899 179.726 105.926 179.728 105.956C179.735 106.091 179.741 106.475 179.749 107.069C180.104 129.042 182.076 144.68 185.449 152.289C191.065 164.954 203.19 173.212 217.089 173.841C217.851 173.876 218.624 173.731 219.324 173.422L244.868 162.134C245.568 161.824 246.195 161.351 246.679 160.767C255.559 150.07 257.588 135.557 251.972 122.892C248.599 115.283 238.33 103.311 222.276 88.2762Z" fill="#D69553"/>
<path d="M192.289 69.8403L186.242 72.5128C185.406 72.8823 185.029 73.8556 185.399 74.6903C185.769 75.525 186.744 75.9011 187.58 75.5316L189.092 74.8635L190.46 77.9487C190.942 77.689 191.433 77.4393 191.943 77.2141C192.452 76.989 192.968 76.7937 193.484 76.6124L192.116 73.5272L193.628 72.8591C194.464 72.4896 194.841 71.5163 194.471 70.6816C194.1 69.8469 193.126 69.4709 192.289 69.8403V69.8403Z" fill="#FFB797"/>
<path d="M216.281 79.0946L176.972 96.4656C174.472 97.5707 173.337 100.502 174.444 102.998C175.551 105.495 178.487 106.627 180.988 105.522L220.297 88.151C222.797 87.0459 223.932 84.115 222.825 81.6184C221.718 79.1219 218.782 77.9895 216.281 79.0946Z" fill="#735E50"/>
<path d="M58.0526 101.992C58.1593 101.864 58.3406 101.8 58.5966 101.8C58.874 101.8 59.098 101.896 59.2686 102.088C59.4393 102.28 59.5246 102.643 59.5246 103.176C59.5246 103.709 59.3433 104.424 58.9806 105.32C58.6393 106.195 58.1273 107.08 57.4446 107.976C56.762 108.851 55.8126 109.576 54.5966 110.152C53.402 110.728 52.058 111.016 50.5646 111.016C47.1086 111.016 44.3353 109.907 42.2446 107.688C40.154 105.448 39.1086 102.269 39.1086 98.1518C39.1086 94.0132 40.09 90.9092 42.0526 88.8398C44.0366 86.7492 46.6286 85.7038 49.8286 85.7038C51.898 85.7038 53.5193 86.2372 54.6926 87.3038C55.866 88.3705 56.4526 89.5545 56.4526 90.8558C56.4526 91.3892 56.2926 91.8158 55.9726 92.1358C55.6526 92.4558 55.3326 92.6158 55.0126 92.6158C54.4153 92.6158 54.01 92.4878 53.7966 92.2318C53.9246 91.9118 53.9886 91.5172 53.9886 91.0478C53.9886 89.8958 53.6153 88.9785 52.8686 88.2958C52.1433 87.6132 51.0766 87.2718 49.6686 87.2718C47.5566 87.2718 45.754 88.2852 44.2606 90.3118C42.7886 92.3172 42.0526 94.9838 42.0526 98.3118C42.0526 101.64 42.874 104.328 44.5166 106.376C46.1593 108.403 48.1326 109.416 50.4366 109.416C52.7406 109.416 54.586 108.723 55.9726 107.336C57.3593 105.928 58.0526 104.147 58.0526 101.992ZM64.4904 94.8238C66.389 94.8238 67.9357 95.4532 69.1304 96.7118C70.325 97.9705 70.9224 99.6878 70.9224 101.864C70.9224 104.019 70.357 105.811 69.2264 107.24C68.117 108.669 66.6237 109.384 64.7464 109.384C62.869 109.384 61.301 108.744 60.0424 107.464C58.805 106.163 58.1864 104.371 58.1864 102.088C58.1864 99.7838 58.7624 98.0025 59.9144 96.7438C61.0877 95.4638 62.613 94.8238 64.4904 94.8238ZM64.5224 96.0718C63.9464 96.0718 63.445 96.2212 63.0184 96.5198C62.613 96.7972 62.4104 97.2025 62.4104 97.7358C62.4104 99.1012 62.9437 100.413 64.0104 101.672C65.077 102.909 66.3464 103.731 67.8184 104.136C67.861 103.325 67.8824 102.632 67.8824 102.056C67.8824 99.8372 67.6477 98.2905 67.1784 97.4158C66.709 96.5198 65.8237 96.0718 64.5224 96.0718ZM61.2264 102.056C61.2264 104.232 61.493 105.789 62.0264 106.728C62.581 107.667 63.477 108.136 64.7144 108.136C65.5677 108.136 66.2184 107.923 66.6664 107.496C67.1357 107.048 67.4557 106.333 67.6264 105.352C66.2397 105.053 64.9597 104.424 63.7864 103.464C62.6344 102.504 61.7917 101.437 61.2584 100.264C61.237 100.627 61.2264 101.224 61.2264 102.056ZM80.8321 96.3918H76.0001V121C75.7868 121.299 75.4135 121.448 74.8801 121.448C74.3468 121.448 73.9201 121.277 73.6001 120.936C73.2801 120.616 73.1201 120.136 73.1201 119.496V91.3998C73.1201 88.6905 73.4081 86.6958 73.9841 85.4158C74.5601 84.1358 75.5841 83.4958 77.0561 83.4958C79.1681 83.4958 80.2241 84.9252 80.2241 87.7838C80.2241 91.0692 79.1148 93.5652 76.8961 95.2718H79.7441C80.1921 95.2718 80.4801 95.3572 80.6081 95.5278C80.7575 95.6985 80.8321 95.9865 80.8321 96.3918ZM78.8481 87.8158C78.8481 85.7678 78.3361 84.7438 77.3121 84.7438C77.0348 84.7438 76.8215 84.8398 76.6721 85.0318C76.5228 85.2025 76.4055 85.6612 76.3201 86.4078C76.1495 87.6878 76.0428 90.4185 76.0001 94.5998C77.8988 93.2132 78.8481 90.9518 78.8481 87.8158ZM89.8009 96.3918H84.9689V121C84.7555 121.299 84.3822 121.448 83.8489 121.448C83.3155 121.448 82.8889 121.277 82.5689 120.936C82.2489 120.616 82.0889 120.136 82.0889 119.496V91.3998C82.0889 88.6905 82.3769 86.6958 82.9529 85.4158C83.5289 84.1358 84.5529 83.4958 86.0249 83.4958C88.1369 83.4958 89.1929 84.9252 89.1929 87.7838C89.1929 91.0692 88.0835 93.5652 85.8649 95.2718H88.7129C89.1609 95.2718 89.4489 95.3572 89.5769 95.5278C89.7262 95.6985 89.8009 95.9865 89.8009 96.3918ZM87.8169 87.8158C87.8169 85.7678 87.3049 84.7438 86.2809 84.7438C86.0035 84.7438 85.7902 84.8398 85.6409 85.0318C85.4915 85.2025 85.3742 85.6612 85.2889 86.4078C85.1182 87.6878 85.0115 90.4185 84.9689 94.5998C86.8675 93.2132 87.8169 90.9518 87.8169 87.8158ZM104.498 102.088C104.946 102.088 105.17 102.429 105.17 103.112C105.17 104.691 104.615 106.131 103.506 107.432C102.418 108.733 100.754 109.384 98.5136 109.384C96.2736 109.384 94.471 108.787 93.1056 107.592C91.7616 106.376 91.0896 104.605 91.0896 102.28C91.0896 99.9332 91.687 98.1092 92.8816 96.8078C94.0763 95.4852 95.6016 94.8238 97.4576 94.8238C98.8016 94.8238 99.783 95.1865 100.402 95.9118C101.02 96.6158 101.33 97.4585 101.33 98.4398C101.33 100.04 100.658 101.373 99.3136 102.44C97.991 103.485 96.295 104.008 94.2256 104.008C94.4176 105.373 94.9083 106.408 95.6976 107.112C96.5083 107.795 97.5643 108.136 98.8656 108.136C100.188 108.136 101.372 107.645 102.418 106.664C103.484 105.661 104.018 104.2 104.018 102.28C104.039 102.152 104.199 102.088 104.498 102.088ZM94.1296 102.536V102.824C95.4523 102.653 96.5936 102.237 97.5536 101.576C98.535 100.915 99.0256 99.9332 99.0256 98.6318C99.0256 97.7998 98.8443 97.1705 98.4816 96.7438C98.119 96.2958 97.607 96.0718 96.9456 96.0718C95.943 96.0718 95.2176 96.5625 94.7696 97.5438C94.343 98.5252 94.1296 100.189 94.1296 102.536ZM117.529 102.088C117.977 102.088 118.201 102.429 118.201 103.112C118.201 104.691 117.646 106.131 116.537 107.432C115.449 108.733 113.785 109.384 111.545 109.384C109.305 109.384 107.502 108.787 106.137 107.592C104.793 106.376 104.121 104.605 104.121 102.28C104.121 99.9332 104.718 98.1092 105.913 96.8078C107.108 95.4852 108.633 94.8238 110.489 94.8238C111.833 94.8238 112.814 95.1865 113.433 95.9118C114.052 96.6158 114.361 97.4585 114.361 98.4398C114.361 100.04 113.689 101.373 112.345 102.44C111.022 103.485 109.326 104.008 107.257 104.008C107.449 105.373 107.94 106.408 108.729 107.112C109.54 107.795 110.596 108.136 111.897 108.136C113.22 108.136 114.404 107.645 115.449 106.664C116.516 105.661 117.049 104.2 117.049 102.28C117.07 102.152 117.23 102.088 117.529 102.088ZM107.161 102.536V102.824C108.484 102.653 109.625 102.237 110.585 101.576C111.566 100.915 112.057 99.9332 112.057 98.6318C112.057 97.7998 111.876 97.1705 111.513 96.7438C111.15 96.2958 110.638 96.0718 109.977 96.0718C108.974 96.0718 108.249 96.5625 107.801 97.5438C107.374 98.5252 107.161 100.189 107.161 102.536Z" fill="#75462E"/>
<defs>
<linearGradient id="paint0_linear_37_11694" x1="136.349" y1="-161.72" x2="130.108" y2="251.185" gradientUnits="userSpaceOnUse">
<stop stop-color="#EDEDED"/>
<stop offset="1" stop-color="#CECECD" stop-opacity="0"/>
</linearGradient>
</defs>
</svg>
