<svg width="258" height="266" viewBox="0 0 258 266" fill="none" xmlns="http://www.w3.org/2000/svg">
<path d="M132.482 154.058H144.044C145.639 154.058 146.934 152.766 146.934 151.168V142.496H155.606C163.575 142.496 170.058 136.013 170.058 128.044V116.481H184.511C188.554 116.481 192.026 113.733 192.951 109.796L204.513 60.6573C205.605 56.0036 202.712 51.3267 198.058 50.2312C197.405 50.078 196.734 50 196.067 50C192.026 50 188.557 52.7489 187.629 56.6857L177.643 99.1385H170.058V93.3575C170.058 85.3884 163.575 78.905 155.606 78.905H94.905C86.9908 78.905 80.5421 85.2988 80.4525 93.1927L66.0173 226.008C66.0058 226.112 66 226.216 66 226.321C66 231.101 69.8906 234.992 74.6715 234.992H193.182C197.963 234.992 201.854 231.101 201.854 226.321C201.854 215.322 194 200.306 164.277 200.306H106.467V142.496H129.591V151.168C129.591 152.766 130.886 154.058 132.482 154.058Z" fill="#D69553"/>
<path d="M170.058 168.511H164.277C163.257 168.511 162.294 168.719 161.387 169.045V168.511C161.387 166.912 160.092 165.62 158.496 165.62H118.029C116.434 165.62 115.139 166.912 115.139 168.511V185.854C115.139 193.823 121.622 200.306 129.591 200.306H146.934C153.186 200.306 158.473 196.291 160.485 190.724C161.635 191.288 162.913 191.635 164.277 191.635H170.058C174.839 191.635 178.73 187.744 178.73 182.963V177.182C178.73 172.401 174.842 168.511 170.058 168.511ZM172.949 182.963C172.949 184.559 171.651 185.854 170.058 185.854H164.277C162.685 185.854 161.387 184.559 161.387 182.963V177.182C161.387 175.587 162.685 174.292 164.277 174.292H170.058C171.651 174.292 172.949 175.587 172.949 177.182V182.963Z" fill="#735E50"/>
<path d="M201.853 139.605C195.957 139.605 174.645 142.242 172.232 142.542C169.347 142.904 167.167 145.369 167.167 148.277C167.167 151.185 169.344 153.65 172.235 154.012C174.648 154.315 195.96 156.948 201.853 156.948C206.634 156.948 210.525 153.058 210.525 148.277C210.525 143.496 206.637 139.605 201.853 139.605Z" fill="#F0CEAB"/>
<path d="M155.605 78.905H109.357V107.81C109.357 115.779 115.841 122.263 123.81 122.263H170.058V93.3575C170.058 85.3913 163.575 78.905 155.605 78.905Z" fill="#735E50"/>
<path d="M198.058 50.2341C197.405 50.078 196.735 50 196.067 50C192.026 50 188.557 52.7489 187.629 56.6857L177.643 99.1385H170.058V116.482H184.511C188.554 116.482 192.026 113.733 192.951 109.796L204.513 60.6573C205.608 56.0036 202.712 51.3267 198.058 50.2341Z" fill="#F0CEAB"/>
<path d="M129.591 142.496V151.168C129.591 152.766 130.886 154.058 132.481 154.058H144.043C145.639 154.058 146.934 152.766 146.934 151.168V142.496H129.591Z" fill="#F0CEAB"/>
<path d="M135.372 154.058V156.948C135.372 158.547 136.667 159.839 138.263 159.839C139.858 159.839 141.153 158.547 141.153 156.948V154.058H135.372Z" fill="#632F18"/>
<path d="M167.168 148.277C167.168 147.228 167.46 146.242 167.954 145.386H146.934V151.167H167.954C167.46 150.315 167.168 149.329 167.168 148.277Z" fill="#632F18"/>
<path d="M66.6128 220.54L66.0173 226.008C66.0058 226.112 66 226.216 66 226.321C66 231.101 69.8906 234.992 74.6715 234.992H193.182C197.963 234.992 201.854 231.101 201.854 226.321C201.854 224.54 201.599 222.546 201.174 220.54H66.6128Z" fill="#632F18"/>
<path d="M223.578 225.992C226.723 224.199 227.456 219.571 225.215 215.655C222.975 211.738 218.61 210.017 215.465 211.81C212.321 213.603 211.588 218.231 213.828 222.147C216.068 226.064 220.434 227.785 223.578 225.992Z" fill="#5F381E"/>
<path d="M239.799 228.028C242.937 226.239 243.665 221.613 241.425 217.697C239.185 213.781 234.824 212.056 231.686 213.846C228.548 215.635 227.82 220.26 230.06 224.177C232.301 228.093 236.661 229.817 239.799 228.028Z" fill="#5F381E"/>
<path d="M223.742 225.429C223.589 225.516 223.408 225.554 223.22 225.528C222.773 225.464 222.462 225.05 222.526 224.604C222.547 224.447 223.013 220.69 219.318 219.682C214.721 218.43 214.445 214.668 214.941 212.854C215.06 212.42 215.51 212.163 215.945 212.282C216.38 212.4 216.636 212.847 216.52 213.281C216.421 213.658 215.671 216.995 219.748 218.107C223.83 219.219 224.41 222.994 224.146 224.835C224.109 225.094 223.953 225.308 223.742 225.429Z" fill="#93583E"/>
<path d="M239.596 227.673C239.428 227.769 239.226 227.806 239.022 227.763C238.58 227.67 238.298 227.237 238.391 226.796C238.424 226.632 239.179 222.72 235.527 221.725C233.772 221.246 232.532 220.347 231.84 219.05C230.746 217 231.488 214.743 231.519 214.648C231.664 214.222 232.128 213.992 232.556 214.136C232.983 214.279 233.213 214.741 233.07 215.168C233.058 215.206 232.529 216.882 233.289 218.293C233.762 219.171 234.66 219.795 235.958 220.149C240.077 221.272 240.397 225.209 239.991 227.133C239.941 227.37 239.792 227.562 239.596 227.673Z" fill="#93583E"/>
<ellipse cx="136.349" cy="144.91" rx="121.061" ry="120.861" fill="url(#paint0_linear_37_25125)"/>
<path d="M12.1717 212.279C18.3748 212.279 23.4035 206.016 23.4035 198.29C23.4035 190.564 18.3748 184.302 12.1717 184.302C5.96858 184.302 0.939941 190.564 0.939941 198.29C0.939941 206.016 5.96858 212.279 12.1717 212.279Z" fill="#5F381E"/>
<path d="M34.5678 229.065C40.7585 229.065 45.7771 222.802 45.7771 215.076C45.7771 207.351 40.7585 201.088 34.5678 201.088C28.377 201.088 23.3584 207.351 23.3584 215.076C23.3584 222.802 28.377 229.065 34.5678 229.065Z" fill="#5F381E"/>
<path d="M12.8942 211.579C12.5937 211.579 12.291 211.483 12.0346 211.285C11.4237 210.81 11.3137 209.931 11.7887 209.322C11.9533 209.106 15.8437 203.912 11.2037 199.279C5.4323 193.518 8.22203 187.688 10.5031 185.411C11.0496 184.865 11.9379 184.865 12.4844 185.411C13.0301 185.955 13.0315 186.838 12.4893 187.384C12.0213 187.861 8.0651 192.189 13.185 197.301C18.3097 202.418 15.96 208.525 14.0012 211.039C13.7251 211.393 13.3118 211.579 12.8942 211.579Z" fill="#93583E"/>
<path d="M34.5678 228.366C34.2365 228.366 33.9044 228.25 33.6375 228.012C33.0588 227.499 33.0069 226.615 33.5212 226.037C33.7096 225.823 38.1625 220.643 33.5772 216.066C31.3732 213.865 30.2936 211.475 30.3678 208.959C30.4848 204.983 33.5086 202.255 33.6368 202.141C34.2148 201.629 35.101 201.68 35.6145 202.257C36.128 202.833 36.0769 203.715 35.5017 204.228C35.452 204.275 33.2374 206.319 33.1674 209.063C33.1239 210.769 33.9282 212.46 35.5578 214.088C40.7302 219.251 37.8564 225.378 35.6138 227.896C35.3385 228.207 34.9539 228.366 34.5678 228.366Z" fill="#93583E"/>
<path d="M106.833 50.5689C113.386 46.8325 114.914 37.1873 110.245 29.0257C105.576 20.8641 96.4786 17.2769 89.9255 21.0133C83.3724 24.7497 81.845 34.3949 86.5139 42.5565C91.1828 50.7181 100.28 54.3053 106.833 50.5689Z" fill="#5F381E"/>
<path d="M140.638 54.812C147.178 51.0831 148.694 41.4439 144.026 33.2823C139.357 25.1208 130.27 21.5274 123.73 25.2564C117.19 28.9854 115.673 38.6246 120.342 46.7861C125.011 54.9477 134.098 58.541 140.638 54.812Z" fill="#5F381E"/>
<path d="M107.173 49.395C106.856 49.5761 106.478 49.6564 106.087 49.6017C105.155 49.468 104.507 48.6055 104.641 47.6758C104.685 47.349 105.656 39.5187 97.954 37.4192C88.3753 34.8093 87.7993 26.9703 88.8328 23.1904C89.0799 22.2842 90.0184 21.7491 90.9258 21.997C91.8312 22.2431 92.3661 23.1748 92.1234 24.0785C91.9173 24.8643 90.3535 31.8196 98.8517 34.1362C107.358 36.455 108.566 44.3216 108.016 48.1578C107.939 48.698 107.614 49.1435 107.173 49.395Z" fill="#93583E"/>
<path d="M140.215 54.0732C139.865 54.2728 139.444 54.3501 139.019 54.2604C138.097 54.0667 137.508 53.1639 137.702 52.2439C137.772 51.9035 139.346 43.7498 131.735 41.6757C128.077 40.6788 125.492 38.8043 124.05 36.1018C121.771 31.8307 123.316 27.1269 123.383 26.9293C123.684 26.0403 124.651 25.5604 125.542 25.8606C126.433 26.1602 126.912 27.1227 126.615 28.0115C126.59 28.0903 125.486 31.584 127.07 34.5248C128.056 36.3539 129.927 37.6553 132.632 38.3932C141.217 40.7328 141.884 48.9365 141.036 52.9473C140.933 53.4412 140.623 53.8407 140.215 54.0732Z" fill="#93583E"/>
<defs>
<linearGradient id="paint0_linear_37_25125" x1="136.349" y1="-161.72" x2="130.108" y2="251.185" gradientUnits="userSpaceOnUse">
<stop stop-color="#9B5A33"/>
<stop offset="1" stop-color="#352414" stop-opacity="0"/>
</linearGradient>
</defs>
</svg>
