<svg width="258" height="266" viewBox="0 0 258 266" fill="none" xmlns="http://www.w3.org/2000/svg">
<path d="M89.0288 186.996H188.967C188.362 140.128 170.808 100.847 147.281 93.3245L148.949 84.9899C149.096 84.2549 148.904 83.4924 148.431 82.915C147.954 82.3375 147.246 82 146.496 82H131.497C130.747 82 130.04 82.3375 129.565 82.915C129.092 83.4949 128.9 84.2549 129.047 84.9899L130.715 93.3245C107.186 100.847 89.6338 140.128 89.0288 186.996Z" fill="#D69553"/>
<path d="M207.404 189.883C205.974 188.048 203.819 186.996 201.494 186.996H76.4995C74.1745 186.996 72.0196 188.048 70.5897 189.881C69.1573 191.713 68.6623 194.061 69.2247 196.313L74.2245 216.315C75.0595 219.657 78.0519 221.992 81.4992 221.992H86.499V224.492C86.499 225.874 87.6165 226.992 88.9989 226.992H98.9985C100.381 226.992 101.498 225.874 101.498 224.492V221.992H116.498V224.492C116.498 225.874 117.615 226.992 118.998 226.992H128.997C130.38 226.992 131.497 225.874 131.497 224.492V221.992H146.497V224.492C146.497 225.874 147.614 226.992 148.996 226.992H158.996C160.379 226.992 161.496 225.874 161.496 224.492V221.992H176.495V224.492C176.495 225.874 177.613 226.992 178.995 226.992H188.995C190.377 226.992 191.495 225.874 191.495 224.492V221.992H196.495C199.942 221.992 202.934 219.655 203.769 216.312L208.769 196.313C209.334 194.063 208.839 191.716 207.404 189.883Z" fill="#F0CEAB"/>
<path d="M70.0197 199.495H207.974L208.769 196.315C209.334 194.063 208.837 191.716 207.404 189.883C205.974 188.048 203.819 186.996 201.494 186.996H76.4995C74.1745 186.996 72.0196 188.048 70.5897 189.881C69.1573 191.713 68.6623 194.061 69.2247 196.315L70.0197 199.495Z" fill="#D69553"/>
<path d="M114.365 104.499H163.631C158.546 98.9218 153.064 95.162 147.284 93.322L148.949 84.9899C149.096 84.2549 148.904 83.4924 148.431 82.915C147.954 82.3375 147.246 82 146.496 82H131.497C130.747 82 130.04 82.3375 129.565 82.915C129.092 83.4949 128.9 84.2549 129.047 84.9899L130.712 93.322C124.932 95.162 119.45 98.9243 114.365 104.499Z" fill="#735E50"/>
<path d="M89.5938 174.496C89.2663 178.674 89.1063 182.861 89.0488 186.996H188.945C188.89 182.861 188.727 178.674 188.4 174.496H89.5938Z" fill="#735E50"/>
<path d="M216.796 146.69C214.196 144.092 209.784 143.845 206.937 146.032C206.284 144.472 205.277 141.37 203.774 135.23C200.859 123.313 196.867 106.994 181.5 106.994C176.703 106.994 172.271 108.091 168.283 110.261C165.698 106.639 162.938 103.552 160.061 100.969C166.576 106.849 172.301 115.386 176.905 125.828C176.528 124.971 176.183 124.073 175.788 123.241C177.5 122.413 179.415 121.993 181.5 121.993C184.818 121.993 187.04 129.941 189.205 138.793C191.865 149.67 194.88 161.997 206.514 161.997C211.701 161.987 215.696 158.397 216.796 157.294C219.721 154.372 219.721 149.615 216.796 146.69Z" fill="#632F18"/>
<path d="M90.6838 164.454C79.0618 163.984 77.7419 153.757 77.0369 137.115C76.4669 123.663 75.8244 108.421 61.75 107.012C60.3576 106.904 59.1526 107.879 59.0126 109.249C58.8751 110.624 59.8776 111.849 61.25 111.986C70.3547 112.896 71.3996 122.166 72.0396 137.325C72.6296 151.26 73.4095 168.457 90.0764 169.406C90.2563 167.739 90.4613 166.089 90.6838 164.454Z" fill="#632F18"/>
<ellipse cx="136.349" cy="144.91" rx="121.061" ry="120.861" fill="url(#paint0_linear_37_25138)"/>
<path d="M221.69 100.295H218.031C216.697 100.296 215.418 100.826 214.475 101.77C213.531 102.713 213.001 103.992 213 105.326V116.303C213.001 117.637 213.531 118.916 214.475 119.859C215.418 120.803 216.697 121.333 218.031 121.334H221.69C222.054 121.334 222.403 121.189 222.66 120.932C222.918 120.675 223.062 120.326 223.062 119.962V101.667C223.062 101.303 222.918 100.954 222.66 100.697C222.403 100.439 222.054 100.295 221.69 100.295Z" fill="#50555C"/>
<path d="M238.726 100.295H232.742L234.546 94.8813C234.871 93.9099 234.831 92.8535 234.436 91.9088C234.04 90.964 233.314 90.1951 232.394 89.7451C231.474 89.2951 230.422 89.1946 229.433 89.4623C228.445 89.73 227.587 90.3476 227.019 91.2004L220.548 100.906C220.398 101.131 220.318 101.396 220.318 101.667V119.962C220.318 120.326 220.462 120.675 220.72 120.932C220.977 121.189 221.326 121.334 221.69 121.334H235.433C236.516 121.338 237.571 120.991 238.44 120.344C239.309 119.698 239.945 118.787 240.252 117.748L243.545 106.771C243.77 106.02 243.817 105.226 243.681 104.454C243.545 103.682 243.231 102.952 242.762 102.323C242.294 101.693 241.685 101.182 240.985 100.83C240.284 100.478 239.51 100.295 238.726 100.295Z" fill="#894D25"/>
<path d="M230.837 86.5737C230.474 86.5737 230.125 86.4292 229.867 86.1718C229.61 85.9145 229.465 85.5655 229.465 85.2016V83.3721C229.465 83.0082 229.61 82.6592 229.867 82.4019C230.125 82.1446 230.474 82 230.837 82C231.201 82 231.55 82.1446 231.808 82.4019C232.065 82.6592 232.21 83.0082 232.21 83.3721V85.2016C232.21 85.5655 232.065 85.9145 231.808 86.1718C231.55 86.4292 231.201 86.5737 230.837 86.5737Z" fill="#F0CEAB"/>
<path d="M236.011 88.7161C235.74 88.7159 235.475 88.6353 235.249 88.4845C235.024 88.3337 234.848 88.1195 234.745 87.8689C234.641 87.6184 234.614 87.3427 234.666 87.0767C234.719 86.8107 234.85 86.5663 235.041 86.3744L236.335 85.0809C236.593 84.8238 236.944 84.6799 237.308 84.6809C237.673 84.6819 238.022 84.8278 238.28 85.0864C238.537 85.345 238.681 85.6952 238.68 86.0599C238.679 86.4246 238.533 86.774 238.274 87.0312L236.981 88.3246C236.853 88.4504 236.701 88.5497 236.535 88.6169C236.368 88.6841 236.19 88.7178 236.011 88.7161Z" fill="#F0CEAB"/>
<path d="M225.664 88.7161C225.484 88.7166 225.305 88.6814 225.139 88.6127C224.973 88.5439 224.821 88.4429 224.694 88.3154L223.401 87.0311C223.27 86.9046 223.165 86.7533 223.093 86.5859C223.021 86.4185 222.983 86.2385 222.982 86.0563C222.98 85.8741 223.014 85.6934 223.083 85.5248C223.152 85.3561 223.254 85.2029 223.383 85.074C223.512 84.9451 223.665 84.8431 223.833 84.7741C224.002 84.705 224.183 84.6702 224.365 84.6717C224.547 84.6732 224.727 84.7109 224.895 84.7828C225.062 84.8546 225.213 84.9591 225.34 85.09L226.633 86.3835C226.825 86.5754 226.956 86.8198 227.008 87.0858C227.061 87.3518 227.034 87.6275 226.93 87.878C226.827 88.1286 226.651 88.3428 226.426 88.4936C226.2 88.6444 225.935 88.725 225.664 88.7252V88.7161Z" fill="#F0CEAB"/>
<path d="M221.69 121.334H218.031C216.697 121.333 215.418 120.803 214.475 119.859C213.531 118.916 213.001 117.637 213 116.303V105.326C213.001 103.992 213.531 102.713 214.475 101.77C215.418 100.826 216.697 100.296 218.031 100.295H221.69C222.054 100.295 222.403 100.439 222.66 100.697C222.918 100.954 223.062 101.303 223.062 101.667V119.962C223.062 120.326 222.918 120.675 222.66 120.932C222.403 121.189 222.054 121.334 221.69 121.334ZM218.031 103.039C217.425 103.04 216.844 103.281 216.415 103.71C215.986 104.139 215.745 104.72 215.744 105.326V116.303C215.745 116.909 215.986 117.49 216.415 117.919C216.844 118.348 217.425 118.589 218.031 118.59H220.318V103.039H218.031Z" fill="#F0CEAB"/>
<path d="M235.433 121.334H221.69C221.326 121.334 220.977 121.189 220.72 120.932C220.462 120.675 220.318 120.326 220.318 119.962V101.667C220.318 101.396 220.398 101.131 220.548 100.906L227.019 91.2097C227.587 90.3569 228.445 89.7393 229.433 89.4716C230.422 89.2039 231.474 89.3044 232.394 89.7544C233.314 90.2044 234.04 90.9733 234.436 91.9181C234.831 92.8628 234.871 93.9191 234.546 94.8906L232.742 100.304H238.726C239.511 100.304 240.284 100.487 240.985 100.839C241.686 101.191 242.295 101.702 242.763 102.331C243.232 102.96 243.546 103.69 243.682 104.463C243.818 105.236 243.771 106.029 243.545 106.78L240.252 117.757C239.944 118.795 239.307 119.704 238.439 120.349C237.57 120.994 236.515 121.339 235.433 121.334ZM223.062 118.59H235.433C235.927 118.593 236.408 118.436 236.804 118.142C237.2 117.847 237.49 117.432 237.628 116.958L240.922 105.981C241.024 105.639 241.045 105.278 240.982 104.927C240.92 104.576 240.777 104.244 240.563 103.958C240.35 103.672 240.073 103.44 239.754 103.281C239.435 103.121 239.083 103.038 238.726 103.039H230.837C230.62 103.039 230.406 102.987 230.213 102.888C230.019 102.789 229.852 102.645 229.725 102.469C229.598 102.293 229.514 102.089 229.481 101.874C229.448 101.659 229.467 101.44 229.535 101.233L231.935 94.0124C232.011 93.7902 232.032 93.5529 231.996 93.3208C231.961 93.0887 231.87 92.8685 231.732 92.6787C231.586 92.4938 231.399 92.3451 231.186 92.2442C230.972 92.1433 230.739 92.093 230.503 92.097C230.267 92.1011 230.036 92.1595 229.826 92.2677C229.617 92.3759 229.435 92.5309 229.295 92.7208L223.062 102.084V118.59Z" fill="#F0CEAB"/>
<path d="M223.578 225.992C226.723 224.199 227.456 219.571 225.215 215.655C222.975 211.738 218.61 210.017 215.465 211.81C212.321 213.603 211.588 218.231 213.828 222.147C216.068 226.064 220.434 227.785 223.578 225.992Z" fill="#5F381E"/>
<path d="M239.799 228.028C242.937 226.239 243.665 221.613 241.425 217.697C239.185 213.781 234.824 212.056 231.686 213.846C228.548 215.635 227.82 220.26 230.06 224.177C232.301 228.093 236.661 229.817 239.799 228.028Z" fill="#5F381E"/>
<path d="M223.742 225.429C223.589 225.516 223.408 225.554 223.22 225.528C222.773 225.464 222.462 225.05 222.526 224.604C222.547 224.447 223.013 220.69 219.318 219.682C214.721 218.43 214.445 214.668 214.941 212.854C215.06 212.42 215.51 212.163 215.945 212.282C216.38 212.4 216.636 212.847 216.52 213.281C216.421 213.658 215.671 216.995 219.748 218.107C223.83 219.219 224.41 222.994 224.146 224.835C224.109 225.094 223.953 225.308 223.742 225.429Z" fill="#93583E"/>
<path d="M239.596 227.673C239.428 227.769 239.226 227.806 239.022 227.763C238.58 227.67 238.298 227.237 238.391 226.796C238.424 226.632 239.179 222.72 235.527 221.725C233.772 221.246 232.532 220.347 231.84 219.05C230.746 217 231.488 214.743 231.519 214.648C231.664 214.222 232.128 213.992 232.556 214.136C232.983 214.279 233.213 214.741 233.07 215.168C233.058 215.206 232.529 216.882 233.289 218.293C233.762 219.171 234.66 219.795 235.958 220.149C240.077 221.272 240.397 225.209 239.991 227.133C239.941 227.37 239.792 227.562 239.596 227.673Z" fill="#93583E"/>
<path d="M106.833 50.5689C113.386 46.8325 114.914 37.1873 110.245 29.0257C105.576 20.8641 96.4786 17.2769 89.9255 21.0133C83.3724 24.7497 81.845 34.3949 86.5139 42.5565C91.1828 50.7181 100.28 54.3053 106.833 50.5689Z" fill="#5F381E"/>
<path d="M140.638 54.812C147.178 51.0831 148.694 41.4439 144.026 33.2823C139.357 25.1208 130.27 21.5274 123.73 25.2564C117.19 28.9854 115.673 38.6246 120.342 46.7861C125.011 54.9477 134.098 58.541 140.638 54.812Z" fill="#5F381E"/>
<path d="M107.173 49.395C106.856 49.5761 106.478 49.6564 106.087 49.6017C105.155 49.468 104.507 48.6055 104.641 47.6758C104.685 47.349 105.656 39.5187 97.954 37.4192C88.3753 34.8093 87.7993 26.9703 88.8328 23.1904C89.0799 22.2842 90.0184 21.7491 90.9258 21.997C91.8312 22.2431 92.3661 23.1748 92.1234 24.0785C91.9173 24.8643 90.3535 31.8196 98.8517 34.1362C107.358 36.455 108.566 44.3216 108.016 48.1578C107.939 48.698 107.614 49.1435 107.173 49.395Z" fill="#93583E"/>
<path d="M140.215 54.0732C139.865 54.2728 139.444 54.3501 139.019 54.2604C138.097 54.0667 137.508 53.1639 137.702 52.2439C137.772 51.9035 139.346 43.7498 131.735 41.6757C128.077 40.6788 125.492 38.8043 124.05 36.1018C121.771 31.8307 123.316 27.1269 123.383 26.9293C123.684 26.0403 124.651 25.5604 125.542 25.8606C126.433 26.1602 126.912 27.1227 126.615 28.0115C126.59 28.0903 125.486 31.584 127.07 34.5248C128.056 36.3539 129.927 37.6553 132.632 38.3932C141.217 40.7328 141.884 48.9365 141.036 52.9473C140.933 53.4412 140.623 53.8407 140.215 54.0732Z" fill="#93583E"/>
<path d="M12.1717 212.279C18.3748 212.279 23.4035 206.016 23.4035 198.29C23.4035 190.564 18.3748 184.302 12.1717 184.302C5.96858 184.302 0.939941 190.564 0.939941 198.29C0.939941 206.016 5.96858 212.279 12.1717 212.279Z" fill="#5F381E"/>
<path d="M34.5678 229.065C40.7585 229.065 45.7771 222.802 45.7771 215.076C45.7771 207.351 40.7585 201.088 34.5678 201.088C28.377 201.088 23.3584 207.351 23.3584 215.076C23.3584 222.802 28.377 229.065 34.5678 229.065Z" fill="#5F381E"/>
<path d="M12.8942 211.579C12.5937 211.579 12.291 211.483 12.0346 211.285C11.4237 210.81 11.3137 209.931 11.7887 209.322C11.9533 209.106 15.8437 203.912 11.2037 199.279C5.4323 193.518 8.22203 187.688 10.5031 185.411C11.0496 184.865 11.9379 184.865 12.4844 185.411C13.0301 185.955 13.0315 186.838 12.4893 187.384C12.0213 187.861 8.0651 192.189 13.185 197.301C18.3097 202.418 15.96 208.525 14.0012 211.039C13.7251 211.393 13.3118 211.579 12.8942 211.579Z" fill="#93583E"/>
<path d="M34.5678 228.366C34.2365 228.366 33.9044 228.25 33.6375 228.012C33.0588 227.499 33.0069 226.615 33.5212 226.037C33.7096 225.823 38.1625 220.643 33.5772 216.066C31.3732 213.865 30.2936 211.475 30.3678 208.959C30.4848 204.983 33.5086 202.255 33.6368 202.141C34.2148 201.629 35.101 201.68 35.6145 202.257C36.128 202.833 36.0769 203.715 35.5017 204.228C35.452 204.275 33.2374 206.319 33.1674 209.063C33.1239 210.769 33.9282 212.46 35.5578 214.088C40.7302 219.251 37.8564 225.378 35.6138 227.896C35.3385 228.207 34.9539 228.366 34.5678 228.366Z" fill="#93583E"/>
<defs>
<linearGradient id="paint0_linear_37_25138" x1="136.349" y1="-161.72" x2="130.108" y2="251.185" gradientUnits="userSpaceOnUse">
<stop stop-color="#9B5A33"/>
<stop offset="1" stop-color="#352414" stop-opacity="0"/>
</linearGradient>
</defs>
</svg>
