<svg width="275" height="265" viewBox="0 0 275 265" fill="none" xmlns="http://www.w3.org/2000/svg">
<ellipse cx="135.409" cy="144.138" rx="121.061" ry="120.861" fill="url(#paint0_linear_37_5304)"/>
<path d="M11.2318 211.508C17.4349 211.508 22.4635 205.245 22.4635 197.519C22.4635 189.793 17.4349 183.531 11.2318 183.531C5.02864 183.531 0 189.793 0 197.519C0 205.245 5.02864 211.508 11.2318 211.508Z" fill="#5F381E"/>
<path d="M33.6283 228.294C39.8191 228.294 44.8377 222.031 44.8377 214.305C44.8377 206.58 39.8191 200.317 33.6283 200.317C27.4375 200.317 22.4189 206.58 22.4189 214.305C22.4189 222.031 27.4375 228.294 33.6283 228.294Z" fill="#5F381E"/>
<path d="M11.9538 210.808C11.6532 210.808 11.3506 210.712 11.0942 210.514C10.4833 210.039 10.3733 209.16 10.8483 208.551C11.0129 208.335 14.9033 203.141 10.2633 198.508C4.49187 192.747 7.2816 186.917 9.56271 184.64C10.1092 184.094 10.9975 184.094 11.544 184.64C12.0897 185.184 12.0911 186.067 11.5489 186.613C11.0809 187.09 7.12467 191.418 12.2445 196.53C17.3693 201.647 15.0196 207.754 13.0607 210.268C12.7847 210.622 12.3713 210.808 11.9538 210.808Z" fill="#93583E"/>
<path d="M33.6279 227.595C33.2965 227.595 32.9645 227.479 32.6975 227.241C32.1188 226.728 32.067 225.844 32.5812 225.266C32.7697 225.052 37.2226 219.872 32.6373 215.295C30.4332 213.094 29.3536 210.704 29.4279 208.188C29.5449 204.212 32.5686 201.484 32.6968 201.37C33.2748 200.858 34.1611 200.909 34.6746 201.486C35.1881 202.062 35.137 202.944 34.5618 203.457C34.512 203.504 32.2975 205.548 32.2274 208.292C32.184 209.998 32.9883 211.689 34.6178 213.317C39.7902 218.48 36.9165 224.607 34.6739 227.125C34.3985 227.436 34.0139 227.595 33.6279 227.595Z" fill="#93583E"/>
<path d="M105.893 49.7978C112.446 46.0614 113.974 36.4161 109.305 28.2546C104.636 20.093 95.5387 16.5057 88.9856 20.2422C82.4325 23.9786 80.905 33.6238 85.5739 41.7854C90.2428 49.9469 99.3401 53.5342 105.893 49.7978Z" fill="#5F381E"/>
<path d="M139.698 54.0409C146.238 50.3119 147.755 40.6728 143.086 32.5112C138.417 24.3496 129.33 20.7563 122.79 24.4853C116.25 28.2143 114.733 37.8534 119.402 46.015C124.071 54.1766 133.158 57.7699 139.698 54.0409Z" fill="#5F381E"/>
<path d="M106.233 48.6239C105.916 48.8049 105.538 48.8853 105.147 48.8306C104.215 48.6969 103.567 47.8344 103.701 46.9047C103.745 46.5779 104.716 38.7476 97.0141 36.648C87.4353 34.0382 86.8593 26.1991 87.8928 22.4193C88.14 21.5131 89.0785 20.978 89.9859 21.2259C90.8913 21.472 91.4262 22.4037 91.1835 23.3074C90.9773 24.0932 89.4136 31.0484 97.9117 33.3651C106.418 35.6839 107.626 43.5505 107.076 47.3867C106.999 47.9269 106.674 48.3724 106.233 48.6239Z" fill="#93583E"/>
<path d="M139.275 53.3021C138.925 53.5017 138.504 53.579 138.079 53.4893C137.157 53.2955 136.568 52.3928 136.762 51.4727C136.832 51.1324 138.406 42.9787 130.795 40.9046C127.137 39.9077 124.552 38.0332 123.11 35.3306C120.831 31.0596 122.376 26.3558 122.443 26.1582C122.744 25.2691 123.711 24.7893 124.602 25.0895C125.493 25.3891 125.972 26.3516 125.675 27.2404C125.65 27.3191 124.546 30.8128 126.13 33.7537C127.116 35.5828 128.987 36.8842 131.692 37.6221C140.277 39.9617 140.944 48.1654 140.097 52.1762C139.993 52.6701 139.683 53.0695 139.275 53.3021Z" fill="#93583E"/>
<path d="M222.639 225.221C225.783 223.428 226.516 218.8 224.276 214.884C222.035 210.967 217.67 209.246 214.526 211.039C211.381 212.832 210.648 217.46 212.889 221.376C215.129 225.293 219.494 227.014 222.639 225.221Z" fill="#5F381E"/>
<path d="M238.86 227.257C241.998 225.468 242.726 220.842 240.485 216.926C238.245 213.01 233.885 211.285 230.747 213.075C227.608 214.864 226.881 219.489 229.121 223.406C231.361 227.322 235.722 229.046 238.86 227.257Z" fill="#5F381E"/>
<path d="M222.802 224.658C222.65 224.745 222.468 224.783 222.281 224.757C221.834 224.693 221.523 224.279 221.587 223.833C221.608 223.676 222.074 219.919 218.378 218.911C213.782 217.659 213.506 213.897 214.001 212.083C214.12 211.649 214.57 211.392 215.006 211.511C215.44 211.629 215.697 212.076 215.58 212.51C215.482 212.887 214.731 216.224 218.809 217.336C222.891 218.448 223.471 222.223 223.207 224.064C223.169 224.323 223.014 224.537 222.802 224.658Z" fill="#93583E"/>
<path d="M238.657 226.902C238.489 226.998 238.287 227.035 238.083 226.992C237.641 226.899 237.358 226.466 237.451 226.025C237.485 225.861 238.24 221.949 234.588 220.954C232.833 220.475 231.592 219.576 230.9 218.279C229.807 216.229 230.548 213.972 230.58 213.877C230.725 213.451 231.189 213.221 231.616 213.365C232.044 213.508 232.274 213.97 232.131 214.397C232.119 214.435 231.589 216.111 232.349 217.522C232.822 218.4 233.72 219.024 235.018 219.378C239.138 220.501 239.458 224.438 239.051 226.362C239.002 226.599 238.853 226.791 238.657 226.902Z" fill="#93583E"/>
<path d="M230.661 75.5272C231.095 75.2298 231.485 74.9572 231.825 74.7152C231.513 74.9261 231.119 75.2021 230.661 75.5272Z" fill="#57AF12"/>
<path d="M231.372 85.8478C231.387 84.1952 230.992 79.5631 226.115 79.4903C225.755 79.4849 225.457 79.7674 225.452 80.1263C225.438 81.3093 225.661 83.8372 227.732 84.6181C229.412 85.2513 230.392 85.7882 230.898 86.1084C231.103 86.2389 231.37 86.091 231.372 85.8478Z" fill="#B2E26D"/>
<path d="M229.14 89.8975C229.15 88.7543 229 86.4444 227.786 84.6388C227.768 84.632 227.751 84.6251 227.732 84.6182C226.864 84.2907 226.321 83.656 225.984 82.9424C225.137 82.456 224.067 82.1482 222.714 82.128C222.275 82.1215 221.91 82.4667 221.905 82.9053C221.887 84.351 222.159 87.4404 224.691 88.3949C226.744 89.1688 227.941 89.8249 228.559 90.2162C228.811 90.3754 229.137 90.1949 229.14 89.8975Z" fill="#87D147"/>
<path d="M225.612 93.3853C225.621 92.2756 225.488 90.126 224.473 88.3045C223.462 87.8508 222.842 87.0384 222.466 86.1492C221.543 85.5698 220.354 85.198 218.822 85.1752C218.357 85.1682 217.972 85.533 217.966 85.9966C217.948 87.5242 218.236 90.7888 220.911 91.7974C223.08 92.6152 224.345 93.3085 224.998 93.7219C225.264 93.8902 225.609 93.6994 225.612 93.3853Z" fill="#57AF12"/>
<path d="M224.055 79.0381C225.79 74.4858 221.624 72.4082 220.08 71.8111C219.853 71.7231 219.617 71.9163 219.662 72.1553C219.773 72.7429 219.911 73.8498 219.88 75.6423C219.841 77.8528 222.112 78.9935 223.218 79.4173C223.554 79.5461 223.927 79.3736 224.055 79.0381Z" fill="#B2E26D"/>
<path d="M220.343 81.2178C220.825 79.9552 220.933 78.8489 220.793 77.8838C220.254 77.3071 219.864 76.569 219.88 75.6424C219.88 75.6228 219.88 75.6044 219.88 75.585C218.648 73.792 216.554 72.7988 215.486 72.3858C215.208 72.2784 214.92 72.5144 214.975 72.8066C215.111 73.5248 215.279 74.8775 215.241 77.0681C215.194 79.7696 217.969 81.1636 219.321 81.6815C219.731 81.8386 220.187 81.6279 220.343 81.2178Z" fill="#87D147"/>
<path d="M216.069 83.7029C216.614 82.273 216.708 81.0327 216.509 79.9625C215.821 79.2843 215.294 78.4093 215.245 77.304C213.925 75.689 211.973 74.7708 210.937 74.3699C210.643 74.2563 210.338 74.5058 210.397 74.8144C210.54 75.5733 210.718 77.0027 210.678 79.3175C210.628 82.1722 213.56 83.6453 214.989 84.1926C215.422 84.3589 215.904 84.1362 216.069 83.7029Z" fill="#57AF12"/>
<path d="M233.856 73.4979C233.891 73.2557 233.921 72.9871 233.933 72.7104C234.009 71.0373 232.568 69.6899 230.897 69.8372C230.715 69.8533 230.637 70.0763 230.771 70.2008C231.423 70.8102 232.72 72.2359 232.835 73.9992C233.21 73.8403 233.549 73.6716 233.856 73.4979Z" fill="#B2E26D"/>
<path d="M236.391 76.3672C236.723 74.9058 235.7 73.4674 234.205 73.3332C234.084 73.3222 233.964 73.3154 233.846 73.3112L232.75 74.1167C234.396 74.3605 235.573 75.7594 236.053 76.4352C236.148 76.5684 236.355 76.5264 236.391 76.3672Z" fill="#87D147"/>
<path d="M234.795 78.498C235.303 76.9018 234.299 75.2039 232.647 74.9136C232.312 74.8546 231.981 74.8227 231.697 74.8057C231.388 75.0247 231.041 75.2662 230.661 75.5274C230.635 75.5454 230.611 75.563 230.585 75.5815C232.604 75.8506 233.91 77.6913 234.412 78.5418C234.505 78.699 234.74 78.6718 234.795 78.498Z" fill="#B2E26D"/>
<path d="M232.543 81.5941C233.316 79.8661 232.405 77.8322 230.587 77.2971C229.778 77.0591 228.978 76.9689 228.7 76.943C228.37 77.183 228.029 77.4332 227.677 77.6916C230.233 78.0091 231.618 80.5012 232.108 81.5949C232.192 81.7832 232.459 81.7825 232.543 81.5941Z" fill="#87D147"/>
<path d="M230.665 73.8565C230.738 71.9653 229.099 70.4532 227.212 70.6319C227.006 70.6515 226.92 70.904 227.072 71.0438C227.943 71.8471 229.833 73.9157 229.377 76.3974C229.741 76.1538 230.087 75.9202 230.41 75.6993C230.482 75.3861 230.634 74.6459 230.665 73.8565Z" fill="#87D147"/>
<path d="M227.706 75.3875C227.794 73.1053 225.816 71.2805 223.539 71.4963C223.291 71.5199 223.187 71.8245 223.37 71.9934C224.43 72.9702 226.737 75.4976 226.138 78.523C226.56 78.2513 226.973 77.9837 227.372 77.7226C227.44 77.446 227.664 76.4548 227.706 75.3875Z" fill="#B2E26D"/>
<path d="M217.068 86.0492C219.108 84.385 231.069 75.3758 236.458 71.5433C230.782 75.439 219.643 82.5084 213.046 85.8583C213.457 86.0954 213.827 86.418 214.122 86.8281C214.439 87.2689 214.636 87.7588 214.721 88.2597C215.378 87.5534 216.167 86.784 217.068 86.0492Z" fill="#57AF12"/>
<path d="M235.813 70.9176C235.556 70.5605 235.058 70.4787 234.7 70.7351C234.343 70.9915 234.261 71.4887 234.518 71.8458C234.775 72.2029 235.273 72.2848 235.63 72.0284C235.988 71.7721 236.07 71.2747 235.813 70.9176Z" fill="#B2E26D"/>
<path d="M235.753 73.0177C236.01 73.3749 236.508 73.4566 236.866 73.2003C237.223 72.9441 237.305 72.4468 237.048 72.0897C236.791 71.7326 236.293 71.6509 235.936 71.9071C235.578 72.1634 235.497 72.6606 235.753 73.0177Z" fill="#B2E26D"/>
<path d="M237.523 73.0227C237.78 73.3799 238.278 73.4616 238.636 73.2053C238.993 72.949 239.075 72.4517 238.818 72.0945C238.561 71.7373 238.063 71.6555 237.706 71.9119C237.348 72.1682 237.266 72.6655 237.523 73.0227Z" fill="#B2E26D"/>
<path d="M236.314 71.3418C236.571 71.699 237.069 71.7807 237.427 71.5244C237.784 71.2681 237.866 70.7708 237.609 70.4136C237.352 70.0564 236.854 69.9746 236.497 70.2309C236.139 70.4873 236.057 70.9846 236.314 71.3418Z" fill="#B2E26D"/>
<path d="M54.995 170.78C54.1856 170.442 53.4492 170.142 52.8024 169.886C53.3804 170.131 54.1248 170.434 54.995 170.78Z" fill="#57AF12"/>
<path d="M68.8394 160.454C66.5062 161.928 60.3607 166.668 64.6682 173.558C64.9856 174.066 65.6518 174.228 66.1596 173.91C67.8332 172.86 71.1805 170.264 70.4038 166.659C69.774 163.736 69.6422 161.881 69.6345 160.883C69.6316 160.478 69.1828 160.238 68.8394 160.454Z" fill="#B2E26D"/>
<path d="M76.5423 159.917C74.9282 160.937 71.8219 163.235 70.3843 166.566C70.3912 166.597 70.3971 166.628 70.4039 166.659C70.7294 168.171 70.3291 169.504 69.6323 170.621C69.7151 172.245 70.2502 174.021 71.4448 175.932C71.8329 176.553 72.6472 176.751 73.2675 176.361C75.3128 175.079 79.4036 171.905 78.4545 167.5C77.6849 163.928 77.524 161.66 77.5145 160.441C77.5105 159.946 76.962 159.652 76.5423 159.917Z" fill="#87D147"/>
<path d="M84.6275 161.701C83.0609 162.69 80.1641 164.82 78.5249 167.887C78.8016 169.711 78.2213 171.313 77.3139 172.644C77.3349 174.459 77.8877 176.458 79.2407 178.623C79.6508 179.279 80.5112 179.488 81.1668 179.077C83.3279 177.721 87.6507 174.368 86.6479 169.713C85.8347 165.938 85.6646 163.542 85.6543 162.254C85.6505 161.73 85.071 161.42 84.6275 161.701Z" fill="#57AF12"/>
<path d="M65.8947 176.849C57.9363 178.537 58.7854 186.243 59.3428 188.943C59.4248 189.34 59.9095 189.496 60.204 189.217C60.9283 188.53 62.3575 187.336 64.9021 185.76C68.0401 183.815 67.5887 179.607 67.1835 177.676C67.0608 177.09 66.4813 176.724 65.8947 176.849Z" fill="#B2E26D"/>
<path d="M72.3097 180.071C70.1024 180.539 68.4509 181.387 67.2226 182.455C66.9008 183.732 66.2177 184.945 64.9022 185.76C64.8743 185.777 64.8486 185.794 64.8211 185.811C63.4182 189.156 63.9171 192.984 64.3027 194.851C64.403 195.337 64.9951 195.527 65.3554 195.186C66.2407 194.347 67.9874 192.888 71.0971 190.961C74.9321 188.585 74.3802 183.443 73.885 181.083C73.7346 180.367 73.0266 179.919 72.3097 180.071Z" fill="#87D147"/>
<path d="M79.6622 183.805C77.1624 184.335 75.3371 185.326 74.014 186.571C73.6841 188.147 72.9326 189.676 71.4251 190.743C70.3514 194.05 70.8267 197.611 71.2008 199.423C71.3066 199.936 71.9325 200.138 72.3131 199.777C73.2486 198.89 75.0942 197.349 78.3803 195.313C82.4328 192.802 81.8497 187.368 81.3265 184.874C81.1679 184.117 80.4197 183.644 79.6622 183.805Z" fill="#57AF12"/>
<path d="M49.2575 168.144C48.886 168.314 48.4823 168.515 48.0825 168.748C45.6652 170.154 45.0769 173.389 46.7942 175.594C46.9813 175.834 47.3644 175.741 47.4187 175.442C47.6842 173.978 48.5134 170.875 50.8845 169.12C50.3222 168.738 49.7788 168.416 49.2575 168.144Z" fill="#B2E26D"/>
<path d="M50.9938 162.004C48.6421 162.86 47.5479 165.592 48.7108 167.805C48.8053 167.985 48.9042 168.159 49.0042 168.327L51.1265 169.133C49.9806 166.61 50.8803 163.698 51.3949 162.415C51.4963 162.162 51.25 161.91 50.9938 162.004Z" fill="#87D147"/>
<path d="M55.4275 162.31C52.7277 163.043 51.2514 165.982 52.3374 168.555C52.558 169.078 52.8121 169.57 53.0451 169.983C53.6319 170.217 54.2841 170.484 54.9949 170.78C55.0431 170.799 55.0902 170.818 55.1395 170.837C53.6923 167.77 55.0953 164.278 55.8354 162.807C55.972 162.534 55.7215 162.23 55.4275 162.31Z" fill="#B2E26D"/>
<path d="M61.8091 162.661C58.6846 163.142 56.6532 166.255 57.5459 169.283C57.9428 170.63 58.5392 171.83 58.7549 172.244C59.3894 172.487 60.0495 172.739 60.7301 172.998C58.865 169.134 61.1111 164.943 62.2039 163.27C62.3923 162.982 62.1497 162.609 61.8091 162.661Z" fill="#87D147"/>
<path d="M52.6463 172.285C49.9252 173.892 49.2842 177.553 51.2412 180.031C51.4544 180.301 51.8868 180.194 51.9458 179.855C52.2854 177.909 53.4807 173.395 57.3766 171.789C56.706 171.501 56.0656 171.228 55.4629 170.975C54.9585 171.158 53.7822 171.615 52.6463 172.285Z" fill="#87D147"/>
<path d="M57.4701 175.041C54.1863 176.981 53.4128 181.397 55.7744 184.389C56.0318 184.714 56.5533 184.584 56.6248 184.175C57.038 181.81 58.5005 176.297 63.2883 174.4C62.5258 174.055 61.7771 173.72 61.0491 173.396C60.6 173.553 59.0058 174.134 57.4701 175.041Z" fill="#B2E26D"/>
<path d="M82.0531 180.287C77.8732 178.937 54.4133 170.346 44.1621 166.271C54.7616 170.691 74.7551 179.885 85.4212 186.087C85.3827 185.298 85.5009 184.488 85.81 183.705C86.1422 182.863 86.6516 182.144 87.2779 181.572C85.6923 181.291 83.8989 180.883 82.0531 180.287Z" fill="#57AF12"/>
<path d="M43.8665 167.74C43.5975 168.422 43.9331 169.192 44.6165 169.461C45.2998 169.73 46.0716 169.394 46.3407 168.712C46.6097 168.03 46.2742 167.26 45.5909 166.991C44.9075 166.722 44.1356 167.058 43.8665 167.74Z" fill="#B2E26D"/>
<path d="M46.8685 165.924C47.1376 165.242 46.8019 164.472 46.1189 164.203C45.4358 163.935 44.6639 164.27 44.3949 164.952C44.1258 165.634 44.4615 166.404 45.1445 166.673C45.8276 166.941 46.5995 166.606 46.8685 165.924Z" fill="#B2E26D"/>
<path d="M45.2758 163.444C45.5449 162.762 45.2092 161.991 44.526 161.722C43.8428 161.454 43.0708 161.789 42.8017 162.471C42.5326 163.153 42.8683 163.924 43.5515 164.192C44.2347 164.461 45.0067 164.126 45.2758 163.444Z" fill="#B2E26D"/>
<path d="M44.0092 166.654C44.2783 165.972 43.9426 165.202 43.2594 164.933C42.5762 164.664 41.8042 164.999 41.5351 165.681C41.266 166.364 41.6017 167.134 42.2849 167.403C42.9681 167.672 43.7401 167.336 44.0092 166.654Z" fill="#B2E26D"/>
<path d="M161.421 222.262L145.545 206.413C144.182 205.053 142.369 204.303 140.442 204.303C140.119 204.303 139.784 204.332 139.433 204.388L133.163 198.128C137.866 192.082 140.442 184.606 140.442 176.928C140.442 157.861 124.903 142.348 105.805 142.348C86.7074 142.348 71.1685 157.861 71.1685 176.928C71.1685 195.994 86.7074 211.508 105.805 211.508C113.496 211.508 120.985 208.936 127.041 204.24L133.32 210.509C133.007 212.735 133.743 215.007 135.341 216.602L151.216 232.451C152.578 233.812 154.391 234.561 156.318 234.561C158.244 234.561 160.057 233.812 161.421 232.451C164.233 229.642 164.233 225.071 161.421 222.262Z" fill="#3F342F"/>
<path d="M105.805 211.508C124.935 211.508 140.442 196.026 140.442 176.928C140.442 157.83 124.935 142.348 105.805 142.348C86.6759 142.348 71.1685 157.83 71.1685 176.928C71.1685 196.026 86.6759 211.508 105.805 211.508Z" fill="#D69553"/>
<path d="M105.805 205.744C121.747 205.744 134.67 192.843 134.67 176.928C134.67 161.013 121.747 148.111 105.805 148.111C89.8643 148.111 76.9414 161.013 76.9414 176.928C76.9414 192.843 89.8643 205.744 105.805 205.744Z" fill="#F0CEAB"/>
<path d="M161.421 222.262L145.545 206.413C144.182 205.053 142.369 204.303 140.442 204.303C138.516 204.303 136.703 205.053 135.339 206.413C132.526 209.222 132.526 213.791 135.339 216.601L151.214 232.45C152.578 233.812 154.391 234.561 156.318 234.561C158.244 234.561 160.057 233.812 161.421 232.451C164.233 229.642 164.233 225.072 161.421 222.262Z" fill="#F0CEAB"/>
<path d="M91.3731 185.573C96.1555 185.573 100.032 181.702 100.032 176.928C100.032 172.153 96.1555 168.283 91.3731 168.283C86.5907 168.283 82.7139 172.153 82.7139 176.928C82.7139 181.702 86.5907 185.573 91.3731 185.573Z" fill="#735E50"/>
<path d="M87.4692 179.625C86.202 179.625 84.8151 179.221 83.2911 178.08C82.6532 177.603 82.5247 176.7 83.0024 176.063C83.4801 175.429 84.3836 175.298 85.0229 175.775C87.1964 177.402 88.6006 176.701 90.7279 175.638C93.0125 174.497 95.8542 173.078 99.455 175.775C100.093 176.252 100.221 177.155 99.7436 177.792C99.2659 178.428 98.3639 178.56 97.7231 178.08C95.5511 176.455 94.1469 177.157 92.0181 178.217C90.7005 178.874 89.1967 179.625 87.4692 179.625Z" fill="#3F342F"/>
<path d="M120.237 185.573C125.02 185.573 128.897 181.702 128.897 176.928C128.897 172.153 125.02 168.283 120.237 168.283C115.455 168.283 111.578 172.153 111.578 176.928C111.578 181.702 115.455 185.573 120.237 185.573Z" fill="#735E50"/>
<path d="M116.333 179.625C115.066 179.625 113.679 179.221 112.155 178.08C111.517 177.603 111.389 176.7 111.867 176.063C112.344 175.429 113.248 175.298 113.887 175.775C116.061 177.402 117.465 176.701 119.592 175.638C121.877 174.497 124.718 173.078 128.319 175.775C128.957 176.252 129.086 177.155 128.608 177.792C128.13 178.428 127.227 178.56 126.587 178.08C124.417 176.455 123.011 177.157 120.882 178.217C119.565 178.874 118.061 179.625 116.333 179.625Z" fill="#3F342F"/>
<path d="M105.805 171.164C110.588 171.164 114.464 167.294 114.464 162.519C114.464 157.745 110.588 153.875 105.805 153.875C101.023 153.875 97.146 157.745 97.146 162.519C97.146 167.294 101.023 171.164 105.805 171.164Z" fill="#735E50"/>
<path d="M105.804 171.164C105.504 171.164 105.199 171.071 104.939 170.876C104.301 170.399 104.173 169.496 104.651 168.859C106.28 166.691 105.577 165.287 104.514 163.164C103.371 160.883 101.95 158.044 104.651 154.451C105.128 153.815 106.032 153.686 106.671 154.163C107.309 154.64 107.438 155.543 106.96 156.18C105.33 158.348 106.033 159.752 107.097 161.875C108.24 164.156 109.66 166.995 106.96 170.588C106.677 170.966 106.243 171.164 105.804 171.164Z" fill="#3F342F"/>
<path d="M105.805 199.981C110.588 199.981 114.464 196.11 114.464 191.336C114.464 186.561 110.588 182.691 105.805 182.691C101.023 182.691 97.146 186.561 97.146 191.336C97.146 196.11 101.023 199.981 105.805 199.981Z" fill="#735E50"/>
<path d="M105.804 199.981C105.504 199.981 105.199 199.887 104.939 199.693C104.301 199.216 104.173 198.312 104.651 197.676C106.28 195.507 105.577 194.104 104.514 191.98C103.371 189.699 101.95 186.861 104.651 183.267C105.128 182.633 106.032 182.502 106.671 182.979C107.309 183.456 107.438 184.359 106.96 184.996C105.33 187.165 106.033 188.568 107.097 190.692C108.24 192.973 109.66 195.811 106.96 199.405C106.677 199.782 106.243 199.981 105.804 199.981Z" fill="#3F342F"/>
<path d="M156.318 228.797C155.948 228.797 155.579 228.656 155.297 228.375L151.689 224.773C151.125 224.21 151.125 223.299 151.689 222.736C152.254 222.172 153.166 222.172 153.73 222.736L157.338 226.338C157.902 226.901 157.902 227.812 157.338 228.375C157.057 228.656 156.687 228.797 156.318 228.797Z" fill="#3F342F"/>
<path d="M252.916 97.8216C248.119 87.0022 235.399 82.0959 224.562 86.8849C223.714 87.2598 222.88 87.6966 222.068 88.1928L221.333 87.5014C220.9 87.0968 220.621 86.8339 220.527 86.7401C220.505 86.7191 220.482 86.704 220.461 86.6823C220.126 86.9533 219.767 87.1988 219.357 87.3799L180.048 104.751C179.636 104.933 179.214 105.033 178.789 105.098C178.79 105.128 178.786 105.155 178.788 105.185C178.796 105.32 178.801 105.704 178.81 106.298C179.164 128.271 181.136 143.909 184.51 151.518C185.637 154.06 187.048 156.459 188.724 158.681L184.832 160.401C183.997 160.77 183.02 160.393 182.651 159.56L171.943 135.409C169.361 129.585 162.51 126.942 156.676 129.52C154.175 130.625 153.041 133.556 154.148 136.053C155.254 138.549 158.19 139.682 160.691 138.577C161.525 138.208 162.503 138.585 162.872 139.418L174.918 166.587C177.5 172.412 184.351 175.054 190.186 172.476L199.64 168.298C204.649 171.16 210.339 172.807 216.149 173.07C216.912 173.105 217.685 172.96 218.385 172.651L243.928 161.363C244.628 161.053 245.255 160.58 245.739 159.996C254.619 149.299 256.648 134.786 251.033 122.121C250.736 121.45 250.382 120.746 249.966 119.987C255.004 113.75 256.179 105.181 252.916 97.8216ZM243.859 111.128C239.488 105.653 234.076 99.9556 229.651 95.5283C235.228 93.697 241.419 96.3587 243.845 101.83C245.181 104.843 245.162 108.185 243.859 111.128Z" fill="#F0CEAB"/>
<path d="M215.341 78.3234L212.166 79.7265C206.353 74.5787 198.17 73.2756 191.002 76.4432C183.834 79.6107 179.299 86.5339 179.207 94.2914L176.032 95.6945C173.532 96.7996 172.397 99.7305 173.504 102.227C174.611 104.724 177.547 105.856 180.048 104.751L219.357 87.3798C221.857 86.2748 222.992 83.3438 221.885 80.8473C220.778 78.3507 217.842 77.2184 215.341 78.3234Z" fill="#D69553"/>
<path d="M221.336 87.5052C220.901 87.0998 220.622 86.8369 220.525 86.7407C220.503 86.7197 220.48 86.7046 220.46 86.683C220.126 86.9533 219.766 87.1988 219.357 87.3799L180.047 104.751C179.636 104.933 179.214 105.033 178.789 105.098C178.79 105.128 178.786 105.155 178.788 105.185C178.796 105.32 178.801 105.704 178.81 106.298C179.164 128.271 181.136 143.909 184.509 151.518C190.125 164.183 202.25 172.441 216.149 173.07C216.911 173.105 217.684 172.96 218.384 172.651L243.928 161.363C244.628 161.053 245.255 160.58 245.739 159.996C254.619 149.299 256.648 134.786 251.032 122.121C247.659 114.512 237.39 102.54 221.336 87.5052Z" fill="#D69553"/>
<path d="M191.349 69.0693L185.302 71.7418C184.466 72.1113 184.089 73.0846 184.459 73.9193C184.829 74.754 185.804 75.1301 186.64 74.7606L188.152 74.0925L189.52 77.1777C190.002 76.918 190.493 76.6683 191.003 76.4432C191.512 76.218 192.028 76.0227 192.544 75.8414L191.176 72.7562L192.688 72.0881C193.524 71.7187 193.901 70.7453 193.531 69.9106C193.161 69.0759 192.186 68.6999 191.349 69.0693V69.0693Z" fill="#FFB797"/>
<path d="M215.341 78.3236L176.032 95.6946C173.532 96.7997 172.397 99.7306 173.504 102.227C174.611 104.724 177.547 105.856 180.048 104.751L219.357 87.38C221.857 86.2749 222.992 83.344 221.885 80.8474C220.778 78.3509 217.842 77.2185 215.341 78.3236Z" fill="#632F18"/>
<path d="M57.5223 100.366C57.6269 100.241 57.8046 100.178 58.0555 100.178C58.3273 100.178 58.5468 100.272 58.7141 100.461C58.8813 100.649 58.965 101.004 58.965 101.527C58.965 102.049 58.7872 102.75 58.4318 103.628C58.0973 104.485 57.5955 105.353 56.9265 106.231C56.2574 107.088 55.327 107.799 54.1353 108.364C52.9644 108.928 51.6473 109.21 50.1837 109.21C46.7967 109.21 44.0787 108.123 42.0297 105.949C39.9808 103.753 38.9563 100.638 38.9563 96.603C38.9563 92.5469 39.9181 89.5049 41.8416 87.4768C43.786 85.4279 46.3263 84.4034 49.4624 84.4034C51.4905 84.4034 53.0794 84.9261 54.2294 85.9715C55.3793 87.0169 55.9542 88.1772 55.9542 89.4526C55.9542 89.9753 55.7974 90.3935 55.4838 90.7071C55.1702 91.0207 54.8566 91.1775 54.543 91.1775C53.9576 91.1775 53.5603 91.052 53.3512 90.8012C53.4767 90.4875 53.5394 90.1007 53.5394 89.6408C53.5394 88.5118 53.1735 87.6127 52.4418 86.9437C51.7309 86.2746 50.6855 85.9401 49.3056 85.9401C47.2357 85.9401 45.469 86.9332 44.0055 88.9195C42.5629 90.8848 41.8416 93.4982 41.8416 96.7598C41.8416 100.021 42.6465 102.656 44.2564 104.663C45.8663 106.649 47.8002 107.642 50.0583 107.642C52.3163 107.642 54.1248 106.963 55.4838 105.604C56.8428 104.224 57.5223 102.478 57.5223 100.366ZM63.8316 93.3414C65.6924 93.3414 67.2082 93.9582 68.379 95.1918C69.5499 96.4253 70.1353 98.1084 70.1353 100.241C70.1353 102.353 69.5812 104.109 68.4731 105.51C67.3859 106.911 65.9224 107.611 64.0825 107.611C62.2426 107.611 60.7059 106.984 59.4724 105.729C58.2597 104.454 57.6534 102.698 57.6534 100.461C57.6534 98.2025 58.2179 96.4567 59.3469 95.2231C60.4968 93.9687 61.9917 93.3414 63.8316 93.3414ZM63.863 94.5645C63.2985 94.5645 62.8071 94.7109 62.389 95.0036C61.9917 95.2754 61.7931 95.6726 61.7931 96.1953C61.7931 97.5334 62.3158 98.8192 63.3612 100.053C64.4066 101.265 65.6506 102.07 67.0932 102.468C67.135 101.673 67.1559 100.994 67.1559 100.429C67.1559 98.2547 66.926 96.7389 66.466 95.8817C66.006 95.0036 65.1384 94.5645 63.863 94.5645ZM60.6327 100.429C60.6327 102.562 60.8941 104.088 61.4168 105.008C61.9604 105.928 62.8385 106.388 64.0512 106.388C64.8875 106.388 65.5251 106.179 65.9642 105.761C66.4242 105.322 66.7378 104.621 66.9051 103.659C65.5461 103.367 64.2916 102.75 63.1417 101.809C62.0127 100.868 61.1868 99.8228 60.6641 98.6729C60.6432 99.0283 60.6327 99.6137 60.6327 100.429ZM79.8473 94.8782H75.1117V118.995C74.9026 119.288 74.5368 119.434 74.0141 119.434C73.4914 119.434 73.0732 119.267 72.7596 118.932C72.446 118.619 72.2892 118.148 72.2892 117.521V89.9858C72.2892 87.3305 72.5714 85.3756 73.1359 84.1211C73.7005 82.8667 74.704 82.2395 76.1467 82.2395C78.2165 82.2395 79.2514 83.6403 79.2514 86.4419C79.2514 89.6617 78.1642 92.1079 75.9898 93.7805H78.781C79.2201 93.7805 79.5023 93.8641 79.6278 94.0314C79.7741 94.1987 79.8473 94.4809 79.8473 94.8782ZM77.9029 86.4733C77.9029 84.4661 77.4011 83.4626 76.3975 83.4626C76.1257 83.4626 75.9167 83.5566 75.7703 83.7448C75.624 83.9121 75.509 84.3616 75.4253 85.0934C75.2581 86.3478 75.1535 89.024 75.1117 93.1219C76.9725 91.7629 77.9029 89.5467 77.9029 86.4733ZM88.6371 94.8782H83.9015V118.995C83.6924 119.288 83.3266 119.434 82.8039 119.434C82.2812 119.434 81.863 119.267 81.5494 118.932C81.2358 118.619 81.079 118.148 81.079 117.521V89.9858C81.079 87.3305 81.3612 85.3756 81.9257 84.1211C82.4903 82.8667 83.4938 82.2395 84.9365 82.2395C87.0063 82.2395 88.0412 83.6403 88.0412 86.4419C88.0412 89.6617 86.954 92.1079 84.7796 93.7805H87.5708C88.0099 93.7805 88.2921 93.8641 88.4176 94.0314C88.5639 94.1987 88.6371 94.4809 88.6371 94.8782ZM86.6927 86.4733C86.6927 84.4661 86.1909 83.4626 85.1873 83.4626C84.9155 83.4626 84.7065 83.5566 84.5601 83.7448C84.4138 83.9121 84.2988 84.3616 84.2151 85.0934C84.0479 86.3478 83.9433 89.024 83.9015 93.1219C85.7623 91.7629 86.6927 89.5467 86.6927 86.4733ZM103.041 100.461C103.48 100.461 103.699 100.795 103.699 101.464C103.699 103.011 103.156 104.423 102.068 105.698C101.002 106.973 99.3713 107.611 97.176 107.611C94.9807 107.611 93.214 107.026 91.8759 105.855C90.5587 104.663 89.9002 102.928 89.9002 100.649C89.9002 98.3488 90.4856 96.5612 91.6564 95.2859C92.8272 93.9896 94.3221 93.3414 96.1411 93.3414C97.4583 93.3414 98.42 93.6969 99.0264 94.4077C99.6327 95.0977 99.9358 95.9235 99.9358 96.8853C99.9358 98.4534 99.2772 99.7601 97.9601 100.805C96.6638 101.83 95.0016 102.342 92.9736 102.342C93.1617 103.68 93.6426 104.694 94.4162 105.384C95.2107 106.053 96.2456 106.388 97.521 106.388C98.8173 106.388 99.9777 105.907 101.002 104.945C102.048 103.963 102.57 102.53 102.57 100.649C102.591 100.523 102.748 100.461 103.041 100.461ZM92.8795 100.9V101.182C94.1758 101.015 95.2943 100.607 96.2352 99.9587C97.1969 99.3106 97.6778 98.3488 97.6778 97.0735C97.6778 96.2581 97.5001 95.6413 97.1447 95.2231C96.7892 94.7841 96.2874 94.5645 95.6393 94.5645C94.6566 94.5645 93.9458 95.0454 93.5067 96.0072C93.0886 96.9689 92.8795 98.5997 92.8795 100.9ZM115.812 100.461C116.251 100.461 116.47 100.795 116.47 101.464C116.47 103.011 115.927 104.423 114.84 105.698C113.773 106.973 112.143 107.611 109.947 107.611C107.752 107.611 105.985 107.026 104.647 105.855C103.33 104.663 102.671 102.928 102.671 100.649C102.671 98.3488 103.257 96.5612 104.428 95.2859C105.598 93.9896 107.093 93.3414 108.912 93.3414C110.23 93.3414 111.191 93.6969 111.798 94.4077C112.404 95.0977 112.707 95.9235 112.707 96.8853C112.707 98.4534 112.048 99.7601 110.731 100.805C109.435 101.83 107.773 102.342 105.745 102.342C105.933 103.68 106.414 104.694 107.187 105.384C107.982 106.053 109.017 106.388 110.292 106.388C111.589 106.388 112.749 105.907 113.773 104.945C114.819 103.963 115.341 102.53 115.341 100.649C115.362 100.523 115.519 100.461 115.812 100.461ZM105.651 100.9V101.182C106.947 101.015 108.066 100.607 109.006 99.9587C109.968 99.3106 110.449 98.3488 110.449 97.0735C110.449 96.2581 110.271 95.6413 109.916 95.2231C109.56 94.7841 109.059 94.5645 108.411 94.5645C107.428 94.5645 106.717 95.0454 106.278 96.0072C105.86 96.9689 105.651 98.5997 105.651 100.9Z" fill="white"/>
<defs>
<linearGradient id="paint0_linear_37_5304" x1="135.409" y1="-162.492" x2="129.168" y2="250.414" gradientUnits="userSpaceOnUse">
<stop stop-color="#9B5A33"/>
<stop offset="1" stop-color="#352414" stop-opacity="0"/>
</linearGradient>
</defs>
</svg>
