<svg width="35" height="47" viewBox="0 0 35 47" fill="none" xmlns="http://www.w3.org/2000/svg">
<path d="M31.0969 35.4481L33.1901 17.0449H1.80981L3.90308 35.4481H31.0969Z" fill="#CE7C2E"/>
<path d="M29.9251 17.0449L27.8318 35.4481H31.0971L33.1904 17.0449H29.9251Z" fill="#B0673B"/>
<path d="M31.5948 17.0446L32.464 9.40186H2.53589L3.4052 17.0446H31.5948Z" fill="#E0E0E0"/>
<path d="M5.49878 35.448L6.73421 46.3097H28.2662L29.5017 35.448H5.49878Z" fill="#E0E0E0"/>
<path d="M29.1989 9.40186L28.3296 17.0446H31.5949L32.4641 9.40186H29.1989Z" fill="#C6C6C6"/>
<path d="M26.2363 35.448L25.0007 46.3097H28.266L29.5015 35.448H26.2363Z" fill="#C6C6C6"/>
<path d="M34.3195 4.99951H0.680176V9.40265H34.3195V4.99951Z" fill="#494949"/>
<path d="M32.464 4.99889H2.53589L5.05477 0.690674H29.9452L32.464 4.99889Z" fill="#303030"/>
<path d="M34.3193 4.99951H30.2378V9.40265H34.3193V4.99951Z" fill="#303030"/>
<path d="M29.9451 0.690674H25.8635L28.3824 4.99889H32.464L29.9451 0.690674Z" fill="#232323"/>
<path d="M17.4997 30.7552C19.6612 30.7552 21.4134 28.5887 21.4134 25.9163C21.4134 23.2438 19.6612 21.0774 17.4997 21.0774C15.3382 21.0774 13.5859 23.2438 13.5859 25.9163C13.5859 28.5887 15.3382 30.7552 17.4997 30.7552Z" fill="#FFC39B"/>
<path d="M17.4999 21.0774C17.072 21.0774 16.6607 21.1635 16.2754 21.3203C17.8368 21.956 18.9644 23.7727 18.9644 25.9161C18.9644 28.0596 17.8368 29.8763 16.2754 30.512C16.6607 30.6689 17.072 30.755 17.4999 30.755C19.6612 30.755 21.4132 28.5885 21.4132 25.9161C21.4132 23.2437 19.6612 21.0774 17.4999 21.0774Z" fill="#A9612F"/>
<path d="M34.3198 4.30822H32.8515L30.5301 0.338089C30.4077 0.128424 30.1854 0 29.9452 0H5.05476C4.81469 0 4.59234 0.128424 4.46982 0.338089L2.14869 4.30813H0.680243C0.30454 4.30813 0 4.6173 0 4.99872V9.40185C0 9.78327 0.30454 10.0924 0.680243 10.0924H1.92969L2.64185 16.3538H1.80988C1.61584 16.3538 1.43111 16.4379 1.30207 16.585C1.17304 16.732 1.11192 16.928 1.13407 17.1236L3.22733 35.5268C3.26694 35.8753 3.55764 36.1383 3.90315 36.1383H4.89227L6.05826 46.3885C6.09786 46.737 6.38857 47 6.73407 47H10.8603C11.236 47 11.5405 46.6908 11.5405 46.3094C11.5405 45.928 11.236 45.6188 10.8603 45.6188H7.34035L6.26198 36.1383H28.7383L27.6599 45.6188H13.5812C13.2055 45.6188 12.9009 45.928 12.9009 46.3094C12.9009 46.6908 13.2055 47 13.5812 47H28.266C28.6115 47 28.9022 46.7371 28.9417 46.3885L30.1076 36.1383H31.0968C31.4424 36.1383 31.733 35.8754 31.7725 35.5268L33.8657 17.1236C33.8881 16.9279 33.827 16.732 33.6978 16.585C33.5687 16.4379 33.3839 16.3538 33.1899 16.3538H32.358L33.0702 10.0924H34.3198C34.6956 10.0924 35 9.78327 35 9.40185V4.99881C35.0001 4.61739 34.6955 4.30822 34.3198 4.30822ZM30.9885 16.3539H27.0718C26.696 16.3539 26.3916 16.6631 26.3916 17.0445C26.3916 17.4259 26.696 17.7351 27.0718 17.7351H32.4267L30.4905 34.7571H4.50933L2.57313 17.7352H24.3508C24.7266 17.7352 25.0311 17.426 25.0311 17.0446C25.0311 16.6632 24.7266 16.354 24.3508 16.354H4.01138L3.29922 10.0926H31.7007L30.9885 16.3539ZM33.6395 8.71127H1.36049V5.6894H6.74881C7.12451 5.6894 7.42905 5.38023 7.42905 4.99881C7.42905 4.61739 7.12451 4.30822 6.74881 4.30822H3.73062L5.44194 1.38127H29.5579L31.2691 4.30822H9.46987C9.09417 4.30822 8.78963 4.61739 8.78963 4.99881C8.78963 5.38023 9.09417 5.6894 9.46987 5.6894H33.6394V8.71127H33.6395Z" fill="black"/>
<path d="M18.1267 20.4393C18.0975 20.4325 18.0679 20.4285 18.0381 20.4257C17.8615 20.4007 17.6821 20.3865 17.5 20.3865C14.9671 20.3865 12.9062 22.867 12.9062 25.916C12.9062 28.9642 14.966 31.4443 17.4982 31.4454C17.4987 31.4454 17.499 31.4455 17.4995 31.4455C17.4999 31.4455 17.5002 31.4454 17.5006 31.4454C20.0333 31.4451 22.0938 28.9648 22.0938 25.916C22.0938 23.123 20.3642 20.8085 18.1267 20.4393ZM14.2669 25.916C14.2669 23.9849 15.3007 22.3578 16.6956 21.8978C16.1378 23.1603 15.9124 24.9531 17.212 26.6672C18.1607 27.9188 17.506 29.4081 17.1459 30.0388C15.5291 29.8116 14.2669 28.0496 14.2669 25.916ZM18.7745 29.7277C18.8042 29.6429 18.8329 29.5564 18.8594 29.4665C19.2609 28.1049 19.0639 26.8457 18.2901 25.8249C17.0384 24.174 17.8222 22.552 18.257 21.8838C19.6757 22.3222 20.7332 23.9633 20.7332 25.9161C20.7332 27.6228 19.9253 29.0918 18.7745 29.7277Z" fill="black"/>
</svg>
