<svg width="18" height="17" viewBox="0 0 18 17" fill="none" xmlns="http://www.w3.org/2000/svg">
<path d="M13.932 10.1999C13.7162 10.409 13.617 10.7115 13.6662 11.0082L14.407 15.1082C14.4695 15.4557 14.3228 15.8074 14.032 16.0082C13.747 16.2165 13.3678 16.2415 13.057 16.0749L9.36616 14.1499C9.23782 14.0815 9.09532 14.0449 8.94949 14.0407H8.72366C8.64532 14.0524 8.56866 14.0774 8.49866 14.1157L4.80699 16.0499C4.62449 16.1415 4.41782 16.174 4.21532 16.1415C3.72199 16.0482 3.39282 15.5782 3.47366 15.0824L4.21532 10.9824C4.26449 10.6832 4.16532 10.379 3.94949 10.1665L0.940323 7.24985C0.688656 7.00569 0.601156 6.63902 0.716156 6.30819C0.827823 5.97819 1.11282 5.73735 1.45699 5.68319L5.59866 5.08235C5.91366 5.04985 6.19032 4.85819 6.33199 4.57485L8.15699 0.833187C8.20032 0.749853 8.25616 0.673187 8.32366 0.608187L8.39866 0.549854C8.43782 0.50652 8.48282 0.470687 8.53282 0.44152L8.62366 0.408187L8.76532 0.349854H9.11616C9.42949 0.382354 9.70532 0.569854 9.84949 0.849854L11.6987 4.57485C11.832 4.84735 12.0912 5.03652 12.3903 5.08235L16.532 5.68319C16.882 5.73319 17.1745 5.97485 17.2903 6.30819C17.3995 6.64235 17.3053 7.00902 17.0487 7.24985L13.932 10.1999Z" fill="#E68034"/>
</svg>
